  0
SECTION
  2
HEADER
  9
$ANGBASE
  50
0.0
  9
$ANGDIR
  70
  1
  9
$MEASUREMENT
  70
0
  0
ENDSEC
  0
SECTION
  2
TABLES
  0
TABLE
  2
LTYPE
  70
4
  0
LTYPE
  5
40F
  2
CONTINUOUS
  70
0
  3
Solid line
  72
65
  73
0
  40
0.0
  0
LTYPE
  5
410
  2
DASHDOT
 70
0
  3
Dash Dot ____ _ ____ _
 72
65
 73
4
 40
2.0
 49
1.25
 49
-0.25
 49
0.25
 49
-0.25
  0
LTYPE
  5
411
  2
DASHED
 70
0
  3
Dashed __ __ __ __ __
 72
65
 73
2
 40
0.75
 49
0.5
 49
-0.25
  0
LTYPE
  5
43B
  2
DOTTED
 70
0
  3
Dotted .  .  .  .
 72
65
 73
2
 40
0.2
 49
0.0
 49
-0.2
  0
ENDTAB
  0
TABLE
  2
STYLE
  70
4
  0
STYLE
  2
KICAD
  70
0
  40
0
  41
1
  42
1
  50
0
  71
0
  3
isocp.shx
  0
STYLE
  2
KICADB
  70
0
  40
0
  41
1
  42
1
  50
0
  71
0
  3
isocp.shx
  0
STYLE
  2
KICADI
  70
0
  40
0
  41
1
  42
1
  50
15
  71
0
  3
isocp.shx
  0
STYLE
  2
KICADBI
  70
0
  40
0
  41
1
  42
1
  50
15
  71
0
  3
isocp.shx
  0
ENDTAB
  0
TABLE
  2
LAYER
  70
30
  0
LAYER
  2
BLACK
  70
0
  62
7
  6
CONTINUOUS
  0
LAYER
  2
GRAY1
  70
0
  62
251
  6
CONTINUOUS
  0
LAYER
  2
GRAY2
  70
0
  62
8
  6
CONTINUOUS
  0
LAYER
  2
GRAY3
  70
0
  62
9
  6
CONTINUOUS
  0
LAYER
  2
WHITE
  70
0
  62
7
  6
CONTINUOUS
  0
LAYER
  2
LYELLOW
  70
0
  62
51
  6
CONTINUOUS
  0
LAYER
  2
BLUE1
  70
0
  62
178
  6
CONTINUOUS
  0
LAYER
  2
GREEN1
  70
0
  62
98
  6
CONTINUOUS
  0
LAYER
  2
CYAN1
  70
0
  62
138
  6
CONTINUOUS
  0
LAYER
  2
RED1
  70
0
  62
18
  6
CONTINUOUS
  0
LAYER
  2
MAGENTA1
  70
0
  62
228
  6
CONTINUOUS
  0
LAYER
  2
BROWN1
  70
0
  62
58
  6
CONTINUOUS
  0
LAYER
  2
BLUE2
  70
0
  62
5
  6
CONTINUOUS
  0
LAYER
  2
GREEN2
  70
0
  62
3
  6
CONTINUOUS
  0
LAYER
  2
CYAN2
  70
0
  62
4
  6
CONTINUOUS
  0
LAYER
  2
RED2
  70
0
  62
1
  6
CONTINUOUS
  0
LAYER
  2
MAGENTA2
  70
0
  62
6
  6
CONTINUOUS
  0
LAYER
  2
BROWN2
  70
0
  62
54
  6
CONTINUOUS
  0
LAYER
  2
BLUE3
  70
0
  62
171
  6
CONTINUOUS
  0
LAYER
  2
GREEN3
  70
0
  62
91
  6
CONTINUOUS
  0
LAYER
  2
CYAN3
  70
0
  62
131
  6
CONTINUOUS
  0
LAYER
  2
RED3
  70
0
  62
11
  6
CONTINUOUS
  0
LAYER
  2
MAGENTA3
  70
0
  62
221
  6
CONTINUOUS
  0
LAYER
  2
YELLOW3
  70
0
  62
2
  6
CONTINUOUS
  0
LAYER
  2
BLUE4
  70
0
  62
5
  6
CONTINUOUS
  0
LAYER
  2
GREEN4
  70
0
  62
3
  6
CONTINUOUS
  0
LAYER
  2
CYAN4
  70
0
  62
4
  6
CONTINUOUS
  0
LAYER
  2
RED4
  70
0
  62
1
  6
CONTINUOUS
  0
LAYER
  2
MAGENTA4
  70
0
  62
6
  6
CONTINUOUS
  0
LAYER
  2
YELLOW4
  70
0
  62
2
  6
CONTINUOUS
  0
ENDTAB
  0
ENDSEC
  0
SECTION
  2
ENTITIES
0
LINE
8
BLACK
6
CONTINUOUS
10
119.106
20
-115.021
11
119.094
21
-115.019
0
LINE
8
BLACK
6
CONTINUOUS
10
119.094
20
-115.019
11
119.091
21
-115.018
0
LINE
8
BLACK
6
CONTINUOUS
10
119.091
20
-115.018
11
119.088
21
-115.017
0
LINE
8
BLACK
6
CONTINUOUS
10
119.088
20
-115.017
11
118.231
21
-114.783
0
LINE
8
BLACK
6
CONTINUOUS
10
118.231
20
-114.783
11
118.231
21
-114.783
0
LINE
8
BLACK
6
CONTINUOUS
10
118.231
20
-114.783
11
118.231
21
-114.783
0
LINE
8
BLACK
6
CONTINUOUS
10
118.231
20
-114.783
11
118.22
21
-114.779
0
LINE
8
BLACK
6
CONTINUOUS
10
118.22
20
-114.779
11
118.217
21
-114.778
0
LINE
8
BLACK
6
CONTINUOUS
10
118.217
20
-114.778
11
118.214
21
-114.777
0
LINE
8
BLACK
6
CONTINUOUS
10
118.214
20
-114.777
11
117.412
21
-114.394
0
LINE
8
BLACK
6
CONTINUOUS
10
117.412
20
-114.394
11
117.412
21
-114.394
0
LINE
8
BLACK
6
CONTINUOUS
10
117.412
20
-114.394
11
117.412
21
-114.394
0
LINE
8
BLACK
6
CONTINUOUS
10
117.412
20
-114.394
11
117.402
21
-114.388
0
LINE
8
BLACK
6
CONTINUOUS
10
117.402
20
-114.388
11
117.399
21
-114.387
0
LINE
8
BLACK
6
CONTINUOUS
10
117.399
20
-114.387
11
117.396
21
-114.385
0
LINE
8
BLACK
6
CONTINUOUS
10
117.396
20
-114.385
11
116.675
21
-113.866
0
LINE
8
BLACK
6
CONTINUOUS
10
116.675
20
-113.866
11
116.675
21
-113.866
0
LINE
8
BLACK
6
CONTINUOUS
10
116.675
20
-113.866
11
116.675
21
-113.866
0
LINE
8
BLACK
6
CONTINUOUS
10
116.675
20
-113.866
11
116.666
21
-113.859
0
LINE
8
BLACK
6
CONTINUOUS
10
116.666
20
-113.859
11
116.663
21
-113.857
0
LINE
8
BLACK
6
CONTINUOUS
10
116.663
20
-113.857
11
116.661
21
-113.855
0
LINE
8
BLACK
6
CONTINUOUS
10
116.661
20
-113.855
11
116.042
21
-113.216
0
LINE
8
BLACK
6
CONTINUOUS
10
116.042
20
-113.216
11
116.035
21
-113.207
0
LINE
8
BLACK
6
CONTINUOUS
10
116.035
20
-113.207
11
116.033
21
-113.205
0
LINE
8
BLACK
6
CONTINUOUS
10
116.033
20
-113.205
11
116.031
21
-113.202
0
LINE
8
BLACK
6
CONTINUOUS
10
116.031
20
-113.202
11
115.535
21
-112.465
0
LINE
8
BLACK
6
CONTINUOUS
10
115.535
20
-112.465
11
115.535
21
-112.465
0
LINE
8
BLACK
6
CONTINUOUS
10
115.535
20
-112.465
11
115.535
21
-112.465
0
LINE
8
BLACK
6
CONTINUOUS
10
115.535
20
-112.465
11
115.53
21
-112.455
0
LINE
8
BLACK
6
CONTINUOUS
10
115.53
20
-112.455
11
115.528
21
-112.452
0
LINE
8
BLACK
6
CONTINUOUS
10
115.528
20
-112.452
11
115.527
21
-112.449
0
LINE
8
BLACK
6
CONTINUOUS
10
115.527
20
-112.449
11
115.17
21
-111.635
0
LINE
8
BLACK
6
CONTINUOUS
10
115.17
20
-111.635
11
115.17
21
-111.635
0
LINE
8
BLACK
6
CONTINUOUS
10
115.17
20
-111.635
11
115.17
21
-111.635
0
LINE
8
BLACK
6
CONTINUOUS
10
115.17
20
-111.635
11
115.166
21
-111.624
0
LINE
8
BLACK
6
CONTINUOUS
10
115.166
20
-111.624
11
115.165
21
-111.621
0
LINE
8
BLACK
6
CONTINUOUS
10
115.165
20
-111.621
11
115.164
21
-111.618
0
LINE
8
BLACK
6
CONTINUOUS
10
115.164
20
-111.618
11
114.956
21
-110.754
0
LINE
8
BLACK
6
CONTINUOUS
10
114.956
20
-110.754
11
114.954
21
-110.742
0
LINE
8
BLACK
6
CONTINUOUS
10
114.954
20
-110.742
11
114.954
21
-110.74
0
LINE
8
BLACK
6
CONTINUOUS
10
114.954
20
-110.74
11
114.954
21
-110.738
0
LINE
8
BLACK
6
CONTINUOUS
10
114.954
20
-110.738
11
114.9
21
-110.007
0
LINE
8
BLACK
6
CONTINUOUS
10
114.9
20
-110.007
11
114.9
21
-109.996
0
LINE
8
BLACK
6
CONTINUOUS
10
114.9
20
-109.996
11
114.902
21
-109.978
0
LINE
8
BLACK
6
CONTINUOUS
10
114.902
20
-109.978
11
114.908
21
-109.961
0
LINE
8
BLACK
6
CONTINUOUS
10
114.908
20
-109.961
11
114.916
21
-109.946
0
LINE
8
BLACK
6
CONTINUOUS
10
114.916
20
-109.946
11
114.925
21
-109.934
0
LINE
8
BLACK
6
CONTINUOUS
10
114.925
20
-109.934
11
114.925
21
-70.0655
0
LINE
8
BLACK
6
CONTINUOUS
10
114.925
20
-70.0655
11
114.919
21
-70.0584
0
LINE
8
BLACK
6
CONTINUOUS
10
114.919
20
-70.0584
11
114.91
21
-70.0431
0
LINE
8
BLACK
6
CONTINUOUS
10
114.91
20
-70.0431
11
114.904
21
-70.0264
0
LINE
8
BLACK
6
CONTINUOUS
10
114.904
20
-70.0264
11
114.9
21
-70.0089
0
LINE
8
BLACK
6
CONTINUOUS
10
114.9
20
-70.0089
11
114.9
21
-69.9911
0
LINE
8
BLACK
6
CONTINUOUS
10
114.9
20
-69.9911
11
114.979
21
-69.1057
0
LINE
8
BLACK
6
CONTINUOUS
10
114.979
20
-69.1057
11
114.981
21
-69.0943
0
LINE
8
BLACK
6
CONTINUOUS
10
114.981
20
-69.0943
11
114.982
21
-69.0913
0
LINE
8
BLACK
6
CONTINUOUS
10
114.982
20
-69.0913
11
114.983
21
-69.0882
0
LINE
8
BLACK
6
CONTINUOUS
10
114.983
20
-69.0882
11
115.217
21
-68.2308
0
LINE
8
BLACK
6
CONTINUOUS
10
115.217
20
-68.2308
11
115.221
21
-68.2198
0
LINE
8
BLACK
6
CONTINUOUS
10
115.221
20
-68.2198
11
115.222
21
-68.217
0
LINE
8
BLACK
6
CONTINUOUS
10
115.222
20
-68.217
11
115.223
21
-68.2141
0
LINE
8
BLACK
6
CONTINUOUS
10
115.223
20
-68.2141
11
115.606
21
-67.4117
0
LINE
8
BLACK
6
CONTINUOUS
10
115.606
20
-67.4117
11
115.606
21
-67.4117
0
LINE
8
BLACK
6
CONTINUOUS
10
115.606
20
-67.4117
11
115.606
21
-67.4117
0
LINE
8
BLACK
6
CONTINUOUS
10
115.606
20
-67.4117
11
115.612
21
-67.4017
0
LINE
8
BLACK
6
CONTINUOUS
10
115.612
20
-67.4017
11
115.613
21
-67.3991
0
LINE
8
BLACK
6
CONTINUOUS
10
115.613
20
-67.3991
11
115.615
21
-67.3964
0
LINE
8
BLACK
6
CONTINUOUS
10
115.615
20
-67.3964
11
116.134
21
-66.6745
0
LINE
8
BLACK
6
CONTINUOUS
10
116.134
20
-66.6745
11
116.134
21
-66.6745
0
LINE
8
BLACK
6
CONTINUOUS
10
116.134
20
-66.6745
11
116.134
21
-66.6745
0
LINE
8
BLACK
6
CONTINUOUS
10
116.134
20
-66.6745
11
116.141
21
-66.6656
0
LINE
8
BLACK
6
CONTINUOUS
10
116.141
20
-66.6656
11
116.143
21
-66.6635
0
LINE
8
BLACK
6
CONTINUOUS
10
116.143
20
-66.6635
11
116.145
21
-66.6611
0
LINE
8
BLACK
6
CONTINUOUS
10
116.145
20
-66.6611
11
116.784
21
-66.0425
0
LINE
8
BLACK
6
CONTINUOUS
10
116.784
20
-66.0425
11
116.793
21
-66.0349
0
LINE
8
BLACK
6
CONTINUOUS
10
116.793
20
-66.0349
11
116.795
21
-66.0332
0
LINE
8
BLACK
6
CONTINUOUS
10
116.795
20
-66.0332
11
116.798
21
-66.0313
0
LINE
8
BLACK
6
CONTINUOUS
10
116.798
20
-66.0313
11
117.535
21
-65.5355
0
LINE
8
BLACK
6
CONTINUOUS
10
117.535
20
-65.5355
11
117.535
21
-65.5355
0
LINE
8
BLACK
6
CONTINUOUS
10
117.535
20
-65.5355
11
117.535
21
-65.5355
0
LINE
8
BLACK
6
CONTINUOUS
10
117.535
20
-65.5355
11
117.545
21
-65.5296
0
LINE
8
BLACK
6
CONTINUOUS
10
117.545
20
-65.5296
11
117.548
21
-65.5284
0
LINE
8
BLACK
6
CONTINUOUS
10
117.548
20
-65.5284
11
117.551
21
-65.5269
0
LINE
8
BLACK
6
CONTINUOUS
10
117.551
20
-65.5269
11
118.365
21
-65.1696
0
LINE
8
BLACK
6
CONTINUOUS
10
118.365
20
-65.1696
11
118.365
21
-65.1696
0
LINE
8
BLACK
6
CONTINUOUS
10
118.365
20
-65.1696
11
118.365
21
-65.1696
0
LINE
8
BLACK
6
CONTINUOUS
10
118.365
20
-65.1696
11
118.376
21
-65.1656
0
LINE
8
BLACK
6
CONTINUOUS
10
118.376
20
-65.1656
11
118.379
21
-65.1649
0
LINE
8
BLACK
6
CONTINUOUS
10
118.379
20
-65.1649
11
118.382
21
-65.1639
0
LINE
8
BLACK
6
CONTINUOUS
10
118.382
20
-65.1639
11
119.246
21
-64.9564
0
LINE
8
BLACK
6
CONTINUOUS
10
119.246
20
-64.9564
11
119.258
21
-64.9544
0
LINE
8
BLACK
6
CONTINUOUS
10
119.258
20
-64.9544
11
119.26
21
-64.9543
0
LINE
8
BLACK
6
CONTINUOUS
10
119.26
20
-64.9543
11
119.262
21
-64.9539
0
LINE
8
BLACK
6
CONTINUOUS
10
119.262
20
-64.9539
11
119.993
21
-64.9003
0
LINE
8
BLACK
6
CONTINUOUS
10
119.993
20
-64.9003
11
120.004
21
-64.9001
0
LINE
8
BLACK
6
CONTINUOUS
10
120.004
20
-64.9001
11
120.022
21
-64.9024
0
LINE
8
BLACK
6
CONTINUOUS
10
120.022
20
-64.9024
11
120.039
21
-64.9078
0
LINE
8
BLACK
6
CONTINUOUS
10
120.039
20
-64.9078
11
120.054
21
-64.9161
0
LINE
8
BLACK
6
CONTINUOUS
10
120.054
20
-64.9161
11
120.066
21
-64.925
0
LINE
8
BLACK
6
CONTINUOUS
10
120.066
20
-64.925
11
159.934
21
-64.925
0
LINE
8
BLACK
6
CONTINUOUS
10
159.934
20
-64.925
11
159.942
21
-64.9188
0
LINE
8
BLACK
6
CONTINUOUS
10
159.942
20
-64.9188
11
159.957
21
-64.9097
0
LINE
8
BLACK
6
CONTINUOUS
10
159.957
20
-64.9097
11
159.974
21
-64.9035
0
LINE
8
BLACK
6
CONTINUOUS
10
159.974
20
-64.9035
11
159.991
21
-64.9004
0
LINE
8
BLACK
6
CONTINUOUS
10
159.991
20
-64.9004
11
160.009
21
-64.9004
0
LINE
8
BLACK
6
CONTINUOUS
10
160.009
20
-64.9004
11
160.894
21
-64.9794
0
LINE
8
BLACK
6
CONTINUOUS
10
160.894
20
-64.9794
11
160.894
21
-64.9794
0
LINE
8
BLACK
6
CONTINUOUS
10
160.894
20
-64.9794
11
160.894
21
-64.9794
0
LINE
8
BLACK
6
CONTINUOUS
10
160.894
20
-64.9794
11
160.906
21
-64.9811
0
LINE
8
BLACK
6
CONTINUOUS
10
160.906
20
-64.9811
11
160.909
21
-64.982
0
LINE
8
BLACK
6
CONTINUOUS
10
160.909
20
-64.982
11
160.912
21
-64.9826
0
LINE
8
BLACK
6
CONTINUOUS
10
160.912
20
-64.9826
11
161.769
21
-65.2171
0
LINE
8
BLACK
6
CONTINUOUS
10
161.769
20
-65.2171
11
161.769
21
-65.2171
0
LINE
8
BLACK
6
CONTINUOUS
10
161.769
20
-65.2171
11
161.769
21
-65.2171
0
LINE
8
BLACK
6
CONTINUOUS
10
161.769
20
-65.2171
11
161.78
21
-65.2208
0
LINE
8
BLACK
6
CONTINUOUS
10
161.78
20
-65.2208
11
161.783
21
-65.2222
0
LINE
8
BLACK
6
CONTINUOUS
10
161.783
20
-65.2222
11
161.786
21
-65.2233
0
LINE
8
BLACK
6
CONTINUOUS
10
161.786
20
-65.2233
11
162.588
21
-65.606
0
LINE
8
BLACK
6
CONTINUOUS
10
162.588
20
-65.606
11
162.588
21
-65.606
0
LINE
8
BLACK
6
CONTINUOUS
10
162.588
20
-65.606
11
162.588
21
-65.606
0
LINE
8
BLACK
6
CONTINUOUS
10
162.588
20
-65.606
11
162.598
21
-65.6116
0
LINE
8
BLACK
6
CONTINUOUS
10
162.598
20
-65.6116
11
162.601
21
-65.6135
0
LINE
8
BLACK
6
CONTINUOUS
10
162.601
20
-65.6135
11
162.604
21
-65.6151
0
LINE
8
BLACK
6
CONTINUOUS
10
162.604
20
-65.6151
11
163.325
21
-66.1338
0
LINE
8
BLACK
6
CONTINUOUS
10
163.325
20
-66.1338
11
163.325
21
-66.1338
0
LINE
8
BLACK
6
CONTINUOUS
10
163.325
20
-66.1338
11
163.325
21
-66.1338
0
LINE
8
BLACK
6
CONTINUOUS
10
163.325
20
-66.1338
11
163.334
21
-66.1411
0
LINE
8
BLACK
6
CONTINUOUS
10
163.334
20
-66.1411
11
163.337
21
-66.1434
0
LINE
8
BLACK
6
CONTINUOUS
10
163.337
20
-66.1434
11
163.339
21
-66.1454
0
LINE
8
BLACK
6
CONTINUOUS
10
163.339
20
-66.1454
11
163.958
21
-66.7838
0
LINE
8
BLACK
6
CONTINUOUS
10
163.958
20
-66.7838
11
163.965
21
-66.7925
0
LINE
8
BLACK
6
CONTINUOUS
10
163.965
20
-66.7925
11
163.967
21
-66.7952
0
LINE
8
BLACK
6
CONTINUOUS
10
163.967
20
-66.7952
11
163.969
21
-66.7976
0
LINE
8
BLACK
6
CONTINUOUS
10
163.969
20
-66.7976
11
164.465
21
-67.5355
0
LINE
8
BLACK
6
CONTINUOUS
10
164.465
20
-67.5355
11
164.465
21
-67.5355
0
LINE
8
BLACK
6
CONTINUOUS
10
164.465
20
-67.5355
11
164.465
21
-67.5355
0
LINE
8
BLACK
6
CONTINUOUS
10
164.465
20
-67.5355
11
164.47
21
-67.5454
0
LINE
8
BLACK
6
CONTINUOUS
10
164.47
20
-67.5454
11
164.472
21
-67.5483
0
LINE
8
BLACK
6
CONTINUOUS
10
164.472
20
-67.5483
11
164.473
21
-67.551
0
LINE
8
BLACK
6
CONTINUOUS
10
164.473
20
-67.551
11
164.83
21
-68.365
0
LINE
8
BLACK
6
CONTINUOUS
10
164.83
20
-68.365
11
164.83
21
-68.365
0
LINE
8
BLACK
6
CONTINUOUS
10
164.83
20
-68.365
11
164.83
21
-68.365
0
LINE
8
BLACK
6
CONTINUOUS
10
164.83
20
-68.365
11
164.834
21
-68.3758
0
LINE
8
BLACK
6
CONTINUOUS
10
164.834
20
-68.3758
11
164.835
21
-68.3789
0
LINE
8
BLACK
6
CONTINUOUS
10
164.835
20
-68.3789
11
164.836
21
-68.3819
0
LINE
8
BLACK
6
CONTINUOUS
10
164.836
20
-68.3819
11
165.044
21
-69.2462
0
LINE
8
BLACK
6
CONTINUOUS
10
165.044
20
-69.2462
11
165.046
21
-69.2576
0
LINE
8
BLACK
6
CONTINUOUS
10
165.046
20
-69.2576
11
165.046
21
-69.2599
0
LINE
8
BLACK
6
CONTINUOUS
10
165.046
20
-69.2599
11
165.046
21
-69.2623
0
LINE
8
BLACK
6
CONTINUOUS
10
165.046
20
-69.2623
11
165.1
21
-69.9927
0
LINE
8
BLACK
6
CONTINUOUS
10
165.1
20
-69.9927
11
165.1
21
-70.0042
0
LINE
8
BLACK
6
CONTINUOUS
10
165.1
20
-70.0042
11
165.098
21
-70.0218
0
LINE
8
BLACK
6
CONTINUOUS
10
165.098
20
-70.0218
11
165.092
21
-70.0388
0
LINE
8
BLACK
6
CONTINUOUS
10
165.092
20
-70.0388
11
165.084
21
-70.0545
0
LINE
8
BLACK
6
CONTINUOUS
10
165.084
20
-70.0545
11
165.075
21
-70.0658
0
LINE
8
BLACK
6
CONTINUOUS
10
165.075
20
-70.0658
11
165.075
21
-109.934
0
LINE
8
BLACK
6
CONTINUOUS
10
165.075
20
-109.934
11
165.081
21
-109.942
0
LINE
8
BLACK
6
CONTINUOUS
10
165.081
20
-109.942
11
165.09
21
-109.957
0
LINE
8
BLACK
6
CONTINUOUS
10
165.09
20
-109.957
11
165.096
21
-109.974
0
LINE
8
BLACK
6
CONTINUOUS
10
165.096
20
-109.974
11
165.1
21
-109.991
0
LINE
8
BLACK
6
CONTINUOUS
10
165.1
20
-109.991
11
165.1
21
-110.009
0
LINE
8
BLACK
6
CONTINUOUS
10
165.1
20
-110.009
11
165.021
21
-110.894
0
LINE
8
BLACK
6
CONTINUOUS
10
165.021
20
-110.894
11
165.019
21
-110.906
0
LINE
8
BLACK
6
CONTINUOUS
10
165.019
20
-110.906
11
165.018
21
-110.909
0
LINE
8
BLACK
6
CONTINUOUS
10
165.018
20
-110.909
11
165.017
21
-110.912
0
LINE
8
BLACK
6
CONTINUOUS
10
165.017
20
-110.912
11
164.783
21
-111.769
0
LINE
8
BLACK
6
CONTINUOUS
10
164.783
20
-111.769
11
164.779
21
-111.78
0
LINE
8
BLACK
6
CONTINUOUS
10
164.779
20
-111.78
11
164.778
21
-111.783
0
LINE
8
BLACK
6
CONTINUOUS
10
164.778
20
-111.783
11
164.777
21
-111.786
0
LINE
8
BLACK
6
CONTINUOUS
10
164.777
20
-111.786
11
164.394
21
-112.588
0
LINE
8
BLACK
6
CONTINUOUS
10
164.394
20
-112.588
11
164.394
21
-112.588
0
LINE
8
BLACK
6
CONTINUOUS
10
164.394
20
-112.588
11
164.394
21
-112.588
0
LINE
8
BLACK
6
CONTINUOUS
10
164.394
20
-112.588
11
164.388
21
-112.598
0
LINE
8
BLACK
6
CONTINUOUS
10
164.388
20
-112.598
11
164.387
21
-112.601
0
LINE
8
BLACK
6
CONTINUOUS
10
164.387
20
-112.601
11
164.385
21
-112.604
0
LINE
8
BLACK
6
CONTINUOUS
10
164.385
20
-112.604
11
163.866
21
-113.325
0
LINE
8
BLACK
6
CONTINUOUS
10
163.866
20
-113.325
11
163.866
21
-113.325
0
LINE
8
BLACK
6
CONTINUOUS
10
163.866
20
-113.325
11
163.866
21
-113.325
0
LINE
8
BLACK
6
CONTINUOUS
10
163.866
20
-113.325
11
163.859
21
-113.334
0
LINE
8
BLACK
6
CONTINUOUS
10
163.859
20
-113.334
11
163.857
21
-113.337
0
LINE
8
BLACK
6
CONTINUOUS
10
163.857
20
-113.337
11
163.855
21
-113.339
0
LINE
8
BLACK
6
CONTINUOUS
10
163.855
20
-113.339
11
163.216
21
-113.958
0
LINE
8
BLACK
6
CONTINUOUS
10
163.216
20
-113.958
11
163.207
21
-113.965
0
LINE
8
BLACK
6
CONTINUOUS
10
163.207
20
-113.965
11
163.205
21
-113.967
0
LINE
8
BLACK
6
CONTINUOUS
10
163.205
20
-113.967
11
163.202
21
-113.969
0
LINE
8
BLACK
6
CONTINUOUS
10
163.202
20
-113.969
11
162.465
21
-114.465
0
LINE
8
BLACK
6
CONTINUOUS
10
162.465
20
-114.465
11
162.465
21
-114.465
0
LINE
8
BLACK
6
CONTINUOUS
10
162.465
20
-114.465
11
162.465
21
-114.465
0
LINE
8
BLACK
6
CONTINUOUS
10
162.465
20
-114.465
11
162.455
21
-114.47
0
LINE
8
BLACK
6
CONTINUOUS
10
162.455
20
-114.47
11
162.452
21
-114.472
0
LINE
8
BLACK
6
CONTINUOUS
10
162.452
20
-114.472
11
162.449
21
-114.473
0
LINE
8
BLACK
6
CONTINUOUS
10
162.449
20
-114.473
11
161.635
21
-114.83
0
LINE
8
BLACK
6
CONTINUOUS
10
161.635
20
-114.83
11
161.635
21
-114.83
0
LINE
8
BLACK
6
CONTINUOUS
10
161.635
20
-114.83
11
161.635
21
-114.83
0
LINE
8
BLACK
6
CONTINUOUS
10
161.635
20
-114.83
11
161.624
21
-114.834
0
LINE
8
BLACK
6
CONTINUOUS
10
161.624
20
-114.834
11
161.621
21
-114.835
0
LINE
8
BLACK
6
CONTINUOUS
10
161.621
20
-114.835
11
161.618
21
-114.836
0
LINE
8
BLACK
6
CONTINUOUS
10
161.618
20
-114.836
11
160.754
21
-115.044
0
LINE
8
BLACK
6
CONTINUOUS
10
160.754
20
-115.044
11
160.742
21
-115.046
0
LINE
8
BLACK
6
CONTINUOUS
10
160.742
20
-115.046
11
160.74
21
-115.046
0
LINE
8
BLACK
6
CONTINUOUS
10
160.74
20
-115.046
11
160.738
21
-115.046
0
LINE
8
BLACK
6
CONTINUOUS
10
160.738
20
-115.046
11
160.007
21
-115.1
0
LINE
8
BLACK
6
CONTINUOUS
10
160.007
20
-115.1
11
159.996
21
-115.1
0
LINE
8
BLACK
6
CONTINUOUS
10
159.996
20
-115.1
11
159.978
21
-115.098
0
LINE
8
BLACK
6
CONTINUOUS
10
159.978
20
-115.098
11
159.961
21
-115.092
0
LINE
8
BLACK
6
CONTINUOUS
10
159.961
20
-115.092
11
159.946
21
-115.084
0
LINE
8
BLACK
6
CONTINUOUS
10
159.946
20
-115.084
11
159.934
21
-115.075
0
LINE
8
BLACK
6
CONTINUOUS
10
159.934
20
-115.075
11
120.066
21
-115.075
0
LINE
8
BLACK
6
CONTINUOUS
10
120.066
20
-115.075
11
120.058
21
-115.081
0
LINE
8
BLACK
6
CONTINUOUS
10
120.058
20
-115.081
11
120.043
21
-115.09
0
LINE
8
BLACK
6
CONTINUOUS
10
120.043
20
-115.09
11
120.026
21
-115.096
0
LINE
8
BLACK
6
CONTINUOUS
10
120.026
20
-115.096
11
120.009
21
-115.1
0
LINE
8
BLACK
6
CONTINUOUS
10
120.009
20
-115.1
11
119.991
21
-115.1
0
LINE
8
BLACK
6
CONTINUOUS
10
119.991
20
-115.1
11
119.106
21
-115.021
0
LINE
8
BLACK
6
CONTINUOUS
10
119.106
20
-115.021
11
119.106
21
-115.021
0
LINE
8
BLACK
6
CONTINUOUS
10
119.106
20
-115.021
11
119.106
21
-115.021
0
LINE
8
BLACK
6
CONTINUOUS
10
120.066
20
-65.075
11
120.057
21
-65.0821
0
LINE
8
BLACK
6
CONTINUOUS
10
120.057
20
-65.0821
11
120.042
21
-65.0909
0
LINE
8
BLACK
6
CONTINUOUS
10
120.042
20
-65.0909
11
120.025
21
-65.0969
0
LINE
8
BLACK
6
CONTINUOUS
10
120.025
20
-65.0969
11
120.007
21
-65.0997
0
LINE
8
BLACK
6
CONTINUOUS
10
120.007
20
-65.0997
11
119.285
21
-65.1528
0
LINE
8
BLACK
6
CONTINUOUS
10
119.285
20
-65.1528
11
118.437
21
-65.3563
0
LINE
8
BLACK
6
CONTINUOUS
10
118.437
20
-65.3563
11
117.64
21
-65.7064
0
LINE
8
BLACK
6
CONTINUOUS
10
117.64
20
-65.7064
11
116.917
21
-66.1923
0
LINE
8
BLACK
6
CONTINUOUS
10
116.917
20
-66.1923
11
116.291
21
-66.7985
0
LINE
8
BLACK
6
CONTINUOUS
10
116.291
20
-66.7985
11
115.783
21
-67.5059
0
LINE
8
BLACK
6
CONTINUOUS
10
115.783
20
-67.5059
11
115.408
21
-68.2921
0
LINE
8
BLACK
6
CONTINUOUS
10
115.408
20
-68.2921
11
115.178
21
-69.1324
0
LINE
8
BLACK
6
CONTINUOUS
10
115.178
20
-69.1324
11
115.1
21
-70.0089
0
LINE
8
BLACK
6
CONTINUOUS
10
115.1
20
-70.0089
11
115.098
21
-70.0203
0
LINE
8
BLACK
6
CONTINUOUS
10
115.098
20
-70.0203
11
115.093
21
-70.0373
0
LINE
8
BLACK
6
CONTINUOUS
10
115.093
20
-70.0373
11
115.085
21
-70.0531
0
LINE
8
BLACK
6
CONTINUOUS
10
115.085
20
-70.0531
11
115.075
21
-70.0659
0
LINE
8
BLACK
6
CONTINUOUS
10
115.075
20
-70.0659
11
115.075
21
-109.934
0
LINE
8
BLACK
6
CONTINUOUS
10
115.075
20
-109.934
11
115.082
21
-109.943
0
LINE
8
BLACK
6
CONTINUOUS
10
115.082
20
-109.943
11
115.091
21
-109.958
0
LINE
8
BLACK
6
CONTINUOUS
10
115.091
20
-109.958
11
115.097
21
-109.975
0
LINE
8
BLACK
6
CONTINUOUS
10
115.097
20
-109.975
11
115.1
21
-109.993
0
LINE
8
BLACK
6
CONTINUOUS
10
115.1
20
-109.993
11
115.153
21
-110.715
0
LINE
8
BLACK
6
CONTINUOUS
10
115.153
20
-110.715
11
115.356
21
-111.563
0
LINE
8
BLACK
6
CONTINUOUS
10
115.356
20
-111.563
11
115.706
21
-112.36
0
LINE
8
BLACK
6
CONTINUOUS
10
115.706
20
-112.36
11
116.192
21
-113.083
0
LINE
8
BLACK
6
CONTINUOUS
10
116.192
20
-113.083
11
116.798
21
-113.709
0
LINE
8
BLACK
6
CONTINUOUS
10
116.798
20
-113.709
11
117.506
21
-114.217
0
LINE
8
BLACK
6
CONTINUOUS
10
117.506
20
-114.217
11
118.292
21
-114.592
0
LINE
8
BLACK
6
CONTINUOUS
10
118.292
20
-114.592
11
119.132
21
-114.822
0
LINE
8
BLACK
6
CONTINUOUS
10
119.132
20
-114.822
11
120.009
21
-114.9
0
LINE
8
BLACK
6
CONTINUOUS
10
120.009
20
-114.9
11
120.02
21
-114.902
0
LINE
8
BLACK
6
CONTINUOUS
10
120.02
20
-114.902
11
120.037
21
-114.907
0
LINE
8
BLACK
6
CONTINUOUS
10
120.037
20
-114.907
11
120.053
21
-114.915
0
LINE
8
BLACK
6
CONTINUOUS
10
120.053
20
-114.915
11
120.066
21
-114.925
0
LINE
8
BLACK
6
CONTINUOUS
10
120.066
20
-114.925
11
159.934
21
-114.925
0
LINE
8
BLACK
6
CONTINUOUS
10
159.934
20
-114.925
11
159.943
21
-114.918
0
LINE
8
BLACK
6
CONTINUOUS
10
159.943
20
-114.918
11
159.958
21
-114.909
0
LINE
8
BLACK
6
CONTINUOUS
10
159.958
20
-114.909
11
159.975
21
-114.903
0
LINE
8
BLACK
6
CONTINUOUS
10
159.975
20
-114.903
11
159.993
21
-114.9
0
LINE
8
BLACK
6
CONTINUOUS
10
159.993
20
-114.9
11
160.715
21
-114.847
0
LINE
8
BLACK
6
CONTINUOUS
10
160.715
20
-114.847
11
161.563
21
-114.644
0
LINE
8
BLACK
6
CONTINUOUS
10
161.563
20
-114.644
11
162.36
21
-114.294
0
LINE
8
BLACK
6
CONTINUOUS
10
162.36
20
-114.294
11
163.083
21
-113.808
0
LINE
8
BLACK
6
CONTINUOUS
10
163.083
20
-113.808
11
163.709
21
-113.201
0
LINE
8
BLACK
6
CONTINUOUS
10
163.709
20
-113.201
11
164.217
21
-112.494
0
LINE
8
BLACK
6
CONTINUOUS
10
164.217
20
-112.494
11
164.592
21
-111.708
0
LINE
8
BLACK
6
CONTINUOUS
10
164.592
20
-111.708
11
164.822
21
-110.868
0
LINE
8
BLACK
6
CONTINUOUS
10
164.822
20
-110.868
11
164.9
21
-109.991
0
LINE
8
BLACK
6
CONTINUOUS
10
164.9
20
-109.991
11
164.902
21
-109.98
0
LINE
8
BLACK
6
CONTINUOUS
10
164.902
20
-109.98
11
164.907
21
-109.963
0
LINE
8
BLACK
6
CONTINUOUS
10
164.907
20
-109.963
11
164.915
21
-109.947
0
LINE
8
BLACK
6
CONTINUOUS
10
164.915
20
-109.947
11
164.925
21
-109.934
0
LINE
8
BLACK
6
CONTINUOUS
10
164.925
20
-109.934
11
164.925
21
-70.0656
0
LINE
8
BLACK
6
CONTINUOUS
10
164.925
20
-70.0656
11
164.918
21
-70.0571
0
LINE
8
BLACK
6
CONTINUOUS
10
164.918
20
-70.0571
11
164.909
21
-70.0416
0
LINE
8
BLACK
6
CONTINUOUS
10
164.909
20
-70.0416
11
164.903
21
-70.0249
0
LINE
8
BLACK
6
CONTINUOUS
10
164.903
20
-70.0249
11
164.9
21
-70.0073
0
LINE
8
BLACK
6
CONTINUOUS
10
164.9
20
-70.0073
11
164.847
21
-69.285
0
LINE
8
BLACK
6
CONTINUOUS
10
164.847
20
-69.285
11
164.644
21
-68.4372
0
LINE
8
BLACK
6
CONTINUOUS
10
164.644
20
-68.4372
11
164.294
21
-67.6396
0
LINE
8
BLACK
6
CONTINUOUS
10
164.294
20
-67.6396
11
163.808
21
-66.9166
0
LINE
8
BLACK
6
CONTINUOUS
10
163.808
20
-66.9166
11
163.201
21
-66.291
0
LINE
8
BLACK
6
CONTINUOUS
10
163.201
20
-66.291
11
162.494
21
-65.7827
0
LINE
8
BLACK
6
CONTINUOUS
10
162.494
20
-65.7827
11
161.708
21
-65.4077
0
LINE
8
BLACK
6
CONTINUOUS
10
161.708
20
-65.4077
11
160.868
21
-65.1778
0
LINE
8
BLACK
6
CONTINUOUS
10
160.868
20
-65.1778
11
159.991
21
-65.0996
0
LINE
8
BLACK
6
CONTINUOUS
10
159.991
20
-65.0996
11
159.98
21
-65.0979
0
LINE
8
BLACK
6
CONTINUOUS
10
159.98
20
-65.0979
11
159.963
21
-65.0928
0
LINE
8
BLACK
6
CONTINUOUS
10
159.963
20
-65.0928
11
159.947
21
-65.0847
0
LINE
8
BLACK
6
CONTINUOUS
10
159.947
20
-65.0847
11
159.934
21
-65.075
0
LINE
8
BLACK
6
CONTINUOUS
10
159.934
20
-65.075
11
120.066
21
-65.075
0
LINE
8
BLACK
6
CONTINUOUS
10
177.296
20
-56.2622
11
176.91
21
-56.7935
0
LINE
8
BLACK
6
CONTINUOUS
10
176.91
20
-56.7935
11
176.404
21
-57.2121
0
LINE
8
BLACK
6
CONTINUOUS
10
176.404
20
-57.2121
11
175.81
21
-57.4918
0
LINE
8
BLACK
6
CONTINUOUS
10
175.81
20
-57.4918
11
175.165
21
-57.6148
0
LINE
8
BLACK
6
CONTINUOUS
10
175.165
20
-57.6148
11
174.509
21
-57.5736
0
LINE
8
BLACK
6
CONTINUOUS
10
174.509
20
-57.5736
11
173.884
21
-57.3706
0
LINE
8
BLACK
6
CONTINUOUS
10
173.884
20
-57.3706
11
173.33
21
-57.0187
0
LINE
8
BLACK
6
CONTINUOUS
10
173.33
20
-57.0187
11
172.88
21
-56.54
0
LINE
8
BLACK
6
CONTINUOUS
10
172.88
20
-56.54
11
172.564
21
-55.9645
0
LINE
8
BLACK
6
CONTINUOUS
10
172.564
20
-55.9645
11
172.401
21
-55.3284
0
LINE
8
BLACK
6
CONTINUOUS
10
172.401
20
-55.3284
11
172.401
21
-54.6716
0
LINE
8
BLACK
6
CONTINUOUS
10
172.401
20
-54.6716
11
172.564
21
-54.0355
0
LINE
8
BLACK
6
CONTINUOUS
10
172.564
20
-54.0355
11
172.88
21
-53.46
0
LINE
8
BLACK
6
CONTINUOUS
10
172.88
20
-53.46
11
173.33
21
-52.9813
0
LINE
8
BLACK
6
CONTINUOUS
10
173.33
20
-52.9813
11
173.884
21
-52.6294
0
LINE
8
BLACK
6
CONTINUOUS
10
173.884
20
-52.6294
11
174.509
21
-52.4264
0
LINE
8
BLACK
6
CONTINUOUS
10
174.509
20
-52.4264
11
175.165
21
-52.3852
0
LINE
8
BLACK
6
CONTINUOUS
10
175.165
20
-52.3852
11
175.81
21
-52.5082
0
LINE
8
BLACK
6
CONTINUOUS
10
175.81
20
-52.5082
11
176.404
21
-52.7879
0
LINE
8
BLACK
6
CONTINUOUS
10
176.404
20
-52.7879
11
176.91
21
-53.2065
0
LINE
8
BLACK
6
CONTINUOUS
10
176.91
20
-53.2065
11
177.296
21
-53.7378
0
LINE
8
BLACK
6
CONTINUOUS
10
177.296
20
-53.7378
11
177.538
21
-54.3484
0
LINE
8
BLACK
6
CONTINUOUS
10
177.538
20
-54.3484
11
177.62
21
-55
0
LINE
8
BLACK
6
CONTINUOUS
10
177.62
20
-55
11
177.538
21
-55.6516
0
LINE
8
BLACK
6
CONTINUOUS
10
177.538
20
-55.6516
11
177.296
21
-56.2622
0
LINE
8
BLACK
6
CONTINUOUS
10
177.103
20
-53.8438
11
176.75
21
-53.3571
0
LINE
8
BLACK
6
CONTINUOUS
10
176.75
20
-53.3571
11
176.286
21
-52.9736
0
LINE
8
BLACK
6
CONTINUOUS
10
176.286
20
-52.9736
11
175.742
21
-52.7175
0
LINE
8
BLACK
6
CONTINUOUS
10
175.742
20
-52.7175
11
175.151
21
-52.6047
0
LINE
8
BLACK
6
CONTINUOUS
10
175.151
20
-52.6047
11
174.55
21
-52.6425
0
LINE
8
BLACK
6
CONTINUOUS
10
174.55
20
-52.6425
11
173.978
21
-52.8284
0
LINE
8
BLACK
6
CONTINUOUS
10
173.978
20
-52.8284
11
173.47
21
-53.1508
0
LINE
8
BLACK
6
CONTINUOUS
10
173.47
20
-53.1508
11
173.058
21
-53.5893
0
LINE
8
BLACK
6
CONTINUOUS
10
173.058
20
-53.5893
11
172.769
21
-54.1165
0
LINE
8
BLACK
6
CONTINUOUS
10
172.769
20
-54.1165
11
172.619
21
-54.6992
0
LINE
8
BLACK
6
CONTINUOUS
10
172.619
20
-54.6992
11
172.619
21
-55.3008
0
LINE
8
BLACK
6
CONTINUOUS
10
172.619
20
-55.3008
11
172.769
21
-55.8835
0
LINE
8
BLACK
6
CONTINUOUS
10
172.769
20
-55.8835
11
173.058
21
-56.4107
0
LINE
8
BLACK
6
CONTINUOUS
10
173.058
20
-56.4107
11
173.47
21
-56.8492
0
LINE
8
BLACK
6
CONTINUOUS
10
173.47
20
-56.8492
11
173.978
21
-57.1716
0
LINE
8
BLACK
6
CONTINUOUS
10
173.978
20
-57.1716
11
174.55
21
-57.3575
0
LINE
8
BLACK
6
CONTINUOUS
10
174.55
20
-57.3575
11
175.151
21
-57.3953
0
LINE
8
BLACK
6
CONTINUOUS
10
175.151
20
-57.3953
11
175.742
21
-57.2825
0
LINE
8
BLACK
6
CONTINUOUS
10
175.742
20
-57.2825
11
176.286
21
-57.0264
0
LINE
8
BLACK
6
CONTINUOUS
10
176.286
20
-57.0264
11
176.75
21
-56.6429
0
LINE
8
BLACK
6
CONTINUOUS
10
176.75
20
-56.6429
11
177.103
21
-56.1562
0
LINE
8
BLACK
6
CONTINUOUS
10
177.103
20
-56.1562
11
177.325
21
-55.5969
0
LINE
8
BLACK
6
CONTINUOUS
10
177.325
20
-55.5969
11
177.4
21
-55
0
LINE
8
BLACK
6
CONTINUOUS
10
177.4
20
-55
11
177.325
21
-54.4031
0
LINE
8
BLACK
6
CONTINUOUS
10
177.325
20
-54.4031
11
177.103
21
-53.8438
0
LINE
8
BLACK
6
CONTINUOUS
10
107.296
20
-56.2622
11
106.91
21
-56.7935
0
LINE
8
BLACK
6
CONTINUOUS
10
106.91
20
-56.7935
11
106.404
21
-57.2121
0
LINE
8
BLACK
6
CONTINUOUS
10
106.404
20
-57.2121
11
105.81
21
-57.4918
0
LINE
8
BLACK
6
CONTINUOUS
10
105.81
20
-57.4918
11
105.165
21
-57.6148
0
LINE
8
BLACK
6
CONTINUOUS
10
105.165
20
-57.6148
11
104.509
21
-57.5736
0
LINE
8
BLACK
6
CONTINUOUS
10
104.509
20
-57.5736
11
103.884
21
-57.3706
0
LINE
8
BLACK
6
CONTINUOUS
10
103.884
20
-57.3706
11
103.33
21
-57.0187
0
LINE
8
BLACK
6
CONTINUOUS
10
103.33
20
-57.0187
11
102.88
21
-56.54
0
LINE
8
BLACK
6
CONTINUOUS
10
102.88
20
-56.54
11
102.564
21
-55.9645
0
LINE
8
BLACK
6
CONTINUOUS
10
102.564
20
-55.9645
11
102.401
21
-55.3284
0
LINE
8
BLACK
6
CONTINUOUS
10
102.401
20
-55.3284
11
102.401
21
-54.6716
0
LINE
8
BLACK
6
CONTINUOUS
10
102.401
20
-54.6716
11
102.564
21
-54.0355
0
LINE
8
BLACK
6
CONTINUOUS
10
102.564
20
-54.0355
11
102.88
21
-53.46
0
LINE
8
BLACK
6
CONTINUOUS
10
102.88
20
-53.46
11
103.33
21
-52.9813
0
LINE
8
BLACK
6
CONTINUOUS
10
103.33
20
-52.9813
11
103.884
21
-52.6294
0
LINE
8
BLACK
6
CONTINUOUS
10
103.884
20
-52.6294
11
104.509
21
-52.4264
0
LINE
8
BLACK
6
CONTINUOUS
10
104.509
20
-52.4264
11
105.165
21
-52.3852
0
LINE
8
BLACK
6
CONTINUOUS
10
105.165
20
-52.3852
11
105.81
21
-52.5082
0
LINE
8
BLACK
6
CONTINUOUS
10
105.81
20
-52.5082
11
106.404
21
-52.7879
0
LINE
8
BLACK
6
CONTINUOUS
10
106.404
20
-52.7879
11
106.91
21
-53.2065
0
LINE
8
BLACK
6
CONTINUOUS
10
106.91
20
-53.2065
11
107.296
21
-53.7378
0
LINE
8
BLACK
6
CONTINUOUS
10
107.296
20
-53.7378
11
107.538
21
-54.3484
0
LINE
8
BLACK
6
CONTINUOUS
10
107.538
20
-54.3484
11
107.62
21
-55
0
LINE
8
BLACK
6
CONTINUOUS
10
107.62
20
-55
11
107.538
21
-55.6516
0
LINE
8
BLACK
6
CONTINUOUS
10
107.538
20
-55.6516
11
107.296
21
-56.2622
0
LINE
8
BLACK
6
CONTINUOUS
10
107.103
20
-53.8438
11
106.75
21
-53.3571
0
LINE
8
BLACK
6
CONTINUOUS
10
106.75
20
-53.3571
11
106.286
21
-52.9736
0
LINE
8
BLACK
6
CONTINUOUS
10
106.286
20
-52.9736
11
105.742
21
-52.7175
0
LINE
8
BLACK
6
CONTINUOUS
10
105.742
20
-52.7175
11
105.151
21
-52.6047
0
LINE
8
BLACK
6
CONTINUOUS
10
105.151
20
-52.6047
11
104.55
21
-52.6425
0
LINE
8
BLACK
6
CONTINUOUS
10
104.55
20
-52.6425
11
103.978
21
-52.8284
0
LINE
8
BLACK
6
CONTINUOUS
10
103.978
20
-52.8284
11
103.47
21
-53.1508
0
LINE
8
BLACK
6
CONTINUOUS
10
103.47
20
-53.1508
11
103.058
21
-53.5893
0
LINE
8
BLACK
6
CONTINUOUS
10
103.058
20
-53.5893
11
102.769
21
-54.1165
0
LINE
8
BLACK
6
CONTINUOUS
10
102.769
20
-54.1165
11
102.619
21
-54.6992
0
LINE
8
BLACK
6
CONTINUOUS
10
102.619
20
-54.6992
11
102.619
21
-55.3008
0
LINE
8
BLACK
6
CONTINUOUS
10
102.619
20
-55.3008
11
102.769
21
-55.8835
0
LINE
8
BLACK
6
CONTINUOUS
10
102.769
20
-55.8835
11
103.058
21
-56.4107
0
LINE
8
BLACK
6
CONTINUOUS
10
103.058
20
-56.4107
11
103.47
21
-56.8492
0
LINE
8
BLACK
6
CONTINUOUS
10
103.47
20
-56.8492
11
103.978
21
-57.1716
0
LINE
8
BLACK
6
CONTINUOUS
10
103.978
20
-57.1716
11
104.55
21
-57.3575
0
LINE
8
BLACK
6
CONTINUOUS
10
104.55
20
-57.3575
11
105.151
21
-57.3953
0
LINE
8
BLACK
6
CONTINUOUS
10
105.151
20
-57.3953
11
105.742
21
-57.2825
0
LINE
8
BLACK
6
CONTINUOUS
10
105.742
20
-57.2825
11
106.286
21
-57.0264
0
LINE
8
BLACK
6
CONTINUOUS
10
106.286
20
-57.0264
11
106.75
21
-56.6429
0
LINE
8
BLACK
6
CONTINUOUS
10
106.75
20
-56.6429
11
107.103
21
-56.1562
0
LINE
8
BLACK
6
CONTINUOUS
10
107.103
20
-56.1562
11
107.325
21
-55.5969
0
LINE
8
BLACK
6
CONTINUOUS
10
107.325
20
-55.5969
11
107.4
21
-55
0
LINE
8
BLACK
6
CONTINUOUS
10
107.4
20
-55
11
107.325
21
-54.4031
0
LINE
8
BLACK
6
CONTINUOUS
10
107.325
20
-54.4031
11
107.103
21
-53.8438
  0
ENDSEC
  0
EOF
