G04 #@! TF.GenerationSoftware,KiCad,Pcbnew,(2017-11-09 revision 610ff7485)-makepkg*
G04 #@! TF.CreationDate,2017-11-10T23:51:50-05:00*
G04 #@! TF.ProjectId,photometric-leds,70686F746F6D65747269632D6C656473,rev?*
G04 #@! TF.SameCoordinates,Original*
G04 #@! TF.FileFunction,Soldermask,Top*
G04 #@! TF.FilePolarity,Negative*
%FSLAX46Y46*%
G04 Gerber Fmt 4.6, Leading zero omitted, Abs format (unit mm)*
G04 Created by KiCad (PCBNEW (2017-11-09 revision 610ff7485)-makepkg) date Fri Nov 10 23:51:50 2017*
%MOMM*%
%LPD*%
G01*
G04 APERTURE LIST*
%ADD10C,1.600000*%
%ADD11R,1.600000X1.600000*%
%ADD12R,1.650000X1.900000*%
%ADD13R,1.900000X1.000000*%
%ADD14R,1.900000X1.650000*%
%ADD15R,2.000000X1.650000*%
%ADD16R,3.700000X0.900000*%
%ADD17R,3.700000X1.700000*%
%ADD18R,3.100000X2.900000*%
%ADD19R,3.100000X1.800000*%
%ADD20R,2.000000X1.050000*%
%ADD21R,1.400000X3.550000*%
%ADD22R,1.700000X1.900000*%
%ADD23R,1.900000X1.700000*%
%ADD24R,1.960000X1.050000*%
%ADD25C,6.800000*%
%ADD26C,1.200000*%
G04 APERTURE END LIST*
D10*
X152350000Y-67460000D03*
X149810000Y-67460000D03*
X147270000Y-67460000D03*
X151080000Y-70000000D03*
X148540000Y-70000000D03*
D11*
X146000000Y-70000000D03*
D12*
X160750000Y-79000000D03*
X160750000Y-76500000D03*
X158750000Y-76500000D03*
X158750000Y-79000000D03*
D13*
X156800000Y-104310000D03*
X156800000Y-103040000D03*
X156800000Y-101770000D03*
X156800000Y-100500000D03*
X156800000Y-99230000D03*
X156800000Y-97960000D03*
X156800000Y-96690000D03*
X162200000Y-96690000D03*
X162200000Y-97960000D03*
X162200000Y-99230000D03*
X162200000Y-100500000D03*
X162200000Y-101770000D03*
X162200000Y-103040000D03*
X162200000Y-104310000D03*
D12*
X152000000Y-101750000D03*
X152000000Y-99250000D03*
X152000000Y-96750000D03*
X152000000Y-94250000D03*
X152000000Y-89250000D03*
X152000000Y-91750000D03*
X152000000Y-86750000D03*
X152000000Y-84250000D03*
X152000000Y-79250000D03*
X152000000Y-81750000D03*
D14*
X138250000Y-101000000D03*
X140750000Y-101000000D03*
X140750000Y-96000000D03*
X138250000Y-96000000D03*
X138250000Y-91000000D03*
X140750000Y-91000000D03*
X140750000Y-86000000D03*
X138250000Y-86000000D03*
X138250000Y-81000000D03*
X140750000Y-81000000D03*
D15*
X129000000Y-101880000D03*
X129000000Y-100120000D03*
D16*
X129000000Y-93550000D03*
X129000000Y-96450000D03*
D17*
X129000000Y-95000000D03*
D18*
X129000000Y-88900000D03*
D19*
X129000000Y-91600000D03*
D20*
X129000000Y-85000000D03*
X129000000Y-85940000D03*
X129000000Y-81000000D03*
X129000000Y-80060000D03*
D21*
X131540000Y-69475000D03*
X131540000Y-74525000D03*
X129000000Y-69475000D03*
X129000000Y-74525000D03*
X126460000Y-69475000D03*
X126460000Y-74525000D03*
D22*
X137500000Y-73350000D03*
X137500000Y-70650000D03*
X143500000Y-101350000D03*
X143500000Y-98650000D03*
D23*
X138150000Y-99000000D03*
X140850000Y-99000000D03*
D22*
X143500000Y-96350000D03*
X143500000Y-93650000D03*
D23*
X138150000Y-94000000D03*
X140850000Y-94000000D03*
D22*
X143500000Y-91350000D03*
X143500000Y-88650000D03*
D23*
X138150000Y-89000000D03*
X140850000Y-89000000D03*
D22*
X143500000Y-83650000D03*
X143500000Y-86350000D03*
D23*
X140850000Y-84000000D03*
X138150000Y-84000000D03*
D22*
X143500000Y-78650000D03*
X143500000Y-81350000D03*
D23*
X140850000Y-79000000D03*
X138150000Y-79000000D03*
X135850000Y-101000000D03*
X133150000Y-101000000D03*
X133150000Y-96000000D03*
X135850000Y-96000000D03*
X135850000Y-91000000D03*
X133150000Y-91000000D03*
X135850000Y-86000000D03*
X133150000Y-86000000D03*
X133150000Y-81000000D03*
X135850000Y-81000000D03*
D24*
X146150000Y-100950000D03*
X146150000Y-99050000D03*
X148850000Y-99050000D03*
X148850000Y-100000000D03*
X148850000Y-100950000D03*
X146150000Y-95950000D03*
X146150000Y-94050000D03*
X148850000Y-94050000D03*
X148850000Y-95000000D03*
X148850000Y-95950000D03*
X148850000Y-90950000D03*
X148850000Y-90000000D03*
X148850000Y-89050000D03*
X146150000Y-89050000D03*
X146150000Y-90950000D03*
X146150000Y-85950000D03*
X146150000Y-84050000D03*
X148850000Y-84050000D03*
X148850000Y-85000000D03*
X148850000Y-85950000D03*
X148850000Y-80950000D03*
X148850000Y-80000000D03*
X148850000Y-79050000D03*
X146150000Y-79050000D03*
X146150000Y-80950000D03*
D25*
X120000000Y-70000000D03*
D26*
X122400000Y-70000000D03*
X121697056Y-71697056D03*
X120000000Y-72400000D03*
X118302944Y-71697056D03*
X117600000Y-70000000D03*
X118302944Y-68302944D03*
X120000000Y-67600000D03*
X121697056Y-68302944D03*
X161697056Y-68302944D03*
X160000000Y-67600000D03*
X158302944Y-68302944D03*
X157600000Y-70000000D03*
X158302944Y-71697056D03*
X160000000Y-72400000D03*
X161697056Y-71697056D03*
X162400000Y-70000000D03*
D25*
X160000000Y-70000000D03*
X120000000Y-110000000D03*
D26*
X122400000Y-110000000D03*
X121697056Y-111697056D03*
X120000000Y-112400000D03*
X118302944Y-111697056D03*
X117600000Y-110000000D03*
X118302944Y-108302944D03*
X120000000Y-107600000D03*
X121697056Y-108302944D03*
X161697056Y-108202944D03*
X160000000Y-107500000D03*
X158302944Y-108202944D03*
X157600000Y-109900000D03*
X158302944Y-111597056D03*
X160000000Y-112300000D03*
X161697056Y-111597056D03*
X162400000Y-109900000D03*
D25*
X160000000Y-109900000D03*
M02*
