  0
SECTION
  2
HEADER
  9
$ANGBASE
  50
0.0
  9
$ANGDIR
  70
  1
  9
$MEASUREMENT
  70
0
  0
ENDSEC
  0
SECTION
  2
TABLES
  0
TABLE
  2
LTYPE
  70
4
  0
LTYPE
  5
40F
  2
CONTINUOUS
  70
0
  3
Solid line
  72
65
  73
0
  40
0.0
  0
LTYPE
  5
410
  2
DASHDOT
 70
0
  3
Dash Dot ____ _ ____ _
 72
65
 73
4
 40
2.0
 49
1.25
 49
-0.25
 49
0.25
 49
-0.25
  0
LTYPE
  5
411
  2
DASHED
 70
0
  3
Dashed __ __ __ __ __
 72
65
 73
2
 40
0.75
 49
0.5
 49
-0.25
  0
LTYPE
  5
43B
  2
DOTTED
 70
0
  3
Dotted .  .  .  .
 72
65
 73
2
 40
0.2
 49
0.0
 49
-0.2
  0
ENDTAB
  0
TABLE
  2
STYLE
  70
4
  0
STYLE
  2
KICAD
  70
0
  40
0
  41
1
  42
1
  50
0
  71
0
  3
isocp.shx
  0
STYLE
  2
KICADB
  70
0
  40
0
  41
1
  42
1
  50
0
  71
0
  3
isocp.shx
  0
STYLE
  2
KICADI
  70
0
  40
0
  41
1
  42
1
  50
15
  71
0
  3
isocp.shx
  0
STYLE
  2
KICADBI
  70
0
  40
0
  41
1
  42
1
  50
15
  71
0
  3
isocp.shx
  0
ENDTAB
  0
TABLE
  2
LAYER
  70
30
  0
LAYER
  2
BLACK
  70
0
  62
7
  6
CONTINUOUS
  0
LAYER
  2
GRAY1
  70
0
  62
251
  6
CONTINUOUS
  0
LAYER
  2
GRAY2
  70
0
  62
8
  6
CONTINUOUS
  0
LAYER
  2
GRAY3
  70
0
  62
9
  6
CONTINUOUS
  0
LAYER
  2
WHITE
  70
0
  62
7
  6
CONTINUOUS
  0
LAYER
  2
LYELLOW
  70
0
  62
51
  6
CONTINUOUS
  0
LAYER
  2
BLUE1
  70
0
  62
178
  6
CONTINUOUS
  0
LAYER
  2
GREEN1
  70
0
  62
98
  6
CONTINUOUS
  0
LAYER
  2
CYAN1
  70
0
  62
138
  6
CONTINUOUS
  0
LAYER
  2
RED1
  70
0
  62
18
  6
CONTINUOUS
  0
LAYER
  2
MAGENTA1
  70
0
  62
228
  6
CONTINUOUS
  0
LAYER
  2
BROWN1
  70
0
  62
58
  6
CONTINUOUS
  0
LAYER
  2
BLUE2
  70
0
  62
5
  6
CONTINUOUS
  0
LAYER
  2
GREEN2
  70
0
  62
3
  6
CONTINUOUS
  0
LAYER
  2
CYAN2
  70
0
  62
4
  6
CONTINUOUS
  0
LAYER
  2
RED2
  70
0
  62
1
  6
CONTINUOUS
  0
LAYER
  2
MAGENTA2
  70
0
  62
6
  6
CONTINUOUS
  0
LAYER
  2
BROWN2
  70
0
  62
54
  6
CONTINUOUS
  0
LAYER
  2
BLUE3
  70
0
  62
171
  6
CONTINUOUS
  0
LAYER
  2
GREEN3
  70
0
  62
91
  6
CONTINUOUS
  0
LAYER
  2
CYAN3
  70
0
  62
131
  6
CONTINUOUS
  0
LAYER
  2
RED3
  70
0
  62
11
  6
CONTINUOUS
  0
LAYER
  2
MAGENTA3
  70
0
  62
221
  6
CONTINUOUS
  0
LAYER
  2
YELLOW3
  70
0
  62
2
  6
CONTINUOUS
  0
LAYER
  2
BLUE4
  70
0
  62
5
  6
CONTINUOUS
  0
LAYER
  2
GREEN4
  70
0
  62
3
  6
CONTINUOUS
  0
LAYER
  2
CYAN4
  70
0
  62
4
  6
CONTINUOUS
  0
LAYER
  2
RED4
  70
0
  62
1
  6
CONTINUOUS
  0
LAYER
  2
MAGENTA4
  70
0
  62
6
  6
CONTINUOUS
  0
LAYER
  2
YELLOW4
  70
0
  62
2
  6
CONTINUOUS
  0
ENDTAB
  0
ENDSEC
  0
SECTION
  2
ENTITIES
0
LINE
8
BLACK
6
CONTINUOUS
10
157.55
20
-104.61
11
156.05
21
-104.61
0
LINE
8
BLACK
6
CONTINUOUS
10
156.05
20
-104.61
11
156.05
21
-104.01
0
LINE
8
BLACK
6
CONTINUOUS
10
156.05
20
-104.01
11
157.55
21
-104.01
0
LINE
8
BLACK
6
CONTINUOUS
10
157.55
20
-104.01
11
157.55
21
-104.61
0
LINE
8
BLACK
6
CONTINUOUS
10
162.95
20
-104.61
11
161.45
21
-104.61
0
LINE
8
BLACK
6
CONTINUOUS
10
161.45
20
-104.61
11
161.45
21
-104.01
0
LINE
8
BLACK
6
CONTINUOUS
10
161.45
20
-104.01
11
162.95
21
-104.01
0
LINE
8
BLACK
6
CONTINUOUS
10
162.95
20
-104.01
11
162.95
21
-104.61
0
LINE
8
BLACK
6
CONTINUOUS
10
157.55
20
-103.34
11
156.05
21
-103.34
0
LINE
8
BLACK
6
CONTINUOUS
10
156.05
20
-103.34
11
156.05
21
-102.74
0
LINE
8
BLACK
6
CONTINUOUS
10
156.05
20
-102.74
11
157.55
21
-102.74
0
LINE
8
BLACK
6
CONTINUOUS
10
157.55
20
-102.74
11
157.55
21
-103.34
0
LINE
8
BLACK
6
CONTINUOUS
10
162.95
20
-103.34
11
161.45
21
-103.34
0
LINE
8
BLACK
6
CONTINUOUS
10
161.45
20
-103.34
11
161.45
21
-102.74
0
LINE
8
BLACK
6
CONTINUOUS
10
161.45
20
-102.74
11
162.95
21
-102.74
0
LINE
8
BLACK
6
CONTINUOUS
10
162.95
20
-102.74
11
162.95
21
-103.34
0
LINE
8
BLACK
6
CONTINUOUS
10
129.8
20
-102.505
11
128.2
21
-102.505
0
LINE
8
BLACK
6
CONTINUOUS
10
128.2
20
-102.505
11
128.2
21
-101.255
0
LINE
8
BLACK
6
CONTINUOUS
10
128.2
20
-101.255
11
129.8
21
-101.255
0
LINE
8
BLACK
6
CONTINUOUS
10
129.8
20
-101.255
11
129.8
21
-102.505
0
LINE
8
BLACK
6
CONTINUOUS
10
152.625
20
-102.5
11
151.375
21
-102.5
0
LINE
8
BLACK
6
CONTINUOUS
10
151.375
20
-102.5
11
151.375
21
-101
0
LINE
8
BLACK
6
CONTINUOUS
10
151.375
20
-101
11
152.625
21
-101
0
LINE
8
BLACK
6
CONTINUOUS
10
152.625
20
-101
11
152.625
21
-102.5
0
LINE
8
BLACK
6
CONTINUOUS
10
144.15
20
-102.1
11
142.85
21
-102.1
0
LINE
8
BLACK
6
CONTINUOUS
10
142.85
20
-102.1
11
142.85
21
-100.6
0
LINE
8
BLACK
6
CONTINUOUS
10
142.85
20
-100.6
11
144.15
21
-100.6
0
LINE
8
BLACK
6
CONTINUOUS
10
144.15
20
-100.6
11
144.15
21
-102.1
0
LINE
8
BLACK
6
CONTINUOUS
10
162.95
20
-102.07
11
161.45
21
-102.07
0
LINE
8
BLACK
6
CONTINUOUS
10
161.45
20
-102.07
11
161.45
21
-101.47
0
LINE
8
BLACK
6
CONTINUOUS
10
161.45
20
-101.47
11
162.95
21
-101.47
0
LINE
8
BLACK
6
CONTINUOUS
10
162.95
20
-101.47
11
162.95
21
-102.07
0
LINE
8
BLACK
6
CONTINUOUS
10
157.55
20
-102.07
11
156.05
21
-102.07
0
LINE
8
BLACK
6
CONTINUOUS
10
156.05
20
-102.07
11
156.05
21
-101.47
0
LINE
8
BLACK
6
CONTINUOUS
10
156.05
20
-101.47
11
157.55
21
-101.47
0
LINE
8
BLACK
6
CONTINUOUS
10
157.55
20
-101.47
11
157.55
21
-102.07
0
LINE
8
BLACK
6
CONTINUOUS
10
136.6
20
-101.65
11
135.1
21
-101.65
0
LINE
8
BLACK
6
CONTINUOUS
10
135.1
20
-101.65
11
135.1
21
-100.35
0
LINE
8
BLACK
6
CONTINUOUS
10
135.1
20
-100.35
11
136.6
21
-100.35
0
LINE
8
BLACK
6
CONTINUOUS
10
136.6
20
-100.35
11
136.6
21
-101.65
0
LINE
8
BLACK
6
CONTINUOUS
10
133.9
20
-101.65
11
132.4
21
-101.65
0
LINE
8
BLACK
6
CONTINUOUS
10
132.4
20
-101.65
11
132.4
21
-100.35
0
LINE
8
BLACK
6
CONTINUOUS
10
132.4
20
-100.35
11
133.9
21
-100.35
0
LINE
8
BLACK
6
CONTINUOUS
10
133.9
20
-100.35
11
133.9
21
-101.65
0
LINE
8
BLACK
6
CONTINUOUS
10
141.5
20
-101.625
11
140
21
-101.625
0
LINE
8
BLACK
6
CONTINUOUS
10
140
20
-101.625
11
140
21
-100.375
0
LINE
8
BLACK
6
CONTINUOUS
10
140
20
-100.375
11
141.5
21
-100.375
0
LINE
8
BLACK
6
CONTINUOUS
10
141.5
20
-100.375
11
141.5
21
-101.625
0
LINE
8
BLACK
6
CONTINUOUS
10
139
20
-101.625
11
137.5
21
-101.625
0
LINE
8
BLACK
6
CONTINUOUS
10
137.5
20
-101.625
11
137.5
21
-100.375
0
LINE
8
BLACK
6
CONTINUOUS
10
137.5
20
-100.375
11
139
21
-100.375
0
LINE
8
BLACK
6
CONTINUOUS
10
139
20
-100.375
11
139
21
-101.625
0
LINE
8
BLACK
6
CONTINUOUS
10
146.93
20
-101.275
11
145.37
21
-101.275
0
LINE
8
BLACK
6
CONTINUOUS
10
145.37
20
-101.275
11
145.37
21
-100.625
0
LINE
8
BLACK
6
CONTINUOUS
10
145.37
20
-100.625
11
146.93
21
-100.625
0
LINE
8
BLACK
6
CONTINUOUS
10
146.93
20
-100.625
11
146.93
21
-101.275
0
LINE
8
BLACK
6
CONTINUOUS
10
149.63
20
-101.275
11
148.07
21
-101.275
0
LINE
8
BLACK
6
CONTINUOUS
10
148.07
20
-101.275
11
148.07
21
-100.625
0
LINE
8
BLACK
6
CONTINUOUS
10
148.07
20
-100.625
11
149.63
21
-100.625
0
LINE
8
BLACK
6
CONTINUOUS
10
149.63
20
-100.625
11
149.63
21
-101.275
0
LINE
8
BLACK
6
CONTINUOUS
10
162.95
20
-100.8
11
161.45
21
-100.8
0
LINE
8
BLACK
6
CONTINUOUS
10
161.45
20
-100.8
11
161.45
21
-100.2
0
LINE
8
BLACK
6
CONTINUOUS
10
161.45
20
-100.2
11
162.95
21
-100.2
0
LINE
8
BLACK
6
CONTINUOUS
10
162.95
20
-100.2
11
162.95
21
-100.8
0
LINE
8
BLACK
6
CONTINUOUS
10
157.55
20
-100.8
11
156.05
21
-100.8
0
LINE
8
BLACK
6
CONTINUOUS
10
156.05
20
-100.8
11
156.05
21
-100.2
0
LINE
8
BLACK
6
CONTINUOUS
10
156.05
20
-100.2
11
157.55
21
-100.2
0
LINE
8
BLACK
6
CONTINUOUS
10
157.55
20
-100.2
11
157.55
21
-100.8
0
LINE
8
BLACK
6
CONTINUOUS
10
129.8
20
-100.745
11
128.2
21
-100.745
0
LINE
8
BLACK
6
CONTINUOUS
10
128.2
20
-100.745
11
128.2
21
-99.495
0
LINE
8
BLACK
6
CONTINUOUS
10
128.2
20
-99.495
11
129.8
21
-99.495
0
LINE
8
BLACK
6
CONTINUOUS
10
129.8
20
-99.495
11
129.8
21
-100.745
0
LINE
8
BLACK
6
CONTINUOUS
10
149.63
20
-100.325
11
148.07
21
-100.325
0
LINE
8
BLACK
6
CONTINUOUS
10
148.07
20
-100.325
11
148.07
21
-99.675
0
LINE
8
BLACK
6
CONTINUOUS
10
148.07
20
-99.675
11
149.63
21
-99.675
0
LINE
8
BLACK
6
CONTINUOUS
10
149.63
20
-99.675
11
149.63
21
-100.325
0
LINE
8
BLACK
6
CONTINUOUS
10
152.625
20
-100
11
151.375
21
-100
0
LINE
8
BLACK
6
CONTINUOUS
10
151.375
20
-100
11
151.375
21
-98.5
0
LINE
8
BLACK
6
CONTINUOUS
10
151.375
20
-98.5
11
152.625
21
-98.5
0
LINE
8
BLACK
6
CONTINUOUS
10
152.625
20
-98.5
11
152.625
21
-100
0
LINE
8
BLACK
6
CONTINUOUS
10
141.6
20
-99.65
11
140.1
21
-99.65
0
LINE
8
BLACK
6
CONTINUOUS
10
140.1
20
-99.65
11
140.1
21
-98.35
0
LINE
8
BLACK
6
CONTINUOUS
10
140.1
20
-98.35
11
141.6
21
-98.35
0
LINE
8
BLACK
6
CONTINUOUS
10
141.6
20
-98.35
11
141.6
21
-99.65
0
LINE
8
BLACK
6
CONTINUOUS
10
138.9
20
-99.65
11
137.4
21
-99.65
0
LINE
8
BLACK
6
CONTINUOUS
10
137.4
20
-99.65
11
137.4
21
-98.35
0
LINE
8
BLACK
6
CONTINUOUS
10
137.4
20
-98.35
11
138.9
21
-98.35
0
LINE
8
BLACK
6
CONTINUOUS
10
138.9
20
-98.35
11
138.9
21
-99.65
0
LINE
8
BLACK
6
CONTINUOUS
10
162.95
20
-99.53
11
161.45
21
-99.53
0
LINE
8
BLACK
6
CONTINUOUS
10
161.45
20
-99.53
11
161.45
21
-98.93
0
LINE
8
BLACK
6
CONTINUOUS
10
161.45
20
-98.93
11
162.95
21
-98.93
0
LINE
8
BLACK
6
CONTINUOUS
10
162.95
20
-98.93
11
162.95
21
-99.53
0
LINE
8
BLACK
6
CONTINUOUS
10
157.55
20
-99.53
11
156.05
21
-99.53
0
LINE
8
BLACK
6
CONTINUOUS
10
156.05
20
-99.53
11
156.05
21
-98.93
0
LINE
8
BLACK
6
CONTINUOUS
10
156.05
20
-98.93
11
157.55
21
-98.93
0
LINE
8
BLACK
6
CONTINUOUS
10
157.55
20
-98.93
11
157.55
21
-99.53
0
LINE
8
BLACK
6
CONTINUOUS
10
144.15
20
-99.4
11
142.85
21
-99.4
0
LINE
8
BLACK
6
CONTINUOUS
10
142.85
20
-99.4
11
142.85
21
-97.9
0
LINE
8
BLACK
6
CONTINUOUS
10
142.85
20
-97.9
11
144.15
21
-97.9
0
LINE
8
BLACK
6
CONTINUOUS
10
144.15
20
-97.9
11
144.15
21
-99.4
0
LINE
8
BLACK
6
CONTINUOUS
10
146.93
20
-99.375
11
145.37
21
-99.375
0
LINE
8
BLACK
6
CONTINUOUS
10
145.37
20
-99.375
11
145.37
21
-98.725
0
LINE
8
BLACK
6
CONTINUOUS
10
145.37
20
-98.725
11
146.93
21
-98.725
0
LINE
8
BLACK
6
CONTINUOUS
10
146.93
20
-98.725
11
146.93
21
-99.375
0
LINE
8
BLACK
6
CONTINUOUS
10
149.63
20
-99.375
11
148.07
21
-99.375
0
LINE
8
BLACK
6
CONTINUOUS
10
148.07
20
-99.375
11
148.07
21
-98.725
0
LINE
8
BLACK
6
CONTINUOUS
10
148.07
20
-98.725
11
149.63
21
-98.725
0
LINE
8
BLACK
6
CONTINUOUS
10
149.63
20
-98.725
11
149.63
21
-99.375
0
LINE
8
BLACK
6
CONTINUOUS
10
157.55
20
-98.26
11
156.05
21
-98.26
0
LINE
8
BLACK
6
CONTINUOUS
10
156.05
20
-98.26
11
156.05
21
-97.66
0
LINE
8
BLACK
6
CONTINUOUS
10
156.05
20
-97.66
11
157.55
21
-97.66
0
LINE
8
BLACK
6
CONTINUOUS
10
157.55
20
-97.66
11
157.55
21
-98.26
0
LINE
8
BLACK
6
CONTINUOUS
10
162.95
20
-98.26
11
161.45
21
-98.26
0
LINE
8
BLACK
6
CONTINUOUS
10
161.45
20
-98.26
11
161.45
21
-97.66
0
LINE
8
BLACK
6
CONTINUOUS
10
161.45
20
-97.66
11
162.95
21
-97.66
0
LINE
8
BLACK
6
CONTINUOUS
10
162.95
20
-97.66
11
162.95
21
-98.26
0
LINE
8
BLACK
6
CONTINUOUS
10
152.625
20
-97.5
11
151.375
21
-97.5
0
LINE
8
BLACK
6
CONTINUOUS
10
151.375
20
-97.5
11
151.375
21
-96
0
LINE
8
BLACK
6
CONTINUOUS
10
151.375
20
-96
11
152.625
21
-96
0
LINE
8
BLACK
6
CONTINUOUS
10
152.625
20
-96
11
152.625
21
-97.5
0
LINE
8
BLACK
6
CONTINUOUS
10
144.15
20
-97.1
11
142.85
21
-97.1
0
LINE
8
BLACK
6
CONTINUOUS
10
142.85
20
-97.1
11
142.85
21
-95.6
0
LINE
8
BLACK
6
CONTINUOUS
10
142.85
20
-95.6
11
144.15
21
-95.6
0
LINE
8
BLACK
6
CONTINUOUS
10
144.15
20
-95.6
11
144.15
21
-97.1
0
LINE
8
BLACK
6
CONTINUOUS
10
157.55
20
-96.99
11
156.05
21
-96.99
0
LINE
8
BLACK
6
CONTINUOUS
10
156.05
20
-96.99
11
156.05
21
-96.39
0
LINE
8
BLACK
6
CONTINUOUS
10
156.05
20
-96.39
11
157.55
21
-96.39
0
LINE
8
BLACK
6
CONTINUOUS
10
157.55
20
-96.39
11
157.55
21
-96.99
0
LINE
8
BLACK
6
CONTINUOUS
10
162.95
20
-96.99
11
161.45
21
-96.99
0
LINE
8
BLACK
6
CONTINUOUS
10
161.45
20
-96.99
11
161.45
21
-96.39
0
LINE
8
BLACK
6
CONTINUOUS
10
161.45
20
-96.39
11
162.95
21
-96.39
0
LINE
8
BLACK
6
CONTINUOUS
10
162.95
20
-96.39
11
162.95
21
-96.99
0
LINE
8
BLACK
6
CONTINUOUS
10
130.65
20
-96.7
11
127.35
21
-96.7
0
LINE
8
BLACK
6
CONTINUOUS
10
127.35
20
-96.7
11
127.35
21
-96.2
0
LINE
8
BLACK
6
CONTINUOUS
10
127.35
20
-96.2
11
130.65
21
-96.2
0
LINE
8
BLACK
6
CONTINUOUS
10
130.65
20
-96.2
11
130.65
21
-96.7
0
LINE
8
BLACK
6
CONTINUOUS
10
133.9
20
-96.65
11
132.4
21
-96.65
0
LINE
8
BLACK
6
CONTINUOUS
10
132.4
20
-96.65
11
132.4
21
-95.35
0
LINE
8
BLACK
6
CONTINUOUS
10
132.4
20
-95.35
11
133.9
21
-95.35
0
LINE
8
BLACK
6
CONTINUOUS
10
133.9
20
-95.35
11
133.9
21
-96.65
0
LINE
8
BLACK
6
CONTINUOUS
10
136.6
20
-96.65
11
135.1
21
-96.65
0
LINE
8
BLACK
6
CONTINUOUS
10
135.1
20
-96.65
11
135.1
21
-95.35
0
LINE
8
BLACK
6
CONTINUOUS
10
135.1
20
-95.35
11
136.6
21
-95.35
0
LINE
8
BLACK
6
CONTINUOUS
10
136.6
20
-95.35
11
136.6
21
-96.65
0
LINE
8
BLACK
6
CONTINUOUS
10
139
20
-96.625
11
137.5
21
-96.625
0
LINE
8
BLACK
6
CONTINUOUS
10
137.5
20
-96.625
11
137.5
21
-95.375
0
LINE
8
BLACK
6
CONTINUOUS
10
137.5
20
-95.375
11
139
21
-95.375
0
LINE
8
BLACK
6
CONTINUOUS
10
139
20
-95.375
11
139
21
-96.625
0
LINE
8
BLACK
6
CONTINUOUS
10
141.5
20
-96.625
11
140
21
-96.625
0
LINE
8
BLACK
6
CONTINUOUS
10
140
20
-96.625
11
140
21
-95.375
0
LINE
8
BLACK
6
CONTINUOUS
10
140
20
-95.375
11
141.5
21
-95.375
0
LINE
8
BLACK
6
CONTINUOUS
10
141.5
20
-95.375
11
141.5
21
-96.625
0
LINE
8
BLACK
6
CONTINUOUS
10
146.93
20
-96.275
11
145.37
21
-96.275
0
LINE
8
BLACK
6
CONTINUOUS
10
145.37
20
-96.275
11
145.37
21
-95.625
0
LINE
8
BLACK
6
CONTINUOUS
10
145.37
20
-95.625
11
146.93
21
-95.625
0
LINE
8
BLACK
6
CONTINUOUS
10
146.93
20
-95.625
11
146.93
21
-96.275
0
LINE
8
BLACK
6
CONTINUOUS
10
149.63
20
-96.275
11
148.07
21
-96.275
0
LINE
8
BLACK
6
CONTINUOUS
10
148.07
20
-96.275
11
148.07
21
-95.625
0
LINE
8
BLACK
6
CONTINUOUS
10
148.07
20
-95.625
11
149.63
21
-95.625
0
LINE
8
BLACK
6
CONTINUOUS
10
149.63
20
-95.625
11
149.63
21
-96.275
0
LINE
8
BLACK
6
CONTINUOUS
10
130.65
20
-95.65
11
127.35
21
-95.65
0
LINE
8
BLACK
6
CONTINUOUS
10
127.35
20
-95.65
11
127.35
21
-94.35
0
LINE
8
BLACK
6
CONTINUOUS
10
127.35
20
-94.35
11
130.65
21
-94.35
0
LINE
8
BLACK
6
CONTINUOUS
10
130.65
20
-94.35
11
130.65
21
-95.65
0
LINE
8
BLACK
6
CONTINUOUS
10
149.63
20
-95.325
11
148.07
21
-95.325
0
LINE
8
BLACK
6
CONTINUOUS
10
148.07
20
-95.325
11
148.07
21
-94.675
0
LINE
8
BLACK
6
CONTINUOUS
10
148.07
20
-94.675
11
149.63
21
-94.675
0
LINE
8
BLACK
6
CONTINUOUS
10
149.63
20
-94.675
11
149.63
21
-95.325
0
LINE
8
BLACK
6
CONTINUOUS
10
152.625
20
-95
11
151.375
21
-95
0
LINE
8
BLACK
6
CONTINUOUS
10
151.375
20
-95
11
151.375
21
-93.5
0
LINE
8
BLACK
6
CONTINUOUS
10
151.375
20
-93.5
11
152.625
21
-93.5
0
LINE
8
BLACK
6
CONTINUOUS
10
152.625
20
-93.5
11
152.625
21
-95
0
LINE
8
BLACK
6
CONTINUOUS
10
138.9
20
-94.65
11
137.4
21
-94.65
0
LINE
8
BLACK
6
CONTINUOUS
10
137.4
20
-94.65
11
137.4
21
-93.35
0
LINE
8
BLACK
6
CONTINUOUS
10
137.4
20
-93.35
11
138.9
21
-93.35
0
LINE
8
BLACK
6
CONTINUOUS
10
138.9
20
-93.35
11
138.9
21
-94.65
0
LINE
8
BLACK
6
CONTINUOUS
10
141.6
20
-94.65
11
140.1
21
-94.65
0
LINE
8
BLACK
6
CONTINUOUS
10
140.1
20
-94.65
11
140.1
21
-93.35
0
LINE
8
BLACK
6
CONTINUOUS
10
140.1
20
-93.35
11
141.6
21
-93.35
0
LINE
8
BLACK
6
CONTINUOUS
10
141.6
20
-93.35
11
141.6
21
-94.65
0
LINE
8
BLACK
6
CONTINUOUS
10
144.15
20
-94.4
11
142.85
21
-94.4
0
LINE
8
BLACK
6
CONTINUOUS
10
142.85
20
-94.4
11
142.85
21
-92.9
0
LINE
8
BLACK
6
CONTINUOUS
10
142.85
20
-92.9
11
144.15
21
-92.9
0
LINE
8
BLACK
6
CONTINUOUS
10
144.15
20
-92.9
11
144.15
21
-94.4
0
LINE
8
BLACK
6
CONTINUOUS
10
146.93
20
-94.375
11
145.37
21
-94.375
0
LINE
8
BLACK
6
CONTINUOUS
10
145.37
20
-94.375
11
145.37
21
-93.725
0
LINE
8
BLACK
6
CONTINUOUS
10
145.37
20
-93.725
11
146.93
21
-93.725
0
LINE
8
BLACK
6
CONTINUOUS
10
146.93
20
-93.725
11
146.93
21
-94.375
0
LINE
8
BLACK
6
CONTINUOUS
10
149.63
20
-94.375
11
148.07
21
-94.375
0
LINE
8
BLACK
6
CONTINUOUS
10
148.07
20
-94.375
11
148.07
21
-93.725
0
LINE
8
BLACK
6
CONTINUOUS
10
148.07
20
-93.725
11
149.63
21
-93.725
0
LINE
8
BLACK
6
CONTINUOUS
10
149.63
20
-93.725
11
149.63
21
-94.375
0
LINE
8
BLACK
6
CONTINUOUS
10
130.65
20
-93.8
11
127.35
21
-93.8
0
LINE
8
BLACK
6
CONTINUOUS
10
127.35
20
-93.8
11
127.35
21
-93.3
0
LINE
8
BLACK
6
CONTINUOUS
10
127.35
20
-93.3
11
130.65
21
-93.3
0
LINE
8
BLACK
6
CONTINUOUS
10
130.65
20
-93.3
11
130.65
21
-93.8
0
LINE
8
BLACK
6
CONTINUOUS
10
152.625
20
-92.5
11
151.375
21
-92.5
0
LINE
8
BLACK
6
CONTINUOUS
10
151.375
20
-92.5
11
151.375
21
-91
0
LINE
8
BLACK
6
CONTINUOUS
10
151.375
20
-91
11
152.625
21
-91
0
LINE
8
BLACK
6
CONTINUOUS
10
152.625
20
-91
11
152.625
21
-92.5
0
LINE
8
BLACK
6
CONTINUOUS
10
130.35
20
-92.3
11
127.65
21
-92.3
0
LINE
8
BLACK
6
CONTINUOUS
10
127.65
20
-92.3
11
127.65
21
-90.9
0
LINE
8
BLACK
6
CONTINUOUS
10
127.65
20
-90.9
11
130.35
21
-90.9
0
LINE
8
BLACK
6
CONTINUOUS
10
130.35
20
-90.9
11
130.35
21
-92.3
0
LINE
8
BLACK
6
CONTINUOUS
10
144.15
20
-92.1
11
142.85
21
-92.1
0
LINE
8
BLACK
6
CONTINUOUS
10
142.85
20
-92.1
11
142.85
21
-90.6
0
LINE
8
BLACK
6
CONTINUOUS
10
142.85
20
-90.6
11
144.15
21
-90.6
0
LINE
8
BLACK
6
CONTINUOUS
10
144.15
20
-90.6
11
144.15
21
-92.1
0
LINE
8
BLACK
6
CONTINUOUS
10
133.9
20
-91.65
11
132.4
21
-91.65
0
LINE
8
BLACK
6
CONTINUOUS
10
132.4
20
-91.65
11
132.4
21
-90.35
0
LINE
8
BLACK
6
CONTINUOUS
10
132.4
20
-90.35
11
133.9
21
-90.35
0
LINE
8
BLACK
6
CONTINUOUS
10
133.9
20
-90.35
11
133.9
21
-91.65
0
LINE
8
BLACK
6
CONTINUOUS
10
136.6
20
-91.65
11
135.1
21
-91.65
0
LINE
8
BLACK
6
CONTINUOUS
10
135.1
20
-91.65
11
135.1
21
-90.35
0
LINE
8
BLACK
6
CONTINUOUS
10
135.1
20
-90.35
11
136.6
21
-90.35
0
LINE
8
BLACK
6
CONTINUOUS
10
136.6
20
-90.35
11
136.6
21
-91.65
0
LINE
8
BLACK
6
CONTINUOUS
10
141.5
20
-91.625
11
140
21
-91.625
0
LINE
8
BLACK
6
CONTINUOUS
10
140
20
-91.625
11
140
21
-90.375
0
LINE
8
BLACK
6
CONTINUOUS
10
140
20
-90.375
11
141.5
21
-90.375
0
LINE
8
BLACK
6
CONTINUOUS
10
141.5
20
-90.375
11
141.5
21
-91.625
0
LINE
8
BLACK
6
CONTINUOUS
10
139
20
-91.625
11
137.5
21
-91.625
0
LINE
8
BLACK
6
CONTINUOUS
10
137.5
20
-91.625
11
137.5
21
-90.375
0
LINE
8
BLACK
6
CONTINUOUS
10
137.5
20
-90.375
11
139
21
-90.375
0
LINE
8
BLACK
6
CONTINUOUS
10
139
20
-90.375
11
139
21
-91.625
0
LINE
8
BLACK
6
CONTINUOUS
10
149.63
20
-91.275
11
148.07
21
-91.275
0
LINE
8
BLACK
6
CONTINUOUS
10
148.07
20
-91.275
11
148.07
21
-90.625
0
LINE
8
BLACK
6
CONTINUOUS
10
148.07
20
-90.625
11
149.63
21
-90.625
0
LINE
8
BLACK
6
CONTINUOUS
10
149.63
20
-90.625
11
149.63
21
-91.275
0
LINE
8
BLACK
6
CONTINUOUS
10
146.93
20
-91.275
11
145.37
21
-91.275
0
LINE
8
BLACK
6
CONTINUOUS
10
145.37
20
-91.275
11
145.37
21
-90.625
0
LINE
8
BLACK
6
CONTINUOUS
10
145.37
20
-90.625
11
146.93
21
-90.625
0
LINE
8
BLACK
6
CONTINUOUS
10
146.93
20
-90.625
11
146.93
21
-91.275
0
LINE
8
BLACK
6
CONTINUOUS
10
149.63
20
-90.325
11
148.07
21
-90.325
0
LINE
8
BLACK
6
CONTINUOUS
10
148.07
20
-90.325
11
148.07
21
-89.675
0
LINE
8
BLACK
6
CONTINUOUS
10
148.07
20
-89.675
11
149.63
21
-89.675
0
LINE
8
BLACK
6
CONTINUOUS
10
149.63
20
-89.675
11
149.63
21
-90.325
0
LINE
8
BLACK
6
CONTINUOUS
10
130.35
20
-90.15
11
127.65
21
-90.15
0
LINE
8
BLACK
6
CONTINUOUS
10
127.65
20
-90.15
11
127.65
21
-87.65
0
LINE
8
BLACK
6
CONTINUOUS
10
127.65
20
-87.65
11
130.35
21
-87.65
0
LINE
8
BLACK
6
CONTINUOUS
10
130.35
20
-87.65
11
130.35
21
-90.15
0
LINE
8
BLACK
6
CONTINUOUS
10
152.625
20
-90
11
151.375
21
-90
0
LINE
8
BLACK
6
CONTINUOUS
10
151.375
20
-90
11
151.375
21
-88.5
0
LINE
8
BLACK
6
CONTINUOUS
10
151.375
20
-88.5
11
152.625
21
-88.5
0
LINE
8
BLACK
6
CONTINUOUS
10
152.625
20
-88.5
11
152.625
21
-90
0
LINE
8
BLACK
6
CONTINUOUS
10
138.9
20
-89.65
11
137.4
21
-89.65
0
LINE
8
BLACK
6
CONTINUOUS
10
137.4
20
-89.65
11
137.4
21
-88.35
0
LINE
8
BLACK
6
CONTINUOUS
10
137.4
20
-88.35
11
138.9
21
-88.35
0
LINE
8
BLACK
6
CONTINUOUS
10
138.9
20
-88.35
11
138.9
21
-89.65
0
LINE
8
BLACK
6
CONTINUOUS
10
141.6
20
-89.65
11
140.1
21
-89.65
0
LINE
8
BLACK
6
CONTINUOUS
10
140.1
20
-89.65
11
140.1
21
-88.35
0
LINE
8
BLACK
6
CONTINUOUS
10
140.1
20
-88.35
11
141.6
21
-88.35
0
LINE
8
BLACK
6
CONTINUOUS
10
141.6
20
-88.35
11
141.6
21
-89.65
0
LINE
8
BLACK
6
CONTINUOUS
10
144.15
20
-89.4
11
142.85
21
-89.4
0
LINE
8
BLACK
6
CONTINUOUS
10
142.85
20
-89.4
11
142.85
21
-87.9
0
LINE
8
BLACK
6
CONTINUOUS
10
142.85
20
-87.9
11
144.15
21
-87.9
0
LINE
8
BLACK
6
CONTINUOUS
10
144.15
20
-87.9
11
144.15
21
-89.4
0
LINE
8
BLACK
6
CONTINUOUS
10
146.93
20
-89.375
11
145.37
21
-89.375
0
LINE
8
BLACK
6
CONTINUOUS
10
145.37
20
-89.375
11
145.37
21
-88.725
0
LINE
8
BLACK
6
CONTINUOUS
10
145.37
20
-88.725
11
146.93
21
-88.725
0
LINE
8
BLACK
6
CONTINUOUS
10
146.93
20
-88.725
11
146.93
21
-89.375
0
LINE
8
BLACK
6
CONTINUOUS
10
149.63
20
-89.375
11
148.07
21
-89.375
0
LINE
8
BLACK
6
CONTINUOUS
10
148.07
20
-89.375
11
148.07
21
-88.725
0
LINE
8
BLACK
6
CONTINUOUS
10
148.07
20
-88.725
11
149.63
21
-88.725
0
LINE
8
BLACK
6
CONTINUOUS
10
149.63
20
-88.725
11
149.63
21
-89.375
0
LINE
8
BLACK
6
CONTINUOUS
10
152.625
20
-87.5
11
151.375
21
-87.5
0
LINE
8
BLACK
6
CONTINUOUS
10
151.375
20
-87.5
11
151.375
21
-86
0
LINE
8
BLACK
6
CONTINUOUS
10
151.375
20
-86
11
152.625
21
-86
0
LINE
8
BLACK
6
CONTINUOUS
10
152.625
20
-86
11
152.625
21
-87.5
0
LINE
8
BLACK
6
CONTINUOUS
10
144.15
20
-87.1
11
142.85
21
-87.1
0
LINE
8
BLACK
6
CONTINUOUS
10
142.85
20
-87.1
11
142.85
21
-85.6
0
LINE
8
BLACK
6
CONTINUOUS
10
142.85
20
-85.6
11
144.15
21
-85.6
0
LINE
8
BLACK
6
CONTINUOUS
10
144.15
20
-85.6
11
144.15
21
-87.1
0
LINE
8
BLACK
6
CONTINUOUS
10
133.9
20
-86.65
11
132.4
21
-86.65
0
LINE
8
BLACK
6
CONTINUOUS
10
132.4
20
-86.65
11
132.4
21
-85.35
0
LINE
8
BLACK
6
CONTINUOUS
10
132.4
20
-85.35
11
133.9
21
-85.35
0
LINE
8
BLACK
6
CONTINUOUS
10
133.9
20
-85.35
11
133.9
21
-86.65
0
LINE
8
BLACK
6
CONTINUOUS
10
136.6
20
-86.65
11
135.1
21
-86.65
0
LINE
8
BLACK
6
CONTINUOUS
10
135.1
20
-86.65
11
135.1
21
-85.35
0
LINE
8
BLACK
6
CONTINUOUS
10
135.1
20
-85.35
11
136.6
21
-85.35
0
LINE
8
BLACK
6
CONTINUOUS
10
136.6
20
-85.35
11
136.6
21
-86.65
0
LINE
8
BLACK
6
CONTINUOUS
10
141.5
20
-86.625
11
140
21
-86.625
0
LINE
8
BLACK
6
CONTINUOUS
10
140
20
-86.625
11
140
21
-85.375
0
LINE
8
BLACK
6
CONTINUOUS
10
140
20
-85.375
11
141.5
21
-85.375
0
LINE
8
BLACK
6
CONTINUOUS
10
141.5
20
-85.375
11
141.5
21
-86.625
0
LINE
8
BLACK
6
CONTINUOUS
10
139
20
-86.625
11
137.5
21
-86.625
0
LINE
8
BLACK
6
CONTINUOUS
10
137.5
20
-86.625
11
137.5
21
-85.375
0
LINE
8
BLACK
6
CONTINUOUS
10
137.5
20
-85.375
11
139
21
-85.375
0
LINE
8
BLACK
6
CONTINUOUS
10
139
20
-85.375
11
139
21
-86.625
0
LINE
8
BLACK
6
CONTINUOUS
10
146.93
20
-86.275
11
145.37
21
-86.275
0
LINE
8
BLACK
6
CONTINUOUS
10
145.37
20
-86.275
11
145.37
21
-85.625
0
LINE
8
BLACK
6
CONTINUOUS
10
145.37
20
-85.625
11
146.93
21
-85.625
0
LINE
8
BLACK
6
CONTINUOUS
10
146.93
20
-85.625
11
146.93
21
-86.275
0
LINE
8
BLACK
6
CONTINUOUS
10
149.63
20
-86.275
11
148.07
21
-86.275
0
LINE
8
BLACK
6
CONTINUOUS
10
148.07
20
-86.275
11
148.07
21
-85.625
0
LINE
8
BLACK
6
CONTINUOUS
10
148.07
20
-85.625
11
149.63
21
-85.625
0
LINE
8
BLACK
6
CONTINUOUS
10
149.63
20
-85.625
11
149.63
21
-86.275
0
LINE
8
BLACK
6
CONTINUOUS
10
129.8
20
-86.265
11
128.2
21
-86.265
0
LINE
8
BLACK
6
CONTINUOUS
10
128.2
20
-86.265
11
128.2
21
-85.615
0
LINE
8
BLACK
6
CONTINUOUS
10
128.2
20
-85.615
11
129.8
21
-85.615
0
LINE
8
BLACK
6
CONTINUOUS
10
129.8
20
-85.615
11
129.8
21
-86.265
0
LINE
8
BLACK
6
CONTINUOUS
10
129.8
20
-85.325
11
128.2
21
-85.325
0
LINE
8
BLACK
6
CONTINUOUS
10
128.2
20
-85.325
11
128.2
21
-84.675
0
LINE
8
BLACK
6
CONTINUOUS
10
128.2
20
-84.675
11
129.8
21
-84.675
0
LINE
8
BLACK
6
CONTINUOUS
10
129.8
20
-84.675
11
129.8
21
-85.325
0
LINE
8
BLACK
6
CONTINUOUS
10
149.63
20
-85.325
11
148.07
21
-85.325
0
LINE
8
BLACK
6
CONTINUOUS
10
148.07
20
-85.325
11
148.07
21
-84.675
0
LINE
8
BLACK
6
CONTINUOUS
10
148.07
20
-84.675
11
149.63
21
-84.675
0
LINE
8
BLACK
6
CONTINUOUS
10
149.63
20
-84.675
11
149.63
21
-85.325
0
LINE
8
BLACK
6
CONTINUOUS
10
152.625
20
-85
11
151.375
21
-85
0
LINE
8
BLACK
6
CONTINUOUS
10
151.375
20
-85
11
151.375
21
-83.5
0
LINE
8
BLACK
6
CONTINUOUS
10
151.375
20
-83.5
11
152.625
21
-83.5
0
LINE
8
BLACK
6
CONTINUOUS
10
152.625
20
-83.5
11
152.625
21
-85
0
LINE
8
BLACK
6
CONTINUOUS
10
141.6
20
-84.65
11
140.1
21
-84.65
0
LINE
8
BLACK
6
CONTINUOUS
10
140.1
20
-84.65
11
140.1
21
-83.35
0
LINE
8
BLACK
6
CONTINUOUS
10
140.1
20
-83.35
11
141.6
21
-83.35
0
LINE
8
BLACK
6
CONTINUOUS
10
141.6
20
-83.35
11
141.6
21
-84.65
0
LINE
8
BLACK
6
CONTINUOUS
10
138.9
20
-84.65
11
137.4
21
-84.65
0
LINE
8
BLACK
6
CONTINUOUS
10
137.4
20
-84.65
11
137.4
21
-83.35
0
LINE
8
BLACK
6
CONTINUOUS
10
137.4
20
-83.35
11
138.9
21
-83.35
0
LINE
8
BLACK
6
CONTINUOUS
10
138.9
20
-83.35
11
138.9
21
-84.65
0
LINE
8
BLACK
6
CONTINUOUS
10
144.15
20
-84.4
11
142.85
21
-84.4
0
LINE
8
BLACK
6
CONTINUOUS
10
142.85
20
-84.4
11
142.85
21
-82.9
0
LINE
8
BLACK
6
CONTINUOUS
10
142.85
20
-82.9
11
144.15
21
-82.9
0
LINE
8
BLACK
6
CONTINUOUS
10
144.15
20
-82.9
11
144.15
21
-84.4
0
LINE
8
BLACK
6
CONTINUOUS
10
149.63
20
-84.375
11
148.07
21
-84.375
0
LINE
8
BLACK
6
CONTINUOUS
10
148.07
20
-84.375
11
148.07
21
-83.725
0
LINE
8
BLACK
6
CONTINUOUS
10
148.07
20
-83.725
11
149.63
21
-83.725
0
LINE
8
BLACK
6
CONTINUOUS
10
149.63
20
-83.725
11
149.63
21
-84.375
0
LINE
8
BLACK
6
CONTINUOUS
10
146.93
20
-84.375
11
145.37
21
-84.375
0
LINE
8
BLACK
6
CONTINUOUS
10
145.37
20
-84.375
11
145.37
21
-83.725
0
LINE
8
BLACK
6
CONTINUOUS
10
145.37
20
-83.725
11
146.93
21
-83.725
0
LINE
8
BLACK
6
CONTINUOUS
10
146.93
20
-83.725
11
146.93
21
-84.375
0
LINE
8
BLACK
6
CONTINUOUS
10
152.625
20
-82.5
11
151.375
21
-82.5
0
LINE
8
BLACK
6
CONTINUOUS
10
151.375
20
-82.5
11
151.375
21
-81
0
LINE
8
BLACK
6
CONTINUOUS
10
151.375
20
-81
11
152.625
21
-81
0
LINE
8
BLACK
6
CONTINUOUS
10
152.625
20
-81
11
152.625
21
-82.5
0
LINE
8
BLACK
6
CONTINUOUS
10
144.15
20
-82.1
11
142.85
21
-82.1
0
LINE
8
BLACK
6
CONTINUOUS
10
142.85
20
-82.1
11
142.85
21
-80.6
0
LINE
8
BLACK
6
CONTINUOUS
10
142.85
20
-80.6
11
144.15
21
-80.6
0
LINE
8
BLACK
6
CONTINUOUS
10
144.15
20
-80.6
11
144.15
21
-82.1
0
LINE
8
BLACK
6
CONTINUOUS
10
133.9
20
-81.65
11
132.4
21
-81.65
0
LINE
8
BLACK
6
CONTINUOUS
10
132.4
20
-81.65
11
132.4
21
-80.35
0
LINE
8
BLACK
6
CONTINUOUS
10
132.4
20
-80.35
11
133.9
21
-80.35
0
LINE
8
BLACK
6
CONTINUOUS
10
133.9
20
-80.35
11
133.9
21
-81.65
0
LINE
8
BLACK
6
CONTINUOUS
10
136.6
20
-81.65
11
135.1
21
-81.65
0
LINE
8
BLACK
6
CONTINUOUS
10
135.1
20
-81.65
11
135.1
21
-80.35
0
LINE
8
BLACK
6
CONTINUOUS
10
135.1
20
-80.35
11
136.6
21
-80.35
0
LINE
8
BLACK
6
CONTINUOUS
10
136.6
20
-80.35
11
136.6
21
-81.65
0
LINE
8
BLACK
6
CONTINUOUS
10
139
20
-81.625
11
137.5
21
-81.625
0
LINE
8
BLACK
6
CONTINUOUS
10
137.5
20
-81.625
11
137.5
21
-80.375
0
LINE
8
BLACK
6
CONTINUOUS
10
137.5
20
-80.375
11
139
21
-80.375
0
LINE
8
BLACK
6
CONTINUOUS
10
139
20
-80.375
11
139
21
-81.625
0
LINE
8
BLACK
6
CONTINUOUS
10
141.5
20
-81.625
11
140
21
-81.625
0
LINE
8
BLACK
6
CONTINUOUS
10
140
20
-81.625
11
140
21
-80.375
0
LINE
8
BLACK
6
CONTINUOUS
10
140
20
-80.375
11
141.5
21
-80.375
0
LINE
8
BLACK
6
CONTINUOUS
10
141.5
20
-80.375
11
141.5
21
-81.625
0
LINE
8
BLACK
6
CONTINUOUS
10
129.8
20
-81.325
11
128.2
21
-81.325
0
LINE
8
BLACK
6
CONTINUOUS
10
128.2
20
-81.325
11
128.2
21
-80.675
0
LINE
8
BLACK
6
CONTINUOUS
10
128.2
20
-80.675
11
129.8
21
-80.675
0
LINE
8
BLACK
6
CONTINUOUS
10
129.8
20
-80.675
11
129.8
21
-81.325
0
LINE
8
BLACK
6
CONTINUOUS
10
146.93
20
-81.275
11
145.37
21
-81.275
0
LINE
8
BLACK
6
CONTINUOUS
10
145.37
20
-81.275
11
145.37
21
-80.625
0
LINE
8
BLACK
6
CONTINUOUS
10
145.37
20
-80.625
11
146.93
21
-80.625
0
LINE
8
BLACK
6
CONTINUOUS
10
146.93
20
-80.625
11
146.93
21
-81.275
0
LINE
8
BLACK
6
CONTINUOUS
10
149.63
20
-81.275
11
148.07
21
-81.275
0
LINE
8
BLACK
6
CONTINUOUS
10
148.07
20
-81.275
11
148.07
21
-80.625
0
LINE
8
BLACK
6
CONTINUOUS
10
148.07
20
-80.625
11
149.63
21
-80.625
0
LINE
8
BLACK
6
CONTINUOUS
10
149.63
20
-80.625
11
149.63
21
-81.275
0
LINE
8
BLACK
6
CONTINUOUS
10
129.8
20
-80.385
11
128.2
21
-80.385
0
LINE
8
BLACK
6
CONTINUOUS
10
128.2
20
-80.385
11
128.2
21
-79.735
0
LINE
8
BLACK
6
CONTINUOUS
10
128.2
20
-79.735
11
129.8
21
-79.735
0
LINE
8
BLACK
6
CONTINUOUS
10
129.8
20
-79.735
11
129.8
21
-80.385
0
LINE
8
BLACK
6
CONTINUOUS
10
149.63
20
-80.325
11
148.07
21
-80.325
0
LINE
8
BLACK
6
CONTINUOUS
10
148.07
20
-80.325
11
148.07
21
-79.675
0
LINE
8
BLACK
6
CONTINUOUS
10
148.07
20
-79.675
11
149.63
21
-79.675
0
LINE
8
BLACK
6
CONTINUOUS
10
149.63
20
-79.675
11
149.63
21
-80.325
0
LINE
8
BLACK
6
CONTINUOUS
10
152.625
20
-80
11
151.375
21
-80
0
LINE
8
BLACK
6
CONTINUOUS
10
151.375
20
-80
11
151.375
21
-78.5
0
LINE
8
BLACK
6
CONTINUOUS
10
151.375
20
-78.5
11
152.625
21
-78.5
0
LINE
8
BLACK
6
CONTINUOUS
10
152.625
20
-78.5
11
152.625
21
-80
0
LINE
8
BLACK
6
CONTINUOUS
10
161.375
20
-79.75
11
160.125
21
-79.75
0
LINE
8
BLACK
6
CONTINUOUS
10
160.125
20
-79.75
11
160.125
21
-78.25
0
LINE
8
BLACK
6
CONTINUOUS
10
160.125
20
-78.25
11
161.375
21
-78.25
0
LINE
8
BLACK
6
CONTINUOUS
10
161.375
20
-78.25
11
161.375
21
-79.75
0
LINE
8
BLACK
6
CONTINUOUS
10
159.375
20
-79.75
11
158.125
21
-79.75
0
LINE
8
BLACK
6
CONTINUOUS
10
158.125
20
-79.75
11
158.125
21
-78.25
0
LINE
8
BLACK
6
CONTINUOUS
10
158.125
20
-78.25
11
159.375
21
-78.25
0
LINE
8
BLACK
6
CONTINUOUS
10
159.375
20
-78.25
11
159.375
21
-79.75
0
LINE
8
BLACK
6
CONTINUOUS
10
141.6
20
-79.65
11
140.1
21
-79.65
0
LINE
8
BLACK
6
CONTINUOUS
10
140.1
20
-79.65
11
140.1
21
-78.35
0
LINE
8
BLACK
6
CONTINUOUS
10
140.1
20
-78.35
11
141.6
21
-78.35
0
LINE
8
BLACK
6
CONTINUOUS
10
141.6
20
-78.35
11
141.6
21
-79.65
0
LINE
8
BLACK
6
CONTINUOUS
10
138.9
20
-79.65
11
137.4
21
-79.65
0
LINE
8
BLACK
6
CONTINUOUS
10
137.4
20
-79.65
11
137.4
21
-78.35
0
LINE
8
BLACK
6
CONTINUOUS
10
137.4
20
-78.35
11
138.9
21
-78.35
0
LINE
8
BLACK
6
CONTINUOUS
10
138.9
20
-78.35
11
138.9
21
-79.65
0
LINE
8
BLACK
6
CONTINUOUS
10
144.15
20
-79.4
11
142.85
21
-79.4
0
LINE
8
BLACK
6
CONTINUOUS
10
142.85
20
-79.4
11
142.85
21
-77.9
0
LINE
8
BLACK
6
CONTINUOUS
10
142.85
20
-77.9
11
144.15
21
-77.9
0
LINE
8
BLACK
6
CONTINUOUS
10
144.15
20
-77.9
11
144.15
21
-79.4
0
LINE
8
BLACK
6
CONTINUOUS
10
146.93
20
-79.375
11
145.37
21
-79.375
0
LINE
8
BLACK
6
CONTINUOUS
10
145.37
20
-79.375
11
145.37
21
-78.725
0
LINE
8
BLACK
6
CONTINUOUS
10
145.37
20
-78.725
11
146.93
21
-78.725
0
LINE
8
BLACK
6
CONTINUOUS
10
146.93
20
-78.725
11
146.93
21
-79.375
0
LINE
8
BLACK
6
CONTINUOUS
10
149.63
20
-79.375
11
148.07
21
-79.375
0
LINE
8
BLACK
6
CONTINUOUS
10
148.07
20
-79.375
11
148.07
21
-78.725
0
LINE
8
BLACK
6
CONTINUOUS
10
148.07
20
-78.725
11
149.63
21
-78.725
0
LINE
8
BLACK
6
CONTINUOUS
10
149.63
20
-78.725
11
149.63
21
-79.375
0
LINE
8
BLACK
6
CONTINUOUS
10
159.375
20
-77.25
11
158.125
21
-77.25
0
LINE
8
BLACK
6
CONTINUOUS
10
158.125
20
-77.25
11
158.125
21
-75.75
0
LINE
8
BLACK
6
CONTINUOUS
10
158.125
20
-75.75
11
159.375
21
-75.75
0
LINE
8
BLACK
6
CONTINUOUS
10
159.375
20
-75.75
11
159.375
21
-77.25
0
LINE
8
BLACK
6
CONTINUOUS
10
161.375
20
-77.25
11
160.125
21
-77.25
0
LINE
8
BLACK
6
CONTINUOUS
10
160.125
20
-77.25
11
160.125
21
-75.75
0
LINE
8
BLACK
6
CONTINUOUS
10
160.125
20
-75.75
11
161.375
21
-75.75
0
LINE
8
BLACK
6
CONTINUOUS
10
161.375
20
-75.75
11
161.375
21
-77.25
0
LINE
8
BLACK
6
CONTINUOUS
10
132.04
20
-76.1
11
131.04
21
-76.1
0
LINE
8
BLACK
6
CONTINUOUS
10
131.04
20
-76.1
11
131.04
21
-72.95
0
LINE
8
BLACK
6
CONTINUOUS
10
131.04
20
-72.95
11
132.04
21
-72.95
0
LINE
8
BLACK
6
CONTINUOUS
10
132.04
20
-72.95
11
132.04
21
-76.1
0
LINE
8
BLACK
6
CONTINUOUS
10
129.5
20
-76.1
11
128.5
21
-76.1
0
LINE
8
BLACK
6
CONTINUOUS
10
128.5
20
-76.1
11
128.5
21
-72.95
0
LINE
8
BLACK
6
CONTINUOUS
10
128.5
20
-72.95
11
129.5
21
-72.95
0
LINE
8
BLACK
6
CONTINUOUS
10
129.5
20
-72.95
11
129.5
21
-76.1
0
LINE
8
BLACK
6
CONTINUOUS
10
126.96
20
-76.1
11
125.96
21
-76.1
0
LINE
8
BLACK
6
CONTINUOUS
10
125.96
20
-76.1
11
125.96
21
-72.95
0
LINE
8
BLACK
6
CONTINUOUS
10
125.96
20
-72.95
11
126.96
21
-72.95
0
LINE
8
BLACK
6
CONTINUOUS
10
126.96
20
-72.95
11
126.96
21
-76.1
0
LINE
8
BLACK
6
CONTINUOUS
10
152.01
20
-75
11
150.81
21
-75
0
LINE
8
BLACK
6
CONTINUOUS
10
150.81
20
-75
11
150.81
21
-73
0
LINE
8
BLACK
6
CONTINUOUS
10
150.81
20
-73
11
152.01
21
-73
0
LINE
8
BLACK
6
CONTINUOUS
10
152.01
20
-73
11
152.01
21
-75
0
LINE
8
BLACK
6
CONTINUOUS
10
149.47
20
-75
11
148.27
21
-75
0
LINE
8
BLACK
6
CONTINUOUS
10
148.27
20
-75
11
148.27
21
-73
0
LINE
8
BLACK
6
CONTINUOUS
10
148.27
20
-73
11
149.47
21
-73
0
LINE
8
BLACK
6
CONTINUOUS
10
149.47
20
-73
11
149.47
21
-75
0
LINE
8
BLACK
6
CONTINUOUS
10
146.93
20
-75
11
145.73
21
-75
0
LINE
8
BLACK
6
CONTINUOUS
10
145.73
20
-75
11
145.73
21
-73
0
LINE
8
BLACK
6
CONTINUOUS
10
145.73
20
-73
11
146.93
21
-73
0
LINE
8
BLACK
6
CONTINUOUS
10
146.93
20
-73
11
146.93
21
-75
0
LINE
8
BLACK
6
CONTINUOUS
10
138.15
20
-74.1
11
136.85
21
-74.1
0
LINE
8
BLACK
6
CONTINUOUS
10
136.85
20
-74.1
11
136.85
21
-72.6
0
LINE
8
BLACK
6
CONTINUOUS
10
136.85
20
-72.6
11
138.15
21
-72.6
0
LINE
8
BLACK
6
CONTINUOUS
10
138.15
20
-72.6
11
138.15
21
-74.1
0
LINE
8
BLACK
6
CONTINUOUS
10
138.15
20
-71.4
11
136.85
21
-71.4
0
LINE
8
BLACK
6
CONTINUOUS
10
136.85
20
-71.4
11
136.85
21
-69.9
0
LINE
8
BLACK
6
CONTINUOUS
10
136.85
20
-69.9
11
138.15
21
-69.9
0
LINE
8
BLACK
6
CONTINUOUS
10
138.15
20
-69.9
11
138.15
21
-71.4
0
LINE
8
BLACK
6
CONTINUOUS
10
132.04
20
-71.05
11
131.04
21
-71.05
0
LINE
8
BLACK
6
CONTINUOUS
10
131.04
20
-71.05
11
131.04
21
-67.9
0
LINE
8
BLACK
6
CONTINUOUS
10
131.04
20
-67.9
11
132.04
21
-67.9
0
LINE
8
BLACK
6
CONTINUOUS
10
132.04
20
-67.9
11
132.04
21
-71.05
0
LINE
8
BLACK
6
CONTINUOUS
10
129.5
20
-71.05
11
128.5
21
-71.05
0
LINE
8
BLACK
6
CONTINUOUS
10
128.5
20
-71.05
11
128.5
21
-67.9
0
LINE
8
BLACK
6
CONTINUOUS
10
128.5
20
-67.9
11
129.5
21
-67.9
0
LINE
8
BLACK
6
CONTINUOUS
10
129.5
20
-67.9
11
129.5
21
-71.05
0
LINE
8
BLACK
6
CONTINUOUS
10
126.96
20
-71.05
11
125.96
21
-71.05
0
LINE
8
BLACK
6
CONTINUOUS
10
125.96
20
-71.05
11
125.96
21
-67.9
0
LINE
8
BLACK
6
CONTINUOUS
10
125.96
20
-67.9
11
126.96
21
-67.9
0
LINE
8
BLACK
6
CONTINUOUS
10
126.96
20
-67.9
11
126.96
21
-71.05
0
LINE
8
BLACK
6
CONTINUOUS
10
153.28
20
-69
11
152.08
21
-69
0
LINE
8
BLACK
6
CONTINUOUS
10
152.08
20
-69
11
152.08
21
-67
0
LINE
8
BLACK
6
CONTINUOUS
10
152.08
20
-67
11
153.28
21
-67
0
LINE
8
BLACK
6
CONTINUOUS
10
153.28
20
-67
11
153.28
21
-69
0
LINE
8
BLACK
6
CONTINUOUS
10
150.74
20
-69
11
149.54
21
-69
0
LINE
8
BLACK
6
CONTINUOUS
10
149.54
20
-69
11
149.54
21
-67
0
LINE
8
BLACK
6
CONTINUOUS
10
149.54
20
-67
11
150.74
21
-67
0
LINE
8
BLACK
6
CONTINUOUS
10
150.74
20
-67
11
150.74
21
-69
0
LINE
8
BLACK
6
CONTINUOUS
10
148.2
20
-69
11
147
21
-69
0
LINE
8
BLACK
6
CONTINUOUS
10
147
20
-69
11
147
21
-67
0
LINE
8
BLACK
6
CONTINUOUS
10
147
20
-67
11
148.2
21
-67
0
LINE
8
BLACK
6
CONTINUOUS
10
148.2
20
-67
11
148.2
21
-69
  0
ENDSEC
  0
EOF
