M48
;DRILL file {KiCad (2017-11-09 revision 610ff7485)-makepkg} date Wed Nov 15 00:14:20 2017
;FORMAT={-:-/ absolute / inch / decimal}
FMAT,2
INCH,TZ
T1C0.020
T2C0.126
%
G90
G05
M72
T1
X6.2047Y-2.7559
X6.2324Y-2.6891
X6.2324Y-2.8227
X6.2992Y-2.6614
X6.2992Y-2.8504
X6.366Y-2.6891
X6.366Y-2.8227
X6.3937Y-2.7559
X4.6299Y-2.7559
X4.6576Y-2.6891
X4.6576Y-2.8227
X4.7244Y-2.6614
X4.7244Y-2.8504
X4.7912Y-2.6891
X4.7912Y-2.8227
X4.8189Y-2.7559
X6.2047Y-4.3268
X6.2324Y-4.26
X6.2324Y-4.3936
X6.2992Y-4.2323
X6.2992Y-4.4213
X6.366Y-4.26
X6.366Y-4.3936
X6.3937Y-4.3268
X4.6299Y-4.3307
X4.6576Y-4.2639
X4.6576Y-4.3975
X4.7244Y-4.2362
X4.7244Y-4.4252
X4.7912Y-4.2639
X4.7912Y-4.3975
X4.8189Y-4.3307
T2
X6.2992Y-2.7559
X4.7244Y-2.7559
X6.2992Y-4.3268
X4.7244Y-4.3307
T0
M30
