G04 #@! TF.GenerationSoftware,KiCad,Pcbnew,(2017-11-09 revision 610ff7485)-makepkg*
G04 #@! TF.CreationDate,2017-11-15T00:13:43-05:00*
G04 #@! TF.ProjectId,photometric-leds,70686F746F6D65747269632D6C656473,rev?*
G04 #@! TF.SameCoordinates,Original*
G04 #@! TF.FileFunction,Copper,L1,Top,Signal*
G04 #@! TF.FilePolarity,Positive*
%FSLAX46Y46*%
G04 Gerber Fmt 4.6, Leading zero omitted, Abs format (unit mm)*
G04 Created by KiCad (PCBNEW (2017-11-09 revision 610ff7485)-makepkg) date Wed Nov 15 00:13:43 2017*
%MOMM*%
%LPD*%
G01*
G04 APERTURE LIST*
%ADD10R,1.500000X0.600000*%
%ADD11R,1.250000X1.500000*%
%ADD12R,1.500000X1.250000*%
%ADD13R,1.600000X1.250000*%
%ADD14R,3.300000X0.500000*%
%ADD15R,3.300000X1.300000*%
%ADD16R,2.700000X2.500000*%
%ADD17R,2.700000X1.400000*%
%ADD18R,1.600000X0.650000*%
%ADD19R,1.000000X3.150000*%
%ADD20R,1.300000X1.500000*%
%ADD21R,1.500000X1.300000*%
%ADD22R,1.560000X0.650000*%
%ADD23C,6.400000*%
%ADD24C,0.800000*%
%ADD25R,1.200000X2.000000*%
%ADD26C,0.250000*%
%ADD27C,0.200000*%
%ADD28C,0.254000*%
G04 APERTURE END LIST*
D10*
X156800000Y-104310000D03*
X156800000Y-103040000D03*
X156800000Y-101770000D03*
X156800000Y-100500000D03*
X156800000Y-99230000D03*
X156800000Y-97960000D03*
X156800000Y-96690000D03*
X162200000Y-96690000D03*
X162200000Y-97960000D03*
X162200000Y-99230000D03*
X162200000Y-100500000D03*
X162200000Y-101770000D03*
X162200000Y-103040000D03*
X162200000Y-104310000D03*
D11*
X160750000Y-79000000D03*
X160750000Y-76500000D03*
X158750000Y-76500000D03*
X158750000Y-79000000D03*
X152000000Y-101750000D03*
X152000000Y-99250000D03*
X152000000Y-96750000D03*
X152000000Y-94250000D03*
X152000000Y-89250000D03*
X152000000Y-91750000D03*
X152000000Y-86750000D03*
X152000000Y-84250000D03*
X152000000Y-79250000D03*
X152000000Y-81750000D03*
D12*
X138250000Y-101000000D03*
X140750000Y-101000000D03*
X140750000Y-96000000D03*
X138250000Y-96000000D03*
X138250000Y-91000000D03*
X140750000Y-91000000D03*
X140750000Y-86000000D03*
X138250000Y-86000000D03*
X138250000Y-81000000D03*
X140750000Y-81000000D03*
D13*
X129000000Y-101880000D03*
X129000000Y-100120000D03*
D14*
X129000000Y-93550000D03*
X129000000Y-96450000D03*
D15*
X129000000Y-95000000D03*
D16*
X129000000Y-88900000D03*
D17*
X129000000Y-91600000D03*
D18*
X129000000Y-85000000D03*
X129000000Y-85940000D03*
X129000000Y-81000000D03*
X129000000Y-80060000D03*
D19*
X131540000Y-69475000D03*
X131540000Y-74525000D03*
X129000000Y-69475000D03*
X129000000Y-74525000D03*
X126460000Y-69475000D03*
X126460000Y-74525000D03*
D20*
X137500000Y-73350000D03*
X137500000Y-70650000D03*
X143500000Y-101350000D03*
X143500000Y-98650000D03*
D21*
X138150000Y-99000000D03*
X140850000Y-99000000D03*
D20*
X143500000Y-96350000D03*
X143500000Y-93650000D03*
D21*
X138150000Y-94000000D03*
X140850000Y-94000000D03*
D20*
X143500000Y-91350000D03*
X143500000Y-88650000D03*
D21*
X138150000Y-89000000D03*
X140850000Y-89000000D03*
D20*
X143500000Y-83650000D03*
X143500000Y-86350000D03*
D21*
X140850000Y-84000000D03*
X138150000Y-84000000D03*
D20*
X143500000Y-78650000D03*
X143500000Y-81350000D03*
D21*
X140850000Y-79000000D03*
X138150000Y-79000000D03*
X135850000Y-101000000D03*
X133150000Y-101000000D03*
X133150000Y-96000000D03*
X135850000Y-96000000D03*
X135850000Y-91000000D03*
X133150000Y-91000000D03*
X135850000Y-86000000D03*
X133150000Y-86000000D03*
X133150000Y-81000000D03*
X135850000Y-81000000D03*
D22*
X146150000Y-100950000D03*
X146150000Y-99050000D03*
X148850000Y-99050000D03*
X148850000Y-100000000D03*
X148850000Y-100950000D03*
X146150000Y-95950000D03*
X146150000Y-94050000D03*
X148850000Y-94050000D03*
X148850000Y-95000000D03*
X148850000Y-95950000D03*
X148850000Y-90950000D03*
X148850000Y-90000000D03*
X148850000Y-89050000D03*
X146150000Y-89050000D03*
X146150000Y-90950000D03*
X146150000Y-85950000D03*
X146150000Y-84050000D03*
X148850000Y-84050000D03*
X148850000Y-85000000D03*
X148850000Y-85950000D03*
X148850000Y-80950000D03*
X148850000Y-80000000D03*
X148850000Y-79050000D03*
X146150000Y-79050000D03*
X146150000Y-80950000D03*
D23*
X120000000Y-70000000D03*
D24*
X122400000Y-70000000D03*
X121697056Y-71697056D03*
X120000000Y-72400000D03*
X118302944Y-71697056D03*
X117600000Y-70000000D03*
X118302944Y-68302944D03*
X120000000Y-67600000D03*
X121697056Y-68302944D03*
X161697056Y-68302944D03*
X160000000Y-67600000D03*
X158302944Y-68302944D03*
X157600000Y-70000000D03*
X158302944Y-71697056D03*
X160000000Y-72400000D03*
X161697056Y-71697056D03*
X162400000Y-70000000D03*
D23*
X160000000Y-70000000D03*
X120000000Y-110000000D03*
D24*
X122400000Y-110000000D03*
X121697056Y-111697056D03*
X120000000Y-112400000D03*
X118302944Y-111697056D03*
X117600000Y-110000000D03*
X118302944Y-108302944D03*
X120000000Y-107600000D03*
X121697056Y-108302944D03*
X161697056Y-108202944D03*
X160000000Y-107500000D03*
X158302944Y-108202944D03*
X157600000Y-109900000D03*
X158302944Y-111597056D03*
X160000000Y-112300000D03*
X161697056Y-111597056D03*
X162400000Y-109900000D03*
D23*
X160000000Y-109900000D03*
D25*
X152680000Y-68000000D03*
X150140000Y-68000000D03*
X147600000Y-68000000D03*
X151410000Y-74000000D03*
X148870000Y-74000000D03*
X146330000Y-74000000D03*
D26*
X163500000Y-65500000D02*
X163500000Y-65000000D01*
X163525001Y-77474999D02*
X162000000Y-79000000D01*
X162000000Y-79000000D02*
X160750000Y-79000000D01*
X150140000Y-68000000D02*
X150140000Y-67600000D01*
X150140000Y-67600000D02*
X151265001Y-66474999D01*
X151265001Y-66474999D02*
X161692001Y-66474999D01*
X161692001Y-66474999D02*
X163525001Y-68307999D01*
X163525001Y-68307999D02*
X163525001Y-77474999D01*
X126000000Y-76875012D02*
X127406402Y-76875010D01*
X125513599Y-76875012D02*
X126000000Y-76875012D01*
X126000000Y-102162824D02*
X126000000Y-76875012D01*
X155082176Y-105500000D02*
X129337174Y-105499998D01*
X129337174Y-105499998D02*
X126000000Y-102162824D01*
X155417199Y-105835023D02*
X155082176Y-105500000D01*
X159707824Y-104310000D02*
X158182801Y-105835023D01*
X162200000Y-104310000D02*
X159707824Y-104310000D01*
X158182801Y-105835023D02*
X155417199Y-105835023D01*
X128174998Y-76106414D02*
X128174999Y-72689999D01*
X124299989Y-72710011D02*
X124299989Y-75661402D01*
X124299989Y-75661402D02*
X125513599Y-76875012D01*
X127406402Y-76875010D02*
X128174998Y-76106414D01*
X128614998Y-72250000D02*
X135000000Y-72250000D01*
X128174999Y-72689999D02*
X128614998Y-72250000D01*
X126460000Y-70550000D02*
X124299989Y-72710011D01*
X126460000Y-69475000D02*
X126460000Y-70550000D01*
X136600000Y-70650000D02*
X137500000Y-70650000D01*
X135000000Y-72250000D02*
X136600000Y-70650000D01*
X148636411Y-77500000D02*
X150450011Y-75686400D01*
X146290002Y-77500000D02*
X148636411Y-77500000D01*
X150450011Y-72100011D02*
X147600000Y-69250000D01*
X150450011Y-75686400D02*
X150450011Y-72100011D01*
X147600000Y-69250000D02*
X147600000Y-68000000D01*
X147255001Y-78464999D02*
X146290002Y-77500000D01*
X146290002Y-77500000D02*
X139440002Y-70650000D01*
X150140000Y-68000000D02*
X147600000Y-68000000D01*
X147820000Y-80950000D02*
X147255001Y-80385001D01*
X147255001Y-80385001D02*
X147255001Y-78464999D01*
X148850000Y-80950000D02*
X147820000Y-80950000D01*
X139440002Y-70650000D02*
X138400000Y-70650000D01*
X138400000Y-70650000D02*
X137500000Y-70650000D01*
X126460000Y-68400000D02*
X126460000Y-69475000D01*
X160750000Y-79000000D02*
X160750000Y-79125000D01*
X158750000Y-79000000D02*
X160750000Y-79000000D01*
X148850000Y-85950000D02*
X147820000Y-85950000D01*
X147744999Y-85874999D02*
X147744999Y-82630001D01*
X147820000Y-85950000D02*
X147744999Y-85874999D01*
X147744999Y-82630001D02*
X148850000Y-81525000D01*
X148850000Y-81525000D02*
X148850000Y-80950000D01*
X148850000Y-90950000D02*
X147820000Y-90950000D01*
X147820000Y-90950000D02*
X147744999Y-90874999D01*
X147744999Y-90874999D02*
X147744999Y-87630001D01*
X147744999Y-87630001D02*
X148850000Y-86525000D01*
X148850000Y-86525000D02*
X148850000Y-85950000D01*
X148850000Y-95950000D02*
X147820000Y-95950000D01*
X147820000Y-95950000D02*
X147744999Y-95874999D01*
X147744999Y-92630001D02*
X148850000Y-91525000D01*
X147744999Y-95874999D02*
X147744999Y-92630001D01*
X148850000Y-91525000D02*
X148850000Y-90950000D01*
X148850000Y-100950000D02*
X147820000Y-100950000D01*
X147820000Y-100950000D02*
X147744999Y-100874999D01*
X147744999Y-100874999D02*
X147744999Y-97630001D01*
X147744999Y-97630001D02*
X148850000Y-96525000D01*
X148850000Y-96525000D02*
X148850000Y-95950000D01*
X152000000Y-81750000D02*
X149075000Y-81750000D01*
X149075000Y-81750000D02*
X148850000Y-81525000D01*
X152000000Y-86750000D02*
X149075000Y-86750000D01*
X149075000Y-86750000D02*
X148850000Y-86525000D01*
X152000000Y-91750000D02*
X149075000Y-91750000D01*
X149075000Y-91750000D02*
X148850000Y-91525000D01*
X152000000Y-96750000D02*
X149075000Y-96750000D01*
X149075000Y-96750000D02*
X148850000Y-96525000D01*
X152000000Y-101750000D02*
X149075000Y-101750000D01*
X148850000Y-101525000D02*
X148850000Y-100950000D01*
X149075000Y-101750000D02*
X148850000Y-101525000D01*
X161000000Y-101334998D02*
X161000000Y-102205002D01*
X160000000Y-108826998D02*
X160000000Y-109900000D01*
X161000000Y-102205002D02*
X161189999Y-102395001D01*
X161189999Y-102395001D02*
X163190003Y-102395001D01*
X163190003Y-102395001D02*
X163275001Y-102479999D01*
X163275001Y-102479999D02*
X163275001Y-105551997D01*
X163275001Y-105551997D02*
X160000000Y-108826998D01*
X163275001Y-100224999D02*
X163275001Y-101060001D01*
X163625001Y-99874999D02*
X163275001Y-100224999D01*
X163275001Y-101060001D02*
X163190003Y-101144999D01*
X163190003Y-101144999D02*
X161189999Y-101144999D01*
X161189999Y-101144999D02*
X161000000Y-101334998D01*
D27*
X159000000Y-100500000D02*
X159000000Y-101000000D01*
X159000000Y-99839998D02*
X159000000Y-100500000D01*
D26*
X159000000Y-100500000D02*
X159625001Y-99874999D01*
X159625001Y-99874999D02*
X163625001Y-99874999D01*
X147705011Y-78067811D02*
X148705011Y-78067811D01*
X148705011Y-78067811D02*
X151410000Y-75362822D01*
X155673002Y-68000000D02*
X156700947Y-69027945D01*
X159027945Y-69027945D02*
X160000000Y-70000000D01*
X156700947Y-69027945D02*
X159027945Y-69027945D01*
D27*
X160750000Y-76500000D02*
X157398944Y-76500000D01*
X163110001Y-97190001D02*
X160379997Y-97190001D01*
X160379997Y-97190001D02*
X159000000Y-98569998D01*
X163150001Y-97150001D02*
X163110001Y-97190001D01*
X157374989Y-90454987D02*
X163150001Y-96229999D01*
X157374989Y-76523955D02*
X157374989Y-90454987D01*
X163150001Y-96229999D02*
X163150001Y-97150001D01*
X157398944Y-76500000D02*
X157374989Y-76523955D01*
D26*
X152680000Y-68000000D02*
X155673002Y-68000000D01*
X158673002Y-70000000D02*
X160000000Y-70000000D01*
X147705011Y-78067811D02*
X147705011Y-79885011D01*
X147705011Y-79885011D02*
X147820000Y-80000000D01*
X147820000Y-80000000D02*
X148850000Y-80000000D01*
X151410000Y-74000000D02*
X151410000Y-75362822D01*
X151410000Y-74000000D02*
X151410000Y-68420000D01*
X151410000Y-68420000D02*
X151830000Y-68000000D01*
X151830000Y-68000000D02*
X152680000Y-68000000D01*
X128478587Y-71750000D02*
X130340000Y-71750000D01*
X131540000Y-70550000D02*
X131540000Y-69475000D01*
X130340000Y-71750000D02*
X131540000Y-70550000D01*
X125634999Y-76360001D02*
X125699999Y-76425001D01*
X125699999Y-72624999D02*
X125634999Y-72689999D01*
X127724988Y-75920014D02*
X127724988Y-72503599D01*
X120000000Y-70000000D02*
X121073002Y-70000000D01*
X127220001Y-76425001D02*
X127724988Y-75920014D01*
X121073002Y-70000000D02*
X123498003Y-67574999D01*
X123498003Y-67574999D02*
X127220001Y-67574999D01*
X127220001Y-67574999D02*
X127285001Y-67639999D01*
X125634999Y-72689999D02*
X125634999Y-76360001D01*
X127285001Y-67639999D02*
X127285001Y-71214999D01*
X127285001Y-71214999D02*
X125875001Y-72624999D01*
X127724988Y-72503599D02*
X128478587Y-71750000D01*
X125875001Y-72624999D02*
X125699999Y-72624999D01*
X125699999Y-76425001D02*
X127220001Y-76425001D01*
X160750000Y-76500000D02*
X160750000Y-70750000D01*
X160750000Y-70750000D02*
X160000000Y-70000000D01*
D27*
X152865001Y-80699999D02*
X152925001Y-80759999D01*
X153524967Y-89197423D02*
X155750000Y-91422456D01*
X152000000Y-84250000D02*
X152000000Y-84375000D01*
X152499999Y-80699999D02*
X152865001Y-80699999D01*
X153524967Y-85899967D02*
X153524967Y-89197423D01*
X152925001Y-82694301D02*
X154324988Y-84094288D01*
X155879997Y-97359999D02*
X157790001Y-97359999D01*
X157790001Y-97359999D02*
X159000000Y-98569998D01*
X159000000Y-93541056D02*
X159000000Y-98569998D01*
X155750000Y-97230002D02*
X155879997Y-97359999D01*
X152000000Y-79250000D02*
X152000000Y-80200000D01*
X154324988Y-84094288D02*
X154324988Y-88866044D01*
X152000000Y-80200000D02*
X152499999Y-80699999D01*
X152925001Y-80759999D02*
X152925001Y-82694301D01*
X152000000Y-84375000D02*
X153524967Y-85899967D01*
X154324988Y-88866044D02*
X159000000Y-93541056D01*
X155750000Y-91422456D02*
X155750000Y-97230002D01*
D26*
X120000000Y-110000000D02*
X120725001Y-110725001D01*
X120725001Y-110725001D02*
X159174999Y-110725001D01*
X159174999Y-110725001D02*
X160000000Y-109900000D01*
X120000000Y-70000000D02*
X119274999Y-70725001D01*
X119274999Y-70725001D02*
X119274999Y-109274999D01*
X119274999Y-109274999D02*
X120000000Y-110000000D01*
D27*
X159000000Y-98569998D02*
X159000000Y-99839998D01*
X154149956Y-98169958D02*
X155809999Y-99830001D01*
X152000000Y-94375000D02*
X154149956Y-96524956D01*
X157830001Y-99830001D02*
X159000000Y-101000000D01*
X154949978Y-92324978D02*
X154949978Y-97699978D01*
X152000000Y-89375000D02*
X154949978Y-92324978D01*
X152000000Y-89250000D02*
X152000000Y-89375000D01*
X157790001Y-98629999D02*
X159000000Y-99839998D01*
X154149956Y-96524956D02*
X154149956Y-98169958D01*
X155809999Y-99830001D02*
X157830001Y-99830001D01*
X155879999Y-98629999D02*
X157790001Y-98629999D01*
X152000000Y-94250000D02*
X152000000Y-94375000D01*
X154949978Y-97699978D02*
X155879999Y-98629999D01*
X159000000Y-101000000D02*
X159000000Y-102560000D01*
X159000000Y-102560000D02*
X157250000Y-104310000D01*
X157250000Y-104310000D02*
X156800000Y-104310000D01*
X152000000Y-99250000D02*
X152000000Y-99375000D01*
X152000000Y-99375000D02*
X152925001Y-100300001D01*
X152925001Y-100300001D02*
X152925001Y-100885001D01*
X152925001Y-100885001D02*
X156350000Y-104310000D01*
X156350000Y-104310000D02*
X156800000Y-104310000D01*
D26*
X160850000Y-76400000D02*
X160750000Y-76500000D01*
X160750000Y-76500000D02*
X158750000Y-76500000D01*
X152000000Y-99125000D02*
X152000000Y-99250000D01*
X148850000Y-80000000D02*
X151250000Y-80000000D01*
X151250000Y-80000000D02*
X152000000Y-79250000D01*
X148850000Y-85000000D02*
X151250000Y-85000000D01*
X151250000Y-85000000D02*
X152000000Y-84250000D01*
X148850000Y-90000000D02*
X151250000Y-90000000D01*
X151250000Y-90000000D02*
X152000000Y-89250000D01*
X148850000Y-95000000D02*
X151250000Y-95000000D01*
X151250000Y-95000000D02*
X152000000Y-94250000D01*
X148850000Y-100000000D02*
X151250000Y-100000000D01*
X151250000Y-100000000D02*
X152000000Y-99250000D01*
X138250000Y-101000000D02*
X135850000Y-101000000D01*
X129000000Y-101880000D02*
X129175000Y-101880000D01*
X129175000Y-101880000D02*
X129270001Y-101975001D01*
X139649999Y-101975001D02*
X140625000Y-101000000D01*
X129270001Y-101975001D02*
X139649999Y-101975001D01*
X140625000Y-101000000D02*
X140750000Y-101000000D01*
X143500000Y-101350000D02*
X141100000Y-101350000D01*
X141100000Y-101350000D02*
X140750000Y-101000000D01*
X146150000Y-100950000D02*
X143900000Y-100950000D01*
X143900000Y-100950000D02*
X143500000Y-101350000D01*
X129000000Y-96450000D02*
X129000000Y-96950000D01*
X129000000Y-96950000D02*
X129025001Y-96975001D01*
X139649999Y-96975001D02*
X140625000Y-96000000D01*
X129025001Y-96975001D02*
X139649999Y-96975001D01*
X140625000Y-96000000D02*
X140750000Y-96000000D01*
X143500000Y-96350000D02*
X141100000Y-96350000D01*
X141100000Y-96350000D02*
X140750000Y-96000000D01*
X146150000Y-95950000D02*
X143900000Y-95950000D01*
X143900000Y-95950000D02*
X143500000Y-96350000D01*
X138250000Y-96000000D02*
X135850000Y-96000000D01*
X138250000Y-91000000D02*
X135850000Y-91000000D01*
X129000000Y-91600000D02*
X130600000Y-91600000D01*
X130600000Y-91600000D02*
X130975001Y-91975001D01*
X130975001Y-91975001D02*
X139649999Y-91975001D01*
X139649999Y-91975001D02*
X140625000Y-91000000D01*
X140625000Y-91000000D02*
X140750000Y-91000000D01*
X143500000Y-91350000D02*
X141100000Y-91350000D01*
X141100000Y-91350000D02*
X140750000Y-91000000D01*
X146150000Y-90950000D02*
X143900000Y-90950000D01*
X143900000Y-90950000D02*
X143500000Y-91350000D01*
X129000000Y-85940000D02*
X129475000Y-85940000D01*
X129475000Y-85940000D02*
X130510001Y-86975001D01*
X130510001Y-86975001D02*
X139649999Y-86975001D01*
X139649999Y-86975001D02*
X140625000Y-86000000D01*
X140625000Y-86000000D02*
X140750000Y-86000000D01*
X143500000Y-86350000D02*
X141100000Y-86350000D01*
X141100000Y-86350000D02*
X140750000Y-86000000D01*
X146150000Y-85950000D02*
X143900000Y-85950000D01*
X143900000Y-85950000D02*
X143500000Y-86350000D01*
X138250000Y-86000000D02*
X135850000Y-86000000D01*
X138250000Y-81000000D02*
X135850000Y-81000000D01*
X129000000Y-81000000D02*
X129475000Y-81000000D01*
X129475000Y-81000000D02*
X130450001Y-81975001D01*
X139649999Y-81975001D02*
X140625000Y-81000000D01*
X140625000Y-81000000D02*
X140750000Y-81000000D01*
X130450001Y-81975001D02*
X139649999Y-81975001D01*
X143500000Y-81350000D02*
X141100000Y-81350000D01*
X141100000Y-81350000D02*
X140750000Y-81000000D01*
X146150000Y-80950000D02*
X143900000Y-80950000D01*
X143900000Y-80950000D02*
X143500000Y-81350000D01*
X129000000Y-100120000D02*
X133130000Y-100120000D01*
X133130000Y-100120000D02*
X133150000Y-100100000D01*
X138150000Y-99000000D02*
X134250000Y-99000000D01*
X133150000Y-100100000D02*
X133150000Y-101000000D01*
X134250000Y-99000000D02*
X133150000Y-100100000D01*
X129000000Y-95000000D02*
X129000000Y-93550000D01*
X129000000Y-93550000D02*
X130900000Y-93550000D01*
X130900000Y-93550000D02*
X131350000Y-94000000D01*
X131350000Y-94000000D02*
X134250000Y-94000000D01*
X138150000Y-94000000D02*
X134250000Y-94000000D01*
X134250000Y-94000000D02*
X133150000Y-95100000D01*
X133150000Y-95100000D02*
X133150000Y-96000000D01*
X129000000Y-88900000D02*
X130600000Y-88900000D01*
X130600000Y-88900000D02*
X131800000Y-90100000D01*
X131800000Y-90100000D02*
X133150000Y-90100000D01*
X138150000Y-89000000D02*
X134250000Y-89000000D01*
X134250000Y-89000000D02*
X133150000Y-90100000D01*
X133150000Y-90100000D02*
X133150000Y-91000000D01*
X129000000Y-85000000D02*
X133050000Y-85000000D01*
X133050000Y-85000000D02*
X133150000Y-85100000D01*
X138150000Y-84000000D02*
X134250000Y-84000000D01*
X133150000Y-85100000D02*
X133150000Y-86000000D01*
X134250000Y-84000000D02*
X133150000Y-85100000D01*
X129000000Y-80060000D02*
X133110000Y-80060000D01*
X133110000Y-80060000D02*
X133150000Y-80100000D01*
X138150000Y-79000000D02*
X134250000Y-79000000D01*
X134250000Y-79000000D02*
X133150000Y-80100000D01*
X133150000Y-80100000D02*
X133150000Y-81000000D01*
X129709975Y-104599977D02*
X155454975Y-104599977D01*
X160549989Y-102195013D02*
X160549989Y-101148598D01*
X161198587Y-100500000D02*
X161200000Y-100500000D01*
X160549989Y-101148598D02*
X161198587Y-100500000D01*
X157810001Y-104935001D02*
X160549989Y-102195013D01*
X137500000Y-73350000D02*
X133999998Y-73350000D01*
X161200000Y-100500000D02*
X162200000Y-100500000D01*
X155454975Y-104599977D02*
X155789999Y-104935001D01*
X155789999Y-104935001D02*
X157810001Y-104935001D01*
X127024999Y-101915001D02*
X129709975Y-104599977D01*
X127024999Y-80324999D02*
X127024999Y-101915001D01*
X133999998Y-73350000D02*
X127024999Y-80324999D01*
X137500000Y-73350000D02*
X132715000Y-73350000D01*
X132715000Y-73350000D02*
X131540000Y-74525000D01*
X126500000Y-78417823D02*
X128625008Y-76292813D01*
X155268576Y-105049988D02*
X129523575Y-105049987D01*
X157996401Y-105385012D02*
X155603600Y-105385012D01*
X128625008Y-76292813D02*
X128625009Y-74899991D01*
X162200000Y-103040000D02*
X160341413Y-103040000D01*
X128625009Y-74899991D02*
X129000000Y-74525000D01*
X155603600Y-105385012D02*
X155268576Y-105049988D01*
X129523575Y-105049987D02*
X126500000Y-102026413D01*
X160341413Y-103040000D02*
X157996401Y-105385012D01*
X126500000Y-102026413D02*
X126500000Y-78417823D01*
X164850020Y-94748964D02*
X164000000Y-93898944D01*
X162200000Y-101770000D02*
X163201413Y-101770000D01*
X164425023Y-67935199D02*
X162064806Y-65574982D01*
X162064806Y-65574982D02*
X146845016Y-65574982D01*
X164425023Y-77847799D02*
X164425023Y-67935199D01*
X164000000Y-78272821D02*
X164425023Y-77847799D01*
X164000000Y-93898944D02*
X164000000Y-78272821D01*
X146845016Y-65574982D02*
X143844999Y-68574999D01*
X164850020Y-100121393D02*
X164850020Y-94748964D01*
X163201413Y-101770000D02*
X164850020Y-100121393D01*
X143844999Y-68574999D02*
X142000000Y-68574999D01*
X142000000Y-68574999D02*
X141000000Y-67574999D01*
X143844999Y-68574999D02*
X148870000Y-73600000D01*
X148870000Y-73600000D02*
X148870000Y-74000000D01*
X128239999Y-67574999D02*
X141000000Y-67574999D01*
X126460000Y-74525000D02*
X126460000Y-72700000D01*
X126460000Y-72700000D02*
X128174999Y-70985001D01*
X128174999Y-70985001D02*
X128174999Y-67639999D01*
X128174999Y-67639999D02*
X128239999Y-67574999D01*
X163500000Y-97660000D02*
X163200000Y-97960000D01*
X163975012Y-68121599D02*
X163975012Y-77661399D01*
X157800000Y-83836411D02*
X157800000Y-90278942D01*
X163575011Y-97326047D02*
X163500000Y-97401058D01*
X157800000Y-90278942D02*
X163575012Y-96053954D01*
X163575012Y-96053954D02*
X163575011Y-97326047D01*
X163200000Y-97960000D02*
X162200000Y-97960000D01*
X163500000Y-97401058D02*
X163500000Y-97660000D01*
X161878401Y-66024988D02*
X163975012Y-68121599D01*
X147390010Y-66024988D02*
X161878401Y-66024988D01*
X163975012Y-77661399D02*
X157800000Y-83836411D01*
X146674999Y-66739999D02*
X147390010Y-66024988D01*
X146674999Y-66739999D02*
X146739999Y-66674999D01*
X146674999Y-69260001D02*
X146674999Y-66739999D01*
X149795001Y-72380003D02*
X146674999Y-69260001D01*
X146330000Y-74400000D02*
X147255001Y-75325001D01*
X146330000Y-74000000D02*
X146330000Y-74400000D01*
X149795001Y-75260001D02*
X149795001Y-72380003D01*
X147255001Y-75325001D02*
X149730001Y-75325001D01*
X149730001Y-75325001D02*
X149795001Y-75260001D01*
X143500000Y-98650000D02*
X141200000Y-98650000D01*
X141200000Y-98650000D02*
X140850000Y-99000000D01*
X146150000Y-99050000D02*
X143900000Y-99050000D01*
X143900000Y-99050000D02*
X143500000Y-98650000D01*
X143500000Y-93650000D02*
X141200000Y-93650000D01*
X141200000Y-93650000D02*
X140850000Y-94000000D01*
X146150000Y-94050000D02*
X143900000Y-94050000D01*
X143900000Y-94050000D02*
X143500000Y-93650000D01*
X143500000Y-88650000D02*
X141200000Y-88650000D01*
X141200000Y-88650000D02*
X140850000Y-89000000D01*
X146150000Y-89050000D02*
X143900000Y-89050000D01*
X143900000Y-89050000D02*
X143500000Y-88650000D01*
X143500000Y-83650000D02*
X141200000Y-83650000D01*
X141200000Y-83650000D02*
X140850000Y-84000000D01*
X146150000Y-84050000D02*
X143900000Y-84050000D01*
X143900000Y-84050000D02*
X143500000Y-83650000D01*
X143500000Y-78650000D02*
X141200000Y-78650000D01*
X141200000Y-78650000D02*
X140850000Y-79000000D01*
X146150000Y-79050000D02*
X143900000Y-79050000D01*
X143900000Y-79050000D02*
X143500000Y-78650000D01*
D27*
X148850000Y-99050000D02*
X149305000Y-99050000D01*
X155850000Y-100500000D02*
X156800000Y-100500000D01*
X150155001Y-98199999D02*
X153549999Y-98199999D01*
X153549999Y-98199999D02*
X155850000Y-100500000D01*
X149305000Y-99050000D02*
X150155001Y-98199999D01*
X150155001Y-93199999D02*
X152865001Y-93199999D01*
X152865001Y-93199999D02*
X154549967Y-94884965D01*
X155850000Y-99230000D02*
X156800000Y-99230000D01*
X154549967Y-94884965D02*
X154549967Y-97929967D01*
X149305000Y-94050000D02*
X150155001Y-93199999D01*
X154549967Y-97929967D02*
X155850000Y-99230000D01*
X148850000Y-94050000D02*
X149305000Y-94050000D01*
X152865001Y-88199999D02*
X153124956Y-88459954D01*
X153124956Y-88459954D02*
X153124956Y-89363112D01*
X155349989Y-97459989D02*
X155850000Y-97960000D01*
X153124956Y-89363112D02*
X155349989Y-91588145D01*
X149830000Y-89050000D02*
X150680001Y-88199999D01*
X150680001Y-88199999D02*
X152865001Y-88199999D01*
X148850000Y-89050000D02*
X149830000Y-89050000D01*
X155349989Y-91588145D02*
X155349989Y-97459989D01*
X155850000Y-97960000D02*
X156800000Y-97960000D01*
X148850000Y-84050000D02*
X149830000Y-84050000D01*
X150680001Y-83199999D02*
X152865000Y-83199999D01*
X153924978Y-84259977D02*
X153924978Y-89031734D01*
X149830000Y-84050000D02*
X150680001Y-83199999D01*
X153924978Y-89031734D02*
X156800000Y-91906756D01*
X156800000Y-96190000D02*
X156800000Y-96690000D01*
X152865000Y-83199999D02*
X153924978Y-84259977D01*
X156800000Y-91906756D02*
X156800000Y-96190000D01*
D26*
X152885001Y-78174999D02*
X151114999Y-78174999D01*
X162200000Y-96690000D02*
X162200000Y-96140000D01*
X149880000Y-79050000D02*
X148850000Y-79050000D01*
X154749998Y-80039996D02*
X152885001Y-78174999D01*
X162200000Y-96140000D02*
X154749998Y-88689998D01*
X154749998Y-88689998D02*
X154749998Y-80039996D01*
X151114999Y-78174999D02*
X150239998Y-79050000D01*
X150239998Y-79050000D02*
X149880000Y-79050000D01*
D28*
G36*
X143530197Y-67814999D02*
X142314802Y-67814999D01*
X141537401Y-67037598D01*
X141483145Y-66993031D01*
X141429375Y-66947913D01*
X141425874Y-66945988D01*
X141422785Y-66943451D01*
X141360933Y-66910286D01*
X141299396Y-66876456D01*
X141295584Y-66875247D01*
X141292065Y-66873360D01*
X141224969Y-66852847D01*
X141158013Y-66831607D01*
X141154041Y-66831161D01*
X141150219Y-66829993D01*
X141080351Y-66822896D01*
X141010611Y-66815073D01*
X141002806Y-66815019D01*
X141002653Y-66815003D01*
X141002510Y-66815017D01*
X141000000Y-66814999D01*
X128239999Y-66814999D01*
X128170118Y-66821851D01*
X128100196Y-66827968D01*
X128096358Y-66829083D01*
X128092381Y-66829473D01*
X128025211Y-66849753D01*
X127957760Y-66869349D01*
X127954209Y-66871190D01*
X127950386Y-66872344D01*
X127888425Y-66905289D01*
X127826074Y-66937609D01*
X127822951Y-66940102D01*
X127819421Y-66941979D01*
X127765012Y-66986354D01*
X127710153Y-67030147D01*
X127704593Y-67035630D01*
X127704477Y-67035725D01*
X127704388Y-67035833D01*
X127702598Y-67037598D01*
X127637598Y-67102598D01*
X127593031Y-67156854D01*
X127547913Y-67210624D01*
X127545988Y-67214125D01*
X127543451Y-67217214D01*
X127510286Y-67279066D01*
X127476456Y-67340603D01*
X127475247Y-67344415D01*
X127473360Y-67347934D01*
X127452847Y-67415030D01*
X127433503Y-67476009D01*
X127411185Y-67448815D01*
X127314494Y-67369463D01*
X127204180Y-67310498D01*
X127084482Y-67274188D01*
X126960000Y-67261928D01*
X125960000Y-67261928D01*
X125835518Y-67274188D01*
X125715820Y-67310498D01*
X125605506Y-67369463D01*
X125508815Y-67448815D01*
X125429463Y-67545506D01*
X125370498Y-67655820D01*
X125334188Y-67775518D01*
X125321928Y-67900000D01*
X125321928Y-70613270D01*
X123762588Y-72172610D01*
X123718021Y-72226866D01*
X123672903Y-72280636D01*
X123670978Y-72284137D01*
X123668441Y-72287226D01*
X123635276Y-72349078D01*
X123601446Y-72410615D01*
X123600237Y-72414427D01*
X123598350Y-72417946D01*
X123577837Y-72485042D01*
X123556597Y-72551998D01*
X123556151Y-72555970D01*
X123554983Y-72559792D01*
X123547886Y-72629660D01*
X123540063Y-72699400D01*
X123540009Y-72707205D01*
X123539993Y-72707358D01*
X123540007Y-72707501D01*
X123539989Y-72710011D01*
X123539989Y-75661402D01*
X123546840Y-75731279D01*
X123552958Y-75801205D01*
X123554073Y-75805043D01*
X123554463Y-75809020D01*
X123574753Y-75876223D01*
X123594340Y-75943642D01*
X123596179Y-75947190D01*
X123597334Y-75951015D01*
X123630288Y-76012993D01*
X123662599Y-76075327D01*
X123665092Y-76078450D01*
X123666969Y-76081980D01*
X123711344Y-76136389D01*
X123755137Y-76191248D01*
X123760620Y-76196808D01*
X123760715Y-76196924D01*
X123760823Y-76197013D01*
X123762588Y-76198803D01*
X124976198Y-77412413D01*
X125030454Y-77456980D01*
X125084224Y-77502098D01*
X125087725Y-77504023D01*
X125090814Y-77506560D01*
X125152701Y-77539744D01*
X125214203Y-77573555D01*
X125218011Y-77574763D01*
X125221534Y-77576652D01*
X125240000Y-77582298D01*
X125240000Y-102162824D01*
X125246851Y-102232701D01*
X125252969Y-102302627D01*
X125254084Y-102306465D01*
X125254474Y-102310442D01*
X125274764Y-102377645D01*
X125294351Y-102445064D01*
X125296190Y-102448612D01*
X125297345Y-102452437D01*
X125330299Y-102514415D01*
X125362610Y-102576749D01*
X125365103Y-102579872D01*
X125366980Y-102583402D01*
X125411355Y-102637811D01*
X125455148Y-102692670D01*
X125460631Y-102698230D01*
X125460726Y-102698346D01*
X125460834Y-102698435D01*
X125462599Y-102700225D01*
X128799773Y-106037399D01*
X128854029Y-106081966D01*
X128907799Y-106127084D01*
X128911300Y-106129009D01*
X128914389Y-106131546D01*
X128976276Y-106164730D01*
X129037778Y-106198541D01*
X129041586Y-106199749D01*
X129045109Y-106201638D01*
X129112251Y-106222165D01*
X129179161Y-106243390D01*
X129183133Y-106243836D01*
X129186955Y-106245004D01*
X129256823Y-106252101D01*
X129326563Y-106259924D01*
X129334368Y-106259978D01*
X129334521Y-106259994D01*
X129334664Y-106259980D01*
X129337174Y-106259998D01*
X154767374Y-106260000D01*
X154879798Y-106372424D01*
X154934054Y-106416991D01*
X154987824Y-106462109D01*
X154991325Y-106464034D01*
X154994414Y-106466571D01*
X155056266Y-106499736D01*
X155117803Y-106533566D01*
X155121615Y-106534775D01*
X155125134Y-106536662D01*
X155192230Y-106557175D01*
X155259186Y-106578415D01*
X155263158Y-106578861D01*
X155266980Y-106580029D01*
X155336804Y-106587121D01*
X155406588Y-106594949D01*
X155414403Y-106595004D01*
X155414546Y-106595018D01*
X155414679Y-106595005D01*
X155417199Y-106595023D01*
X158045396Y-106595023D01*
X157879330Y-106682445D01*
X157838912Y-106709452D01*
X157478724Y-107199119D01*
X157663819Y-107384214D01*
X157651271Y-107392426D01*
X157506252Y-107534440D01*
X157485355Y-107564960D01*
X157299119Y-107378724D01*
X156809452Y-107738912D01*
X156449151Y-108402882D01*
X156225306Y-109124385D01*
X156146520Y-109875695D01*
X156215822Y-110627938D01*
X156430548Y-111352208D01*
X156782445Y-112020670D01*
X156809452Y-112061088D01*
X157299119Y-112421276D01*
X157483760Y-112236635D01*
X157487897Y-112243055D01*
X157628894Y-112389062D01*
X157665265Y-112414340D01*
X157478724Y-112600881D01*
X157838912Y-113090548D01*
X158502882Y-113450849D01*
X159224385Y-113674694D01*
X159975695Y-113753480D01*
X160727938Y-113684178D01*
X161452208Y-113469452D01*
X162120670Y-113117555D01*
X162161088Y-113090548D01*
X162521276Y-112600881D01*
X162337128Y-112416733D01*
X162337349Y-112416593D01*
X162484337Y-112276619D01*
X162514072Y-112234467D01*
X162700881Y-112421276D01*
X163190548Y-112061088D01*
X163550849Y-111397118D01*
X163774694Y-110675615D01*
X163853480Y-109924305D01*
X163784178Y-109172062D01*
X163569452Y-108447792D01*
X163217555Y-107779330D01*
X163190548Y-107738912D01*
X162700881Y-107378724D01*
X162515368Y-107564237D01*
X162503004Y-107545628D01*
X162359982Y-107401604D01*
X162335383Y-107385012D01*
X162521276Y-107199119D01*
X162161088Y-106709452D01*
X161497118Y-106349151D01*
X160775615Y-106125306D01*
X160024305Y-106046520D01*
X159272062Y-106115822D01*
X158852380Y-106240246D01*
X160022626Y-105070000D01*
X161009556Y-105070000D01*
X161095506Y-105140537D01*
X161205820Y-105199502D01*
X161325518Y-105235812D01*
X161450000Y-105248072D01*
X162950000Y-105248072D01*
X163074482Y-105235812D01*
X163194180Y-105199502D01*
X163304494Y-105140537D01*
X163401185Y-105061185D01*
X163480537Y-104964494D01*
X163539502Y-104854180D01*
X163575812Y-104734482D01*
X163588072Y-104610000D01*
X163588072Y-104010000D01*
X163575812Y-103885518D01*
X163539502Y-103765820D01*
X163490957Y-103675000D01*
X163539502Y-103584180D01*
X163575812Y-103464482D01*
X163588072Y-103340000D01*
X163588072Y-102740000D01*
X163575812Y-102615518D01*
X163539502Y-102495820D01*
X163519132Y-102457711D01*
X163553004Y-102439701D01*
X163615338Y-102407390D01*
X163618461Y-102404897D01*
X163621991Y-102403020D01*
X163676400Y-102358645D01*
X163731259Y-102314852D01*
X163736819Y-102309369D01*
X163736935Y-102309274D01*
X163737024Y-102309166D01*
X163738814Y-102307401D01*
X164290000Y-101756215D01*
X164290000Y-109822006D01*
X164269581Y-109918071D01*
X164268508Y-109928277D01*
X164180317Y-110827722D01*
X163939929Y-111623923D01*
X163549474Y-112358263D01*
X163023820Y-113002780D01*
X162382988Y-113532922D01*
X161651388Y-113928497D01*
X160856890Y-114174435D01*
X159958078Y-114268904D01*
X159957137Y-114269097D01*
X159854719Y-114279501D01*
X159820379Y-114290000D01*
X120177994Y-114290000D01*
X120081929Y-114269581D01*
X120071723Y-114268508D01*
X119172278Y-114180317D01*
X118376077Y-113939929D01*
X117641737Y-113549474D01*
X116997220Y-113023820D01*
X116467078Y-112382988D01*
X116071503Y-111651388D01*
X115825565Y-110856890D01*
X115732948Y-109975695D01*
X116146520Y-109975695D01*
X116215822Y-110727938D01*
X116430548Y-111452208D01*
X116782445Y-112120670D01*
X116809452Y-112161088D01*
X117299119Y-112521276D01*
X117483760Y-112336635D01*
X117487897Y-112343055D01*
X117628894Y-112489062D01*
X117665265Y-112514340D01*
X117478724Y-112700881D01*
X117838912Y-113190548D01*
X118502882Y-113550849D01*
X119224385Y-113774694D01*
X119975695Y-113853480D01*
X120727938Y-113784178D01*
X121452208Y-113569452D01*
X122120670Y-113217555D01*
X122161088Y-113190548D01*
X122521276Y-112700881D01*
X122337128Y-112516733D01*
X122337349Y-112516593D01*
X122484337Y-112376619D01*
X122514072Y-112334467D01*
X122700881Y-112521276D01*
X123190548Y-112161088D01*
X123550849Y-111497118D01*
X123774694Y-110775615D01*
X123853480Y-110024305D01*
X123784178Y-109272062D01*
X123569452Y-108547792D01*
X123217555Y-107879330D01*
X123190548Y-107838912D01*
X122700881Y-107478724D01*
X122515368Y-107664237D01*
X122503004Y-107645628D01*
X122359982Y-107501604D01*
X122335383Y-107485012D01*
X122521276Y-107299119D01*
X122161088Y-106809452D01*
X121497118Y-106449151D01*
X120775615Y-106225306D01*
X120024305Y-106146520D01*
X119272062Y-106215822D01*
X118547792Y-106430548D01*
X117879330Y-106782445D01*
X117838912Y-106809452D01*
X117478724Y-107299119D01*
X117663819Y-107484214D01*
X117651271Y-107492426D01*
X117506252Y-107634440D01*
X117485355Y-107664960D01*
X117299119Y-107478724D01*
X116809452Y-107838912D01*
X116449151Y-108502882D01*
X116225306Y-109224385D01*
X116146520Y-109975695D01*
X115732948Y-109975695D01*
X115731096Y-109958078D01*
X115730903Y-109957137D01*
X115720499Y-109854719D01*
X115710000Y-109820379D01*
X115710000Y-70177994D01*
X115730419Y-70081929D01*
X115731492Y-70071723D01*
X115740907Y-69975695D01*
X116146520Y-69975695D01*
X116215822Y-70727938D01*
X116430548Y-71452208D01*
X116782445Y-72120670D01*
X116809452Y-72161088D01*
X117299119Y-72521276D01*
X117483760Y-72336635D01*
X117487897Y-72343055D01*
X117628894Y-72489062D01*
X117665265Y-72514340D01*
X117478724Y-72700881D01*
X117838912Y-73190548D01*
X118502882Y-73550849D01*
X119224385Y-73774694D01*
X119975695Y-73853480D01*
X120727938Y-73784178D01*
X121452208Y-73569452D01*
X122120670Y-73217555D01*
X122161088Y-73190548D01*
X122521276Y-72700881D01*
X122337128Y-72516733D01*
X122337349Y-72516593D01*
X122484337Y-72376619D01*
X122514072Y-72334467D01*
X122700881Y-72521276D01*
X123190548Y-72161088D01*
X123550849Y-71497118D01*
X123774694Y-70775615D01*
X123853480Y-70024305D01*
X123784178Y-69272062D01*
X123569452Y-68547792D01*
X123217555Y-67879330D01*
X123190548Y-67838912D01*
X122700881Y-67478724D01*
X122515368Y-67664237D01*
X122503004Y-67645628D01*
X122359982Y-67501604D01*
X122335383Y-67485012D01*
X122521276Y-67299119D01*
X122161088Y-66809452D01*
X121497118Y-66449151D01*
X120775615Y-66225306D01*
X120024305Y-66146520D01*
X119272062Y-66215822D01*
X118547792Y-66430548D01*
X117879330Y-66782445D01*
X117838912Y-66809452D01*
X117478724Y-67299119D01*
X117663819Y-67484214D01*
X117651271Y-67492426D01*
X117506252Y-67634440D01*
X117485355Y-67664960D01*
X117299119Y-67478724D01*
X116809452Y-67838912D01*
X116449151Y-68502882D01*
X116225306Y-69224385D01*
X116146520Y-69975695D01*
X115740907Y-69975695D01*
X115819683Y-69172278D01*
X116060071Y-68376075D01*
X116450527Y-67641734D01*
X116976182Y-66997219D01*
X117617012Y-66467078D01*
X118348610Y-66071504D01*
X119143112Y-65825565D01*
X120041923Y-65731096D01*
X120042865Y-65730903D01*
X120145281Y-65720499D01*
X120179621Y-65710000D01*
X145635196Y-65710000D01*
X143530197Y-67814999D01*
X143530197Y-67814999D01*
G37*
X143530197Y-67814999D02*
X142314802Y-67814999D01*
X141537401Y-67037598D01*
X141483145Y-66993031D01*
X141429375Y-66947913D01*
X141425874Y-66945988D01*
X141422785Y-66943451D01*
X141360933Y-66910286D01*
X141299396Y-66876456D01*
X141295584Y-66875247D01*
X141292065Y-66873360D01*
X141224969Y-66852847D01*
X141158013Y-66831607D01*
X141154041Y-66831161D01*
X141150219Y-66829993D01*
X141080351Y-66822896D01*
X141010611Y-66815073D01*
X141002806Y-66815019D01*
X141002653Y-66815003D01*
X141002510Y-66815017D01*
X141000000Y-66814999D01*
X128239999Y-66814999D01*
X128170118Y-66821851D01*
X128100196Y-66827968D01*
X128096358Y-66829083D01*
X128092381Y-66829473D01*
X128025211Y-66849753D01*
X127957760Y-66869349D01*
X127954209Y-66871190D01*
X127950386Y-66872344D01*
X127888425Y-66905289D01*
X127826074Y-66937609D01*
X127822951Y-66940102D01*
X127819421Y-66941979D01*
X127765012Y-66986354D01*
X127710153Y-67030147D01*
X127704593Y-67035630D01*
X127704477Y-67035725D01*
X127704388Y-67035833D01*
X127702598Y-67037598D01*
X127637598Y-67102598D01*
X127593031Y-67156854D01*
X127547913Y-67210624D01*
X127545988Y-67214125D01*
X127543451Y-67217214D01*
X127510286Y-67279066D01*
X127476456Y-67340603D01*
X127475247Y-67344415D01*
X127473360Y-67347934D01*
X127452847Y-67415030D01*
X127433503Y-67476009D01*
X127411185Y-67448815D01*
X127314494Y-67369463D01*
X127204180Y-67310498D01*
X127084482Y-67274188D01*
X126960000Y-67261928D01*
X125960000Y-67261928D01*
X125835518Y-67274188D01*
X125715820Y-67310498D01*
X125605506Y-67369463D01*
X125508815Y-67448815D01*
X125429463Y-67545506D01*
X125370498Y-67655820D01*
X125334188Y-67775518D01*
X125321928Y-67900000D01*
X125321928Y-70613270D01*
X123762588Y-72172610D01*
X123718021Y-72226866D01*
X123672903Y-72280636D01*
X123670978Y-72284137D01*
X123668441Y-72287226D01*
X123635276Y-72349078D01*
X123601446Y-72410615D01*
X123600237Y-72414427D01*
X123598350Y-72417946D01*
X123577837Y-72485042D01*
X123556597Y-72551998D01*
X123556151Y-72555970D01*
X123554983Y-72559792D01*
X123547886Y-72629660D01*
X123540063Y-72699400D01*
X123540009Y-72707205D01*
X123539993Y-72707358D01*
X123540007Y-72707501D01*
X123539989Y-72710011D01*
X123539989Y-75661402D01*
X123546840Y-75731279D01*
X123552958Y-75801205D01*
X123554073Y-75805043D01*
X123554463Y-75809020D01*
X123574753Y-75876223D01*
X123594340Y-75943642D01*
X123596179Y-75947190D01*
X123597334Y-75951015D01*
X123630288Y-76012993D01*
X123662599Y-76075327D01*
X123665092Y-76078450D01*
X123666969Y-76081980D01*
X123711344Y-76136389D01*
X123755137Y-76191248D01*
X123760620Y-76196808D01*
X123760715Y-76196924D01*
X123760823Y-76197013D01*
X123762588Y-76198803D01*
X124976198Y-77412413D01*
X125030454Y-77456980D01*
X125084224Y-77502098D01*
X125087725Y-77504023D01*
X125090814Y-77506560D01*
X125152701Y-77539744D01*
X125214203Y-77573555D01*
X125218011Y-77574763D01*
X125221534Y-77576652D01*
X125240000Y-77582298D01*
X125240000Y-102162824D01*
X125246851Y-102232701D01*
X125252969Y-102302627D01*
X125254084Y-102306465D01*
X125254474Y-102310442D01*
X125274764Y-102377645D01*
X125294351Y-102445064D01*
X125296190Y-102448612D01*
X125297345Y-102452437D01*
X125330299Y-102514415D01*
X125362610Y-102576749D01*
X125365103Y-102579872D01*
X125366980Y-102583402D01*
X125411355Y-102637811D01*
X125455148Y-102692670D01*
X125460631Y-102698230D01*
X125460726Y-102698346D01*
X125460834Y-102698435D01*
X125462599Y-102700225D01*
X128799773Y-106037399D01*
X128854029Y-106081966D01*
X128907799Y-106127084D01*
X128911300Y-106129009D01*
X128914389Y-106131546D01*
X128976276Y-106164730D01*
X129037778Y-106198541D01*
X129041586Y-106199749D01*
X129045109Y-106201638D01*
X129112251Y-106222165D01*
X129179161Y-106243390D01*
X129183133Y-106243836D01*
X129186955Y-106245004D01*
X129256823Y-106252101D01*
X129326563Y-106259924D01*
X129334368Y-106259978D01*
X129334521Y-106259994D01*
X129334664Y-106259980D01*
X129337174Y-106259998D01*
X154767374Y-106260000D01*
X154879798Y-106372424D01*
X154934054Y-106416991D01*
X154987824Y-106462109D01*
X154991325Y-106464034D01*
X154994414Y-106466571D01*
X155056266Y-106499736D01*
X155117803Y-106533566D01*
X155121615Y-106534775D01*
X155125134Y-106536662D01*
X155192230Y-106557175D01*
X155259186Y-106578415D01*
X155263158Y-106578861D01*
X155266980Y-106580029D01*
X155336804Y-106587121D01*
X155406588Y-106594949D01*
X155414403Y-106595004D01*
X155414546Y-106595018D01*
X155414679Y-106595005D01*
X155417199Y-106595023D01*
X158045396Y-106595023D01*
X157879330Y-106682445D01*
X157838912Y-106709452D01*
X157478724Y-107199119D01*
X157663819Y-107384214D01*
X157651271Y-107392426D01*
X157506252Y-107534440D01*
X157485355Y-107564960D01*
X157299119Y-107378724D01*
X156809452Y-107738912D01*
X156449151Y-108402882D01*
X156225306Y-109124385D01*
X156146520Y-109875695D01*
X156215822Y-110627938D01*
X156430548Y-111352208D01*
X156782445Y-112020670D01*
X156809452Y-112061088D01*
X157299119Y-112421276D01*
X157483760Y-112236635D01*
X157487897Y-112243055D01*
X157628894Y-112389062D01*
X157665265Y-112414340D01*
X157478724Y-112600881D01*
X157838912Y-113090548D01*
X158502882Y-113450849D01*
X159224385Y-113674694D01*
X159975695Y-113753480D01*
X160727938Y-113684178D01*
X161452208Y-113469452D01*
X162120670Y-113117555D01*
X162161088Y-113090548D01*
X162521276Y-112600881D01*
X162337128Y-112416733D01*
X162337349Y-112416593D01*
X162484337Y-112276619D01*
X162514072Y-112234467D01*
X162700881Y-112421276D01*
X163190548Y-112061088D01*
X163550849Y-111397118D01*
X163774694Y-110675615D01*
X163853480Y-109924305D01*
X163784178Y-109172062D01*
X163569452Y-108447792D01*
X163217555Y-107779330D01*
X163190548Y-107738912D01*
X162700881Y-107378724D01*
X162515368Y-107564237D01*
X162503004Y-107545628D01*
X162359982Y-107401604D01*
X162335383Y-107385012D01*
X162521276Y-107199119D01*
X162161088Y-106709452D01*
X161497118Y-106349151D01*
X160775615Y-106125306D01*
X160024305Y-106046520D01*
X159272062Y-106115822D01*
X158852380Y-106240246D01*
X160022626Y-105070000D01*
X161009556Y-105070000D01*
X161095506Y-105140537D01*
X161205820Y-105199502D01*
X161325518Y-105235812D01*
X161450000Y-105248072D01*
X162950000Y-105248072D01*
X163074482Y-105235812D01*
X163194180Y-105199502D01*
X163304494Y-105140537D01*
X163401185Y-105061185D01*
X163480537Y-104964494D01*
X163539502Y-104854180D01*
X163575812Y-104734482D01*
X163588072Y-104610000D01*
X163588072Y-104010000D01*
X163575812Y-103885518D01*
X163539502Y-103765820D01*
X163490957Y-103675000D01*
X163539502Y-103584180D01*
X163575812Y-103464482D01*
X163588072Y-103340000D01*
X163588072Y-102740000D01*
X163575812Y-102615518D01*
X163539502Y-102495820D01*
X163519132Y-102457711D01*
X163553004Y-102439701D01*
X163615338Y-102407390D01*
X163618461Y-102404897D01*
X163621991Y-102403020D01*
X163676400Y-102358645D01*
X163731259Y-102314852D01*
X163736819Y-102309369D01*
X163736935Y-102309274D01*
X163737024Y-102309166D01*
X163738814Y-102307401D01*
X164290000Y-101756215D01*
X164290000Y-109822006D01*
X164269581Y-109918071D01*
X164268508Y-109928277D01*
X164180317Y-110827722D01*
X163939929Y-111623923D01*
X163549474Y-112358263D01*
X163023820Y-113002780D01*
X162382988Y-113532922D01*
X161651388Y-113928497D01*
X160856890Y-114174435D01*
X159958078Y-114268904D01*
X159957137Y-114269097D01*
X159854719Y-114279501D01*
X159820379Y-114290000D01*
X120177994Y-114290000D01*
X120081929Y-114269581D01*
X120071723Y-114268508D01*
X119172278Y-114180317D01*
X118376077Y-113939929D01*
X117641737Y-113549474D01*
X116997220Y-113023820D01*
X116467078Y-112382988D01*
X116071503Y-111651388D01*
X115825565Y-110856890D01*
X115732948Y-109975695D01*
X116146520Y-109975695D01*
X116215822Y-110727938D01*
X116430548Y-111452208D01*
X116782445Y-112120670D01*
X116809452Y-112161088D01*
X117299119Y-112521276D01*
X117483760Y-112336635D01*
X117487897Y-112343055D01*
X117628894Y-112489062D01*
X117665265Y-112514340D01*
X117478724Y-112700881D01*
X117838912Y-113190548D01*
X118502882Y-113550849D01*
X119224385Y-113774694D01*
X119975695Y-113853480D01*
X120727938Y-113784178D01*
X121452208Y-113569452D01*
X122120670Y-113217555D01*
X122161088Y-113190548D01*
X122521276Y-112700881D01*
X122337128Y-112516733D01*
X122337349Y-112516593D01*
X122484337Y-112376619D01*
X122514072Y-112334467D01*
X122700881Y-112521276D01*
X123190548Y-112161088D01*
X123550849Y-111497118D01*
X123774694Y-110775615D01*
X123853480Y-110024305D01*
X123784178Y-109272062D01*
X123569452Y-108547792D01*
X123217555Y-107879330D01*
X123190548Y-107838912D01*
X122700881Y-107478724D01*
X122515368Y-107664237D01*
X122503004Y-107645628D01*
X122359982Y-107501604D01*
X122335383Y-107485012D01*
X122521276Y-107299119D01*
X122161088Y-106809452D01*
X121497118Y-106449151D01*
X120775615Y-106225306D01*
X120024305Y-106146520D01*
X119272062Y-106215822D01*
X118547792Y-106430548D01*
X117879330Y-106782445D01*
X117838912Y-106809452D01*
X117478724Y-107299119D01*
X117663819Y-107484214D01*
X117651271Y-107492426D01*
X117506252Y-107634440D01*
X117485355Y-107664960D01*
X117299119Y-107478724D01*
X116809452Y-107838912D01*
X116449151Y-108502882D01*
X116225306Y-109224385D01*
X116146520Y-109975695D01*
X115732948Y-109975695D01*
X115731096Y-109958078D01*
X115730903Y-109957137D01*
X115720499Y-109854719D01*
X115710000Y-109820379D01*
X115710000Y-70177994D01*
X115730419Y-70081929D01*
X115731492Y-70071723D01*
X115740907Y-69975695D01*
X116146520Y-69975695D01*
X116215822Y-70727938D01*
X116430548Y-71452208D01*
X116782445Y-72120670D01*
X116809452Y-72161088D01*
X117299119Y-72521276D01*
X117483760Y-72336635D01*
X117487897Y-72343055D01*
X117628894Y-72489062D01*
X117665265Y-72514340D01*
X117478724Y-72700881D01*
X117838912Y-73190548D01*
X118502882Y-73550849D01*
X119224385Y-73774694D01*
X119975695Y-73853480D01*
X120727938Y-73784178D01*
X121452208Y-73569452D01*
X122120670Y-73217555D01*
X122161088Y-73190548D01*
X122521276Y-72700881D01*
X122337128Y-72516733D01*
X122337349Y-72516593D01*
X122484337Y-72376619D01*
X122514072Y-72334467D01*
X122700881Y-72521276D01*
X123190548Y-72161088D01*
X123550849Y-71497118D01*
X123774694Y-70775615D01*
X123853480Y-70024305D01*
X123784178Y-69272062D01*
X123569452Y-68547792D01*
X123217555Y-67879330D01*
X123190548Y-67838912D01*
X122700881Y-67478724D01*
X122515368Y-67664237D01*
X122503004Y-67645628D01*
X122359982Y-67501604D01*
X122335383Y-67485012D01*
X122521276Y-67299119D01*
X122161088Y-66809452D01*
X121497118Y-66449151D01*
X120775615Y-66225306D01*
X120024305Y-66146520D01*
X119272062Y-66215822D01*
X118547792Y-66430548D01*
X117879330Y-66782445D01*
X117838912Y-66809452D01*
X117478724Y-67299119D01*
X117663819Y-67484214D01*
X117651271Y-67492426D01*
X117506252Y-67634440D01*
X117485355Y-67664960D01*
X117299119Y-67478724D01*
X116809452Y-67838912D01*
X116449151Y-68502882D01*
X116225306Y-69224385D01*
X116146520Y-69975695D01*
X115740907Y-69975695D01*
X115819683Y-69172278D01*
X116060071Y-68376075D01*
X116450527Y-67641734D01*
X116976182Y-66997219D01*
X117617012Y-66467078D01*
X118348610Y-66071504D01*
X119143112Y-65825565D01*
X120041923Y-65731096D01*
X120042865Y-65730903D01*
X120145281Y-65720499D01*
X120179621Y-65710000D01*
X145635196Y-65710000D01*
X143530197Y-67814999D01*
G36*
X120000000Y-109820395D02*
X120877872Y-108942523D01*
X120882009Y-108948943D01*
X121023006Y-109094950D01*
X121059377Y-109120228D01*
X120179605Y-110000000D01*
X121057931Y-110878326D01*
X121045383Y-110886538D01*
X120900364Y-111028552D01*
X120879467Y-111059072D01*
X120000000Y-110179605D01*
X119121256Y-111058349D01*
X119108892Y-111039740D01*
X118965870Y-110895716D01*
X118941271Y-110879124D01*
X119820395Y-110000000D01*
X118943016Y-109122621D01*
X118943237Y-109122481D01*
X119090225Y-108982507D01*
X119119960Y-108940355D01*
X120000000Y-109820395D01*
X120000000Y-109820395D01*
G37*
X120000000Y-109820395D02*
X120877872Y-108942523D01*
X120882009Y-108948943D01*
X121023006Y-109094950D01*
X121059377Y-109120228D01*
X120179605Y-110000000D01*
X121057931Y-110878326D01*
X121045383Y-110886538D01*
X120900364Y-111028552D01*
X120879467Y-111059072D01*
X120000000Y-110179605D01*
X119121256Y-111058349D01*
X119108892Y-111039740D01*
X118965870Y-110895716D01*
X118941271Y-110879124D01*
X119820395Y-110000000D01*
X118943016Y-109122621D01*
X118943237Y-109122481D01*
X119090225Y-108982507D01*
X119119960Y-108940355D01*
X120000000Y-109820395D01*
G36*
X120000000Y-69820395D02*
X120877872Y-68942523D01*
X120882009Y-68948943D01*
X121023006Y-69094950D01*
X121059377Y-69120228D01*
X120179605Y-70000000D01*
X121057931Y-70878326D01*
X121045383Y-70886538D01*
X120900364Y-71028552D01*
X120879467Y-71059072D01*
X120000000Y-70179605D01*
X119121256Y-71058349D01*
X119108892Y-71039740D01*
X118965870Y-70895716D01*
X118941271Y-70879124D01*
X119820395Y-70000000D01*
X118943016Y-69122621D01*
X118943237Y-69122481D01*
X119090225Y-68982507D01*
X119119960Y-68940355D01*
X120000000Y-69820395D01*
X120000000Y-69820395D01*
G37*
X120000000Y-69820395D02*
X120877872Y-68942523D01*
X120882009Y-68948943D01*
X121023006Y-69094950D01*
X121059377Y-69120228D01*
X120179605Y-70000000D01*
X121057931Y-70878326D01*
X121045383Y-70886538D01*
X120900364Y-71028552D01*
X120879467Y-71059072D01*
X120000000Y-70179605D01*
X119121256Y-71058349D01*
X119108892Y-71039740D01*
X118965870Y-70895716D01*
X118941271Y-70879124D01*
X119820395Y-70000000D01*
X118943016Y-69122621D01*
X118943237Y-69122481D01*
X119090225Y-68982507D01*
X119119960Y-68940355D01*
X120000000Y-69820395D01*
G36*
X160000000Y-109720395D02*
X160877872Y-108842523D01*
X160882009Y-108848943D01*
X161023006Y-108994950D01*
X161059377Y-109020228D01*
X160179605Y-109900000D01*
X161057931Y-110778326D01*
X161045383Y-110786538D01*
X160900364Y-110928552D01*
X160879467Y-110959072D01*
X160000000Y-110079605D01*
X159121256Y-110958349D01*
X159108892Y-110939740D01*
X158965870Y-110795716D01*
X158941271Y-110779124D01*
X159820395Y-109900000D01*
X158943016Y-109022621D01*
X158943237Y-109022481D01*
X159090225Y-108882507D01*
X159119960Y-108840355D01*
X160000000Y-109720395D01*
X160000000Y-109720395D01*
G37*
X160000000Y-109720395D02*
X160877872Y-108842523D01*
X160882009Y-108848943D01*
X161023006Y-108994950D01*
X161059377Y-109020228D01*
X160179605Y-109900000D01*
X161057931Y-110778326D01*
X161045383Y-110786538D01*
X160900364Y-110928552D01*
X160879467Y-110959072D01*
X160000000Y-110079605D01*
X159121256Y-110958349D01*
X159108892Y-110939740D01*
X158965870Y-110795716D01*
X158941271Y-110779124D01*
X159820395Y-109900000D01*
X158943016Y-109022621D01*
X158943237Y-109022481D01*
X159090225Y-108882507D01*
X159119960Y-108840355D01*
X160000000Y-109720395D01*
G36*
X150740000Y-98964250D02*
X150898750Y-99123000D01*
X151873000Y-99123000D01*
X151873000Y-99103000D01*
X152127000Y-99103000D01*
X152127000Y-99123000D01*
X153101250Y-99123000D01*
X153260000Y-98964250D01*
X153260000Y-98949446D01*
X155330277Y-101019724D01*
X155382752Y-101062828D01*
X155434749Y-101106458D01*
X155438134Y-101108319D01*
X155441123Y-101110774D01*
X155501000Y-101142879D01*
X155503961Y-101144507D01*
X155460498Y-101225820D01*
X155424188Y-101345518D01*
X155411928Y-101470000D01*
X155411928Y-102070000D01*
X155424188Y-102194482D01*
X155460498Y-102314180D01*
X155509043Y-102405000D01*
X155460498Y-102495820D01*
X155424188Y-102615518D01*
X155411928Y-102740000D01*
X155411928Y-103340000D01*
X155424188Y-103464482D01*
X155460498Y-103584180D01*
X155509527Y-103675905D01*
X155487270Y-103709215D01*
X155439403Y-103824777D01*
X155436380Y-103839977D01*
X130024777Y-103839977D01*
X129327872Y-103143072D01*
X129800000Y-103143072D01*
X129924482Y-103130812D01*
X130044180Y-103094502D01*
X130154494Y-103035537D01*
X130251185Y-102956185D01*
X130330537Y-102859494D01*
X130389502Y-102749180D01*
X130393803Y-102735001D01*
X139649999Y-102735001D01*
X139719876Y-102728150D01*
X139789802Y-102722032D01*
X139793640Y-102720917D01*
X139797617Y-102720527D01*
X139864820Y-102700237D01*
X139932239Y-102680650D01*
X139935787Y-102678811D01*
X139939612Y-102677656D01*
X140001590Y-102644702D01*
X140063924Y-102612391D01*
X140067047Y-102609898D01*
X140070577Y-102608021D01*
X140124986Y-102563646D01*
X140179845Y-102519853D01*
X140185405Y-102514370D01*
X140185521Y-102514275D01*
X140185610Y-102514167D01*
X140187400Y-102512402D01*
X140436730Y-102263072D01*
X141500000Y-102263072D01*
X141624482Y-102250812D01*
X141744180Y-102214502D01*
X141854494Y-102155537D01*
X141909981Y-102110000D01*
X142212913Y-102110000D01*
X142224188Y-102224482D01*
X142260498Y-102344180D01*
X142319463Y-102454494D01*
X142398815Y-102551185D01*
X142495506Y-102630537D01*
X142605820Y-102689502D01*
X142725518Y-102725812D01*
X142850000Y-102738072D01*
X144150000Y-102738072D01*
X144274482Y-102725812D01*
X144394180Y-102689502D01*
X144504494Y-102630537D01*
X144601185Y-102551185D01*
X144680537Y-102454494D01*
X144739502Y-102344180D01*
X144775812Y-102224482D01*
X144788072Y-102100000D01*
X144788072Y-101710000D01*
X144905532Y-101710000D01*
X144918815Y-101726185D01*
X145015506Y-101805537D01*
X145125820Y-101864502D01*
X145245518Y-101900812D01*
X145370000Y-101913072D01*
X146930000Y-101913072D01*
X147054482Y-101900812D01*
X147174180Y-101864502D01*
X147284494Y-101805537D01*
X147381185Y-101726185D01*
X147460537Y-101629494D01*
X147466310Y-101618694D01*
X147520604Y-101648543D01*
X147524416Y-101649752D01*
X147527935Y-101651639D01*
X147567585Y-101663761D01*
X147618815Y-101726185D01*
X147715506Y-101805537D01*
X147825820Y-101864502D01*
X147945518Y-101900812D01*
X148070000Y-101913072D01*
X148199209Y-101913072D01*
X148212610Y-101938925D01*
X148215103Y-101942048D01*
X148216980Y-101945578D01*
X148261355Y-101999987D01*
X148305148Y-102054846D01*
X148310631Y-102060406D01*
X148310726Y-102060522D01*
X148310834Y-102060611D01*
X148312599Y-102062401D01*
X148537599Y-102287401D01*
X148591855Y-102331968D01*
X148645625Y-102377086D01*
X148649126Y-102379011D01*
X148652215Y-102381548D01*
X148714067Y-102414713D01*
X148775604Y-102448543D01*
X148779416Y-102449752D01*
X148782935Y-102451639D01*
X148850031Y-102472152D01*
X148916987Y-102493392D01*
X148920959Y-102493838D01*
X148924781Y-102495006D01*
X148994649Y-102502103D01*
X149064389Y-102509926D01*
X149072194Y-102509980D01*
X149072347Y-102509996D01*
X149072490Y-102509982D01*
X149075000Y-102510000D01*
X150737913Y-102510000D01*
X150749188Y-102624482D01*
X150785498Y-102744180D01*
X150844463Y-102854494D01*
X150923815Y-102951185D01*
X151020506Y-103030537D01*
X151130820Y-103089502D01*
X151250518Y-103125812D01*
X151375000Y-103138072D01*
X152625000Y-103138072D01*
X152749482Y-103125812D01*
X152869180Y-103089502D01*
X152979494Y-103030537D01*
X153076185Y-102951185D01*
X153155537Y-102854494D01*
X153214502Y-102744180D01*
X153250812Y-102624482D01*
X153263072Y-102500000D01*
X153263072Y-101000000D01*
X153250812Y-100875518D01*
X153214502Y-100755820D01*
X153155537Y-100645506D01*
X153076185Y-100548815D01*
X153018034Y-100501092D01*
X153029789Y-100493237D01*
X153118237Y-100404789D01*
X153187730Y-100300785D01*
X153235597Y-100185223D01*
X153260000Y-100062542D01*
X153260000Y-99535750D01*
X153101250Y-99377000D01*
X152127000Y-99377000D01*
X152127000Y-99397000D01*
X151873000Y-99397000D01*
X151873000Y-99377000D01*
X150898750Y-99377000D01*
X150740000Y-99535750D01*
X150740000Y-100062542D01*
X150764403Y-100185223D01*
X150812270Y-100300785D01*
X150881763Y-100404789D01*
X150970211Y-100493237D01*
X150981966Y-100501092D01*
X150923815Y-100548815D01*
X150844463Y-100645506D01*
X150785498Y-100755820D01*
X150749188Y-100875518D01*
X150737913Y-100990000D01*
X150268072Y-100990000D01*
X150268072Y-100625000D01*
X150255812Y-100500518D01*
X150247789Y-100474069D01*
X150265000Y-100387542D01*
X150265000Y-100285750D01*
X150106250Y-100127000D01*
X150024141Y-100127000D01*
X149984494Y-100094463D01*
X149874180Y-100035498D01*
X149757159Y-100000000D01*
X149874180Y-99964502D01*
X149984494Y-99905537D01*
X150024141Y-99873000D01*
X150106250Y-99873000D01*
X150265000Y-99714250D01*
X150265000Y-99612458D01*
X150247789Y-99525931D01*
X150255812Y-99499482D01*
X150268072Y-99375000D01*
X150268072Y-99126375D01*
X150459448Y-98934999D01*
X150740000Y-98934999D01*
X150740000Y-98964250D01*
X150740000Y-98964250D01*
G37*
X150740000Y-98964250D02*
X150898750Y-99123000D01*
X151873000Y-99123000D01*
X151873000Y-99103000D01*
X152127000Y-99103000D01*
X152127000Y-99123000D01*
X153101250Y-99123000D01*
X153260000Y-98964250D01*
X153260000Y-98949446D01*
X155330277Y-101019724D01*
X155382752Y-101062828D01*
X155434749Y-101106458D01*
X155438134Y-101108319D01*
X155441123Y-101110774D01*
X155501000Y-101142879D01*
X155503961Y-101144507D01*
X155460498Y-101225820D01*
X155424188Y-101345518D01*
X155411928Y-101470000D01*
X155411928Y-102070000D01*
X155424188Y-102194482D01*
X155460498Y-102314180D01*
X155509043Y-102405000D01*
X155460498Y-102495820D01*
X155424188Y-102615518D01*
X155411928Y-102740000D01*
X155411928Y-103340000D01*
X155424188Y-103464482D01*
X155460498Y-103584180D01*
X155509527Y-103675905D01*
X155487270Y-103709215D01*
X155439403Y-103824777D01*
X155436380Y-103839977D01*
X130024777Y-103839977D01*
X129327872Y-103143072D01*
X129800000Y-103143072D01*
X129924482Y-103130812D01*
X130044180Y-103094502D01*
X130154494Y-103035537D01*
X130251185Y-102956185D01*
X130330537Y-102859494D01*
X130389502Y-102749180D01*
X130393803Y-102735001D01*
X139649999Y-102735001D01*
X139719876Y-102728150D01*
X139789802Y-102722032D01*
X139793640Y-102720917D01*
X139797617Y-102720527D01*
X139864820Y-102700237D01*
X139932239Y-102680650D01*
X139935787Y-102678811D01*
X139939612Y-102677656D01*
X140001590Y-102644702D01*
X140063924Y-102612391D01*
X140067047Y-102609898D01*
X140070577Y-102608021D01*
X140124986Y-102563646D01*
X140179845Y-102519853D01*
X140185405Y-102514370D01*
X140185521Y-102514275D01*
X140185610Y-102514167D01*
X140187400Y-102512402D01*
X140436730Y-102263072D01*
X141500000Y-102263072D01*
X141624482Y-102250812D01*
X141744180Y-102214502D01*
X141854494Y-102155537D01*
X141909981Y-102110000D01*
X142212913Y-102110000D01*
X142224188Y-102224482D01*
X142260498Y-102344180D01*
X142319463Y-102454494D01*
X142398815Y-102551185D01*
X142495506Y-102630537D01*
X142605820Y-102689502D01*
X142725518Y-102725812D01*
X142850000Y-102738072D01*
X144150000Y-102738072D01*
X144274482Y-102725812D01*
X144394180Y-102689502D01*
X144504494Y-102630537D01*
X144601185Y-102551185D01*
X144680537Y-102454494D01*
X144739502Y-102344180D01*
X144775812Y-102224482D01*
X144788072Y-102100000D01*
X144788072Y-101710000D01*
X144905532Y-101710000D01*
X144918815Y-101726185D01*
X145015506Y-101805537D01*
X145125820Y-101864502D01*
X145245518Y-101900812D01*
X145370000Y-101913072D01*
X146930000Y-101913072D01*
X147054482Y-101900812D01*
X147174180Y-101864502D01*
X147284494Y-101805537D01*
X147381185Y-101726185D01*
X147460537Y-101629494D01*
X147466310Y-101618694D01*
X147520604Y-101648543D01*
X147524416Y-101649752D01*
X147527935Y-101651639D01*
X147567585Y-101663761D01*
X147618815Y-101726185D01*
X147715506Y-101805537D01*
X147825820Y-101864502D01*
X147945518Y-101900812D01*
X148070000Y-101913072D01*
X148199209Y-101913072D01*
X148212610Y-101938925D01*
X148215103Y-101942048D01*
X148216980Y-101945578D01*
X148261355Y-101999987D01*
X148305148Y-102054846D01*
X148310631Y-102060406D01*
X148310726Y-102060522D01*
X148310834Y-102060611D01*
X148312599Y-102062401D01*
X148537599Y-102287401D01*
X148591855Y-102331968D01*
X148645625Y-102377086D01*
X148649126Y-102379011D01*
X148652215Y-102381548D01*
X148714067Y-102414713D01*
X148775604Y-102448543D01*
X148779416Y-102449752D01*
X148782935Y-102451639D01*
X148850031Y-102472152D01*
X148916987Y-102493392D01*
X148920959Y-102493838D01*
X148924781Y-102495006D01*
X148994649Y-102502103D01*
X149064389Y-102509926D01*
X149072194Y-102509980D01*
X149072347Y-102509996D01*
X149072490Y-102509982D01*
X149075000Y-102510000D01*
X150737913Y-102510000D01*
X150749188Y-102624482D01*
X150785498Y-102744180D01*
X150844463Y-102854494D01*
X150923815Y-102951185D01*
X151020506Y-103030537D01*
X151130820Y-103089502D01*
X151250518Y-103125812D01*
X151375000Y-103138072D01*
X152625000Y-103138072D01*
X152749482Y-103125812D01*
X152869180Y-103089502D01*
X152979494Y-103030537D01*
X153076185Y-102951185D01*
X153155537Y-102854494D01*
X153214502Y-102744180D01*
X153250812Y-102624482D01*
X153263072Y-102500000D01*
X153263072Y-101000000D01*
X153250812Y-100875518D01*
X153214502Y-100755820D01*
X153155537Y-100645506D01*
X153076185Y-100548815D01*
X153018034Y-100501092D01*
X153029789Y-100493237D01*
X153118237Y-100404789D01*
X153187730Y-100300785D01*
X153235597Y-100185223D01*
X153260000Y-100062542D01*
X153260000Y-99535750D01*
X153101250Y-99377000D01*
X152127000Y-99377000D01*
X152127000Y-99397000D01*
X151873000Y-99397000D01*
X151873000Y-99377000D01*
X150898750Y-99377000D01*
X150740000Y-99535750D01*
X150740000Y-100062542D01*
X150764403Y-100185223D01*
X150812270Y-100300785D01*
X150881763Y-100404789D01*
X150970211Y-100493237D01*
X150981966Y-100501092D01*
X150923815Y-100548815D01*
X150844463Y-100645506D01*
X150785498Y-100755820D01*
X150749188Y-100875518D01*
X150737913Y-100990000D01*
X150268072Y-100990000D01*
X150268072Y-100625000D01*
X150255812Y-100500518D01*
X150247789Y-100474069D01*
X150265000Y-100387542D01*
X150265000Y-100285750D01*
X150106250Y-100127000D01*
X150024141Y-100127000D01*
X149984494Y-100094463D01*
X149874180Y-100035498D01*
X149757159Y-100000000D01*
X149874180Y-99964502D01*
X149984494Y-99905537D01*
X150024141Y-99873000D01*
X150106250Y-99873000D01*
X150265000Y-99714250D01*
X150265000Y-99612458D01*
X150247789Y-99525931D01*
X150255812Y-99499482D01*
X150268072Y-99375000D01*
X150268072Y-99126375D01*
X150459448Y-98934999D01*
X150740000Y-98934999D01*
X150740000Y-98964250D01*
G36*
X160965098Y-95979900D02*
X160919463Y-96035506D01*
X160860498Y-96145820D01*
X160824188Y-96265518D01*
X160811928Y-96390000D01*
X160811928Y-96990000D01*
X160824188Y-97114482D01*
X160860498Y-97234180D01*
X160909043Y-97325000D01*
X160860498Y-97415820D01*
X160824188Y-97535518D01*
X160811928Y-97660000D01*
X160811928Y-98260000D01*
X160824188Y-98384482D01*
X160860498Y-98504180D01*
X160909043Y-98595000D01*
X160860498Y-98685820D01*
X160824188Y-98805518D01*
X160811928Y-98930000D01*
X160811928Y-99530000D01*
X160824188Y-99654482D01*
X160860498Y-99774180D01*
X160880868Y-99812289D01*
X160847016Y-99830288D01*
X160784661Y-99862610D01*
X160781536Y-99865105D01*
X160778009Y-99866980D01*
X160723622Y-99911337D01*
X160668741Y-99955148D01*
X160663181Y-99960631D01*
X160663065Y-99960726D01*
X160662976Y-99960834D01*
X160661186Y-99962599D01*
X160012588Y-100611197D01*
X159968021Y-100665453D01*
X159922903Y-100719223D01*
X159920978Y-100722724D01*
X159918441Y-100725813D01*
X159885276Y-100787665D01*
X159851446Y-100849202D01*
X159850237Y-100853014D01*
X159848350Y-100856533D01*
X159827837Y-100923629D01*
X159806597Y-100990585D01*
X159806151Y-100994557D01*
X159804983Y-100998379D01*
X159797886Y-101068247D01*
X159790063Y-101137987D01*
X159790009Y-101145792D01*
X159789993Y-101145945D01*
X159790007Y-101146088D01*
X159789989Y-101148598D01*
X159789989Y-101880211D01*
X158162790Y-103507410D01*
X158175812Y-103464482D01*
X158188072Y-103340000D01*
X158188072Y-102740000D01*
X158175812Y-102615518D01*
X158139502Y-102495820D01*
X158090957Y-102405000D01*
X158139502Y-102314180D01*
X158175812Y-102194482D01*
X158188072Y-102070000D01*
X158188072Y-101470000D01*
X158175812Y-101345518D01*
X158139502Y-101225820D01*
X158090957Y-101135000D01*
X158139502Y-101044180D01*
X158175812Y-100924482D01*
X158188072Y-100800000D01*
X158188072Y-100200000D01*
X158175812Y-100075518D01*
X158139502Y-99955820D01*
X158090957Y-99865000D01*
X158139502Y-99774180D01*
X158175812Y-99654482D01*
X158188072Y-99530000D01*
X158188072Y-98930000D01*
X158175812Y-98805518D01*
X158139502Y-98685820D01*
X158090957Y-98595000D01*
X158139502Y-98504180D01*
X158175812Y-98384482D01*
X158188072Y-98260000D01*
X158188072Y-97660000D01*
X158175812Y-97535518D01*
X158139502Y-97415820D01*
X158090957Y-97325000D01*
X158139502Y-97234180D01*
X158175812Y-97114482D01*
X158188072Y-96990000D01*
X158188072Y-96390000D01*
X158175812Y-96265518D01*
X158139502Y-96145820D01*
X158080537Y-96035506D01*
X158001185Y-95938815D01*
X157904494Y-95859463D01*
X157794180Y-95800498D01*
X157674482Y-95764188D01*
X157550000Y-95751928D01*
X157535000Y-95751928D01*
X157535000Y-92549802D01*
X160965098Y-95979900D01*
X160965098Y-95979900D01*
G37*
X160965098Y-95979900D02*
X160919463Y-96035506D01*
X160860498Y-96145820D01*
X160824188Y-96265518D01*
X160811928Y-96390000D01*
X160811928Y-96990000D01*
X160824188Y-97114482D01*
X160860498Y-97234180D01*
X160909043Y-97325000D01*
X160860498Y-97415820D01*
X160824188Y-97535518D01*
X160811928Y-97660000D01*
X160811928Y-98260000D01*
X160824188Y-98384482D01*
X160860498Y-98504180D01*
X160909043Y-98595000D01*
X160860498Y-98685820D01*
X160824188Y-98805518D01*
X160811928Y-98930000D01*
X160811928Y-99530000D01*
X160824188Y-99654482D01*
X160860498Y-99774180D01*
X160880868Y-99812289D01*
X160847016Y-99830288D01*
X160784661Y-99862610D01*
X160781536Y-99865105D01*
X160778009Y-99866980D01*
X160723622Y-99911337D01*
X160668741Y-99955148D01*
X160663181Y-99960631D01*
X160663065Y-99960726D01*
X160662976Y-99960834D01*
X160661186Y-99962599D01*
X160012588Y-100611197D01*
X159968021Y-100665453D01*
X159922903Y-100719223D01*
X159920978Y-100722724D01*
X159918441Y-100725813D01*
X159885276Y-100787665D01*
X159851446Y-100849202D01*
X159850237Y-100853014D01*
X159848350Y-100856533D01*
X159827837Y-100923629D01*
X159806597Y-100990585D01*
X159806151Y-100994557D01*
X159804983Y-100998379D01*
X159797886Y-101068247D01*
X159790063Y-101137987D01*
X159790009Y-101145792D01*
X159789993Y-101145945D01*
X159790007Y-101146088D01*
X159789989Y-101148598D01*
X159789989Y-101880211D01*
X158162790Y-103507410D01*
X158175812Y-103464482D01*
X158188072Y-103340000D01*
X158188072Y-102740000D01*
X158175812Y-102615518D01*
X158139502Y-102495820D01*
X158090957Y-102405000D01*
X158139502Y-102314180D01*
X158175812Y-102194482D01*
X158188072Y-102070000D01*
X158188072Y-101470000D01*
X158175812Y-101345518D01*
X158139502Y-101225820D01*
X158090957Y-101135000D01*
X158139502Y-101044180D01*
X158175812Y-100924482D01*
X158188072Y-100800000D01*
X158188072Y-100200000D01*
X158175812Y-100075518D01*
X158139502Y-99955820D01*
X158090957Y-99865000D01*
X158139502Y-99774180D01*
X158175812Y-99654482D01*
X158188072Y-99530000D01*
X158188072Y-98930000D01*
X158175812Y-98805518D01*
X158139502Y-98685820D01*
X158090957Y-98595000D01*
X158139502Y-98504180D01*
X158175812Y-98384482D01*
X158188072Y-98260000D01*
X158188072Y-97660000D01*
X158175812Y-97535518D01*
X158139502Y-97415820D01*
X158090957Y-97325000D01*
X158139502Y-97234180D01*
X158175812Y-97114482D01*
X158188072Y-96990000D01*
X158188072Y-96390000D01*
X158175812Y-96265518D01*
X158139502Y-96145820D01*
X158080537Y-96035506D01*
X158001185Y-95938815D01*
X157904494Y-95859463D01*
X157794180Y-95800498D01*
X157674482Y-95764188D01*
X157550000Y-95751928D01*
X157535000Y-95751928D01*
X157535000Y-92549802D01*
X160965098Y-95979900D01*
G36*
X164090020Y-99806591D02*
X163588072Y-100308539D01*
X163588072Y-100200000D01*
X163575812Y-100075518D01*
X163539502Y-99955820D01*
X163490957Y-99865000D01*
X163539502Y-99774180D01*
X163575812Y-99654482D01*
X163588072Y-99530000D01*
X163588072Y-98930000D01*
X163575812Y-98805518D01*
X163539502Y-98685820D01*
X163518819Y-98647126D01*
X163551591Y-98629701D01*
X163613925Y-98597390D01*
X163617048Y-98594897D01*
X163620578Y-98593020D01*
X163674987Y-98548645D01*
X163729846Y-98504852D01*
X163735406Y-98499369D01*
X163735522Y-98499274D01*
X163735611Y-98499166D01*
X163737401Y-98497401D01*
X164037401Y-98197401D01*
X164081968Y-98143145D01*
X164090020Y-98133548D01*
X164090020Y-99806591D01*
X164090020Y-99806591D01*
G37*
X164090020Y-99806591D02*
X163588072Y-100308539D01*
X163588072Y-100200000D01*
X163575812Y-100075518D01*
X163539502Y-99955820D01*
X163490957Y-99865000D01*
X163539502Y-99774180D01*
X163575812Y-99654482D01*
X163588072Y-99530000D01*
X163588072Y-98930000D01*
X163575812Y-98805518D01*
X163539502Y-98685820D01*
X163518819Y-98647126D01*
X163551591Y-98629701D01*
X163613925Y-98597390D01*
X163617048Y-98594897D01*
X163620578Y-98593020D01*
X163674987Y-98548645D01*
X163729846Y-98504852D01*
X163735406Y-98499369D01*
X163735522Y-98499274D01*
X163735611Y-98499166D01*
X163737401Y-98497401D01*
X164037401Y-98197401D01*
X164081968Y-98143145D01*
X164090020Y-98133548D01*
X164090020Y-99806591D01*
G36*
X150740000Y-93964250D02*
X150898750Y-94123000D01*
X151873000Y-94123000D01*
X151873000Y-94103000D01*
X152127000Y-94103000D01*
X152127000Y-94123000D01*
X152147000Y-94123000D01*
X152147000Y-94377000D01*
X152127000Y-94377000D01*
X152127000Y-94397000D01*
X151873000Y-94397000D01*
X151873000Y-94377000D01*
X150898750Y-94377000D01*
X150740000Y-94535750D01*
X150740000Y-95062542D01*
X150764403Y-95185223D01*
X150812270Y-95300785D01*
X150881763Y-95404789D01*
X150970211Y-95493237D01*
X150981966Y-95501092D01*
X150923815Y-95548815D01*
X150844463Y-95645506D01*
X150785498Y-95755820D01*
X150749188Y-95875518D01*
X150737913Y-95990000D01*
X150268072Y-95990000D01*
X150268072Y-95625000D01*
X150255812Y-95500518D01*
X150247789Y-95474069D01*
X150265000Y-95387542D01*
X150265000Y-95285750D01*
X150106250Y-95127000D01*
X150024141Y-95127000D01*
X149984494Y-95094463D01*
X149874180Y-95035498D01*
X149757159Y-95000000D01*
X149874180Y-94964502D01*
X149984494Y-94905537D01*
X150024141Y-94873000D01*
X150106250Y-94873000D01*
X150265000Y-94714250D01*
X150265000Y-94612458D01*
X150247789Y-94525931D01*
X150255812Y-94499482D01*
X150268072Y-94375000D01*
X150268072Y-94126375D01*
X150459448Y-93934999D01*
X150740000Y-93934999D01*
X150740000Y-93964250D01*
X150740000Y-93964250D01*
G37*
X150740000Y-93964250D02*
X150898750Y-94123000D01*
X151873000Y-94123000D01*
X151873000Y-94103000D01*
X152127000Y-94103000D01*
X152127000Y-94123000D01*
X152147000Y-94123000D01*
X152147000Y-94377000D01*
X152127000Y-94377000D01*
X152127000Y-94397000D01*
X151873000Y-94397000D01*
X151873000Y-94377000D01*
X150898750Y-94377000D01*
X150740000Y-94535750D01*
X150740000Y-95062542D01*
X150764403Y-95185223D01*
X150812270Y-95300785D01*
X150881763Y-95404789D01*
X150970211Y-95493237D01*
X150981966Y-95501092D01*
X150923815Y-95548815D01*
X150844463Y-95645506D01*
X150785498Y-95755820D01*
X150749188Y-95875518D01*
X150737913Y-95990000D01*
X150268072Y-95990000D01*
X150268072Y-95625000D01*
X150255812Y-95500518D01*
X150247789Y-95474069D01*
X150265000Y-95387542D01*
X150265000Y-95285750D01*
X150106250Y-95127000D01*
X150024141Y-95127000D01*
X149984494Y-95094463D01*
X149874180Y-95035498D01*
X149757159Y-95000000D01*
X149874180Y-94964502D01*
X149984494Y-94905537D01*
X150024141Y-94873000D01*
X150106250Y-94873000D01*
X150265000Y-94714250D01*
X150265000Y-94612458D01*
X150247789Y-94525931D01*
X150255812Y-94499482D01*
X150268072Y-94375000D01*
X150268072Y-94126375D01*
X150459448Y-93934999D01*
X150740000Y-93934999D01*
X150740000Y-93964250D01*
G36*
X150898750Y-89123000D02*
X151873000Y-89123000D01*
X151873000Y-89103000D01*
X152127000Y-89103000D01*
X152127000Y-89123000D01*
X152147000Y-89123000D01*
X152147000Y-89377000D01*
X152127000Y-89377000D01*
X152127000Y-89397000D01*
X151873000Y-89397000D01*
X151873000Y-89377000D01*
X150898750Y-89377000D01*
X150740000Y-89535750D01*
X150740000Y-90062542D01*
X150764403Y-90185223D01*
X150812270Y-90300785D01*
X150881763Y-90404789D01*
X150970211Y-90493237D01*
X150981966Y-90501092D01*
X150923815Y-90548815D01*
X150844463Y-90645506D01*
X150785498Y-90755820D01*
X150749188Y-90875518D01*
X150737913Y-90990000D01*
X150268072Y-90990000D01*
X150268072Y-90625000D01*
X150255812Y-90500518D01*
X150247789Y-90474069D01*
X150265000Y-90387542D01*
X150265000Y-90285750D01*
X150106250Y-90127000D01*
X150024141Y-90127000D01*
X149984494Y-90094463D01*
X149874180Y-90035498D01*
X149757159Y-90000000D01*
X149874180Y-89964502D01*
X149984494Y-89905537D01*
X150024141Y-89873000D01*
X150106250Y-89873000D01*
X150265000Y-89714250D01*
X150265000Y-89639151D01*
X150289398Y-89619252D01*
X150342416Y-89576929D01*
X150347794Y-89571625D01*
X150347906Y-89571534D01*
X150347992Y-89571430D01*
X150349723Y-89569723D01*
X150847598Y-89071848D01*
X150898750Y-89123000D01*
X150898750Y-89123000D01*
G37*
X150898750Y-89123000D02*
X151873000Y-89123000D01*
X151873000Y-89103000D01*
X152127000Y-89103000D01*
X152127000Y-89123000D01*
X152147000Y-89123000D01*
X152147000Y-89377000D01*
X152127000Y-89377000D01*
X152127000Y-89397000D01*
X151873000Y-89397000D01*
X151873000Y-89377000D01*
X150898750Y-89377000D01*
X150740000Y-89535750D01*
X150740000Y-90062542D01*
X150764403Y-90185223D01*
X150812270Y-90300785D01*
X150881763Y-90404789D01*
X150970211Y-90493237D01*
X150981966Y-90501092D01*
X150923815Y-90548815D01*
X150844463Y-90645506D01*
X150785498Y-90755820D01*
X150749188Y-90875518D01*
X150737913Y-90990000D01*
X150268072Y-90990000D01*
X150268072Y-90625000D01*
X150255812Y-90500518D01*
X150247789Y-90474069D01*
X150265000Y-90387542D01*
X150265000Y-90285750D01*
X150106250Y-90127000D01*
X150024141Y-90127000D01*
X149984494Y-90094463D01*
X149874180Y-90035498D01*
X149757159Y-90000000D01*
X149874180Y-89964502D01*
X149984494Y-89905537D01*
X150024141Y-89873000D01*
X150106250Y-89873000D01*
X150265000Y-89714250D01*
X150265000Y-89639151D01*
X150289398Y-89619252D01*
X150342416Y-89576929D01*
X150347794Y-89571625D01*
X150347906Y-89571534D01*
X150347992Y-89571430D01*
X150349723Y-89569723D01*
X150847598Y-89071848D01*
X150898750Y-89123000D01*
G36*
X157478724Y-67299119D02*
X157663819Y-67484214D01*
X157651271Y-67492426D01*
X157506252Y-67634440D01*
X157485355Y-67664960D01*
X157299119Y-67478724D01*
X156809452Y-67838912D01*
X156449151Y-68502882D01*
X156225306Y-69224385D01*
X156146520Y-69975695D01*
X156215822Y-70727938D01*
X156430548Y-71452208D01*
X156782445Y-72120670D01*
X156809452Y-72161088D01*
X157299119Y-72521276D01*
X157483760Y-72336635D01*
X157487897Y-72343055D01*
X157628894Y-72489062D01*
X157665265Y-72514340D01*
X157478724Y-72700881D01*
X157838912Y-73190548D01*
X158502882Y-73550849D01*
X159224385Y-73774694D01*
X159975695Y-73853480D01*
X160727938Y-73784178D01*
X161452208Y-73569452D01*
X162120670Y-73217555D01*
X162161088Y-73190548D01*
X162521276Y-72700881D01*
X162337128Y-72516733D01*
X162337349Y-72516593D01*
X162484337Y-72376619D01*
X162514072Y-72334467D01*
X162700881Y-72521276D01*
X162765001Y-72474111D01*
X162765001Y-77160197D01*
X161948784Y-77976414D01*
X161905537Y-77895506D01*
X161826185Y-77798815D01*
X161768034Y-77751092D01*
X161779789Y-77743237D01*
X161868237Y-77654789D01*
X161937730Y-77550785D01*
X161985597Y-77435223D01*
X162010000Y-77312542D01*
X162010000Y-76785750D01*
X161851250Y-76627000D01*
X160877000Y-76627000D01*
X160877000Y-76647000D01*
X160623000Y-76647000D01*
X160623000Y-76627000D01*
X158877000Y-76627000D01*
X158877000Y-76647000D01*
X158623000Y-76647000D01*
X158623000Y-76627000D01*
X157648750Y-76627000D01*
X157490000Y-76785750D01*
X157490000Y-77312542D01*
X157514403Y-77435223D01*
X157562270Y-77550785D01*
X157631763Y-77654789D01*
X157720211Y-77743237D01*
X157731966Y-77751092D01*
X157673815Y-77798815D01*
X157594463Y-77895506D01*
X157535498Y-78005820D01*
X157499188Y-78125518D01*
X157486928Y-78250000D01*
X157486928Y-79750000D01*
X157499188Y-79874482D01*
X157535498Y-79994180D01*
X157594463Y-80104494D01*
X157673815Y-80201185D01*
X157770506Y-80280537D01*
X157880820Y-80339502D01*
X158000518Y-80375812D01*
X158125000Y-80388072D01*
X159375000Y-80388072D01*
X159499482Y-80375812D01*
X159619180Y-80339502D01*
X159729494Y-80280537D01*
X159750000Y-80263708D01*
X159770506Y-80280537D01*
X159880820Y-80339502D01*
X160000518Y-80375812D01*
X160125000Y-80388072D01*
X160173537Y-80388072D01*
X157262599Y-83299010D01*
X157218032Y-83353266D01*
X157172914Y-83407036D01*
X157170989Y-83410537D01*
X157168452Y-83413626D01*
X157135287Y-83475478D01*
X157101457Y-83537015D01*
X157100248Y-83540827D01*
X157098361Y-83544346D01*
X157077848Y-83611442D01*
X157056608Y-83678398D01*
X157056162Y-83682370D01*
X157054994Y-83686192D01*
X157047897Y-83756060D01*
X157040074Y-83825800D01*
X157040020Y-83833605D01*
X157040004Y-83833758D01*
X157040018Y-83833901D01*
X157040000Y-83836411D01*
X157040000Y-89905198D01*
X155509998Y-88375196D01*
X155509998Y-80039996D01*
X155503147Y-79970119D01*
X155497029Y-79900193D01*
X155495914Y-79896355D01*
X155495524Y-79892378D01*
X155475234Y-79825175D01*
X155455647Y-79757756D01*
X155453808Y-79754208D01*
X155452653Y-79750383D01*
X155419699Y-79688405D01*
X155387388Y-79626071D01*
X155384895Y-79622948D01*
X155383018Y-79619418D01*
X155338643Y-79565009D01*
X155294850Y-79510150D01*
X155289367Y-79504590D01*
X155289272Y-79504474D01*
X155289164Y-79504385D01*
X155287399Y-79502595D01*
X153422402Y-77637598D01*
X153368146Y-77593031D01*
X153314376Y-77547913D01*
X153310875Y-77545988D01*
X153307786Y-77543451D01*
X153245934Y-77510286D01*
X153184397Y-77476456D01*
X153180585Y-77475247D01*
X153177066Y-77473360D01*
X153109970Y-77452847D01*
X153043014Y-77431607D01*
X153039042Y-77431161D01*
X153035220Y-77429993D01*
X152965352Y-77422896D01*
X152895612Y-77415073D01*
X152887807Y-77415019D01*
X152887654Y-77415003D01*
X152887511Y-77415017D01*
X152885001Y-77414999D01*
X151114999Y-77414999D01*
X151045122Y-77421850D01*
X150975196Y-77427968D01*
X150971358Y-77429083D01*
X150967381Y-77429473D01*
X150900178Y-77449763D01*
X150832759Y-77469350D01*
X150829211Y-77471189D01*
X150825386Y-77472344D01*
X150763393Y-77505306D01*
X150701073Y-77537610D01*
X150697952Y-77540102D01*
X150694421Y-77541979D01*
X150640006Y-77586358D01*
X150585153Y-77630147D01*
X150579593Y-77635630D01*
X150579477Y-77635725D01*
X150579388Y-77635833D01*
X150577598Y-77637598D01*
X150004398Y-78210798D01*
X149984494Y-78194463D01*
X149874180Y-78135498D01*
X149754482Y-78099188D01*
X149630000Y-78086928D01*
X149113549Y-78086928D01*
X149166257Y-78044852D01*
X149171817Y-78039369D01*
X149171933Y-78039274D01*
X149172022Y-78039166D01*
X149173812Y-78037401D01*
X150987412Y-76223801D01*
X151031979Y-76169545D01*
X151077097Y-76115775D01*
X151079022Y-76112274D01*
X151081559Y-76109185D01*
X151114743Y-76047298D01*
X151148554Y-75985796D01*
X151149762Y-75981988D01*
X151151651Y-75978465D01*
X151172178Y-75911323D01*
X151193403Y-75844413D01*
X151193849Y-75840441D01*
X151195017Y-75836619D01*
X151202114Y-75766751D01*
X151209937Y-75697011D01*
X151209991Y-75689206D01*
X151210007Y-75689053D01*
X151209993Y-75688910D01*
X151210003Y-75687458D01*
X157490000Y-75687458D01*
X157490000Y-76214250D01*
X157648750Y-76373000D01*
X158623000Y-76373000D01*
X158623000Y-75273750D01*
X158877000Y-75273750D01*
X158877000Y-76373000D01*
X160623000Y-76373000D01*
X160623000Y-75273750D01*
X160877000Y-75273750D01*
X160877000Y-76373000D01*
X161851250Y-76373000D01*
X162010000Y-76214250D01*
X162010000Y-75687458D01*
X161985597Y-75564777D01*
X161937730Y-75449215D01*
X161868237Y-75345211D01*
X161779789Y-75256763D01*
X161675785Y-75187270D01*
X161560223Y-75139403D01*
X161437542Y-75115000D01*
X161035750Y-75115000D01*
X160877000Y-75273750D01*
X160623000Y-75273750D01*
X160464250Y-75115000D01*
X160062458Y-75115000D01*
X159939777Y-75139403D01*
X159824215Y-75187270D01*
X159750000Y-75236859D01*
X159675785Y-75187270D01*
X159560223Y-75139403D01*
X159437542Y-75115000D01*
X159035750Y-75115000D01*
X158877000Y-75273750D01*
X158623000Y-75273750D01*
X158464250Y-75115000D01*
X158062458Y-75115000D01*
X157939777Y-75139403D01*
X157824215Y-75187270D01*
X157720211Y-75256763D01*
X157631763Y-75345211D01*
X157562270Y-75449215D01*
X157514403Y-75564777D01*
X157490000Y-75687458D01*
X151210003Y-75687458D01*
X151210011Y-75686400D01*
X151210011Y-75549239D01*
X151283000Y-75476250D01*
X151283000Y-74127000D01*
X151537000Y-74127000D01*
X151537000Y-75476250D01*
X151695750Y-75635000D01*
X152072542Y-75635000D01*
X152195223Y-75610597D01*
X152310785Y-75562730D01*
X152414789Y-75493237D01*
X152503237Y-75404789D01*
X152572730Y-75300785D01*
X152620597Y-75185223D01*
X152645000Y-75062542D01*
X152645000Y-74285750D01*
X152486250Y-74127000D01*
X151537000Y-74127000D01*
X151283000Y-74127000D01*
X151263000Y-74127000D01*
X151263000Y-73873000D01*
X151283000Y-73873000D01*
X151283000Y-72523750D01*
X151537000Y-72523750D01*
X151537000Y-73873000D01*
X152486250Y-73873000D01*
X152645000Y-73714250D01*
X152645000Y-73033271D01*
X153012917Y-73033271D01*
X153069028Y-73338999D01*
X153183454Y-73628006D01*
X153351836Y-73889283D01*
X153567760Y-74112878D01*
X153823001Y-74290276D01*
X154107838Y-74414718D01*
X154411422Y-74481465D01*
X154722188Y-74487975D01*
X155028300Y-74433999D01*
X155318099Y-74321594D01*
X155580545Y-74155040D01*
X155805643Y-73940683D01*
X155984818Y-73686686D01*
X156111245Y-73402724D01*
X156180110Y-73099614D01*
X156185068Y-72744583D01*
X156124693Y-72439668D01*
X156006243Y-72152287D01*
X155834230Y-71893387D01*
X155615205Y-71672827D01*
X155357512Y-71499011D01*
X155070965Y-71378558D01*
X154766479Y-71316056D01*
X154455652Y-71313886D01*
X154150324Y-71372130D01*
X153862123Y-71488571D01*
X153602028Y-71658773D01*
X153379945Y-71876252D01*
X153204334Y-72132726D01*
X153081883Y-72418425D01*
X153017257Y-72722467D01*
X153012917Y-73033271D01*
X152645000Y-73033271D01*
X152645000Y-72937458D01*
X152620597Y-72814777D01*
X152572730Y-72699215D01*
X152503237Y-72595211D01*
X152414789Y-72506763D01*
X152310785Y-72437270D01*
X152195223Y-72389403D01*
X152072542Y-72365000D01*
X151695750Y-72365000D01*
X151537000Y-72523750D01*
X151283000Y-72523750D01*
X151210011Y-72450761D01*
X151210011Y-72100011D01*
X151203160Y-72030134D01*
X151197042Y-71960208D01*
X151195927Y-71956370D01*
X151195537Y-71952393D01*
X151175247Y-71885190D01*
X151155660Y-71817771D01*
X151153821Y-71814223D01*
X151152666Y-71810398D01*
X151119702Y-71748401D01*
X151087400Y-71686085D01*
X151084908Y-71682964D01*
X151083031Y-71679433D01*
X151038652Y-71625018D01*
X150994863Y-71570165D01*
X150989380Y-71564605D01*
X150989285Y-71564489D01*
X150989177Y-71564400D01*
X150987412Y-71562610D01*
X148747521Y-69322719D01*
X148789502Y-69244180D01*
X148825812Y-69124482D01*
X148838072Y-69000000D01*
X148838072Y-68760000D01*
X148901928Y-68760000D01*
X148901928Y-69000000D01*
X148914188Y-69124482D01*
X148950498Y-69244180D01*
X149009463Y-69354494D01*
X149088815Y-69451185D01*
X149185506Y-69530537D01*
X149295820Y-69589502D01*
X149415518Y-69625812D01*
X149540000Y-69638072D01*
X150740000Y-69638072D01*
X150864482Y-69625812D01*
X150984180Y-69589502D01*
X151094494Y-69530537D01*
X151191185Y-69451185D01*
X151270537Y-69354494D01*
X151329502Y-69244180D01*
X151365812Y-69124482D01*
X151378072Y-69000000D01*
X151378072Y-68285750D01*
X151445000Y-68285750D01*
X151445000Y-69062542D01*
X151469403Y-69185223D01*
X151517270Y-69300785D01*
X151586763Y-69404789D01*
X151675211Y-69493237D01*
X151779215Y-69562730D01*
X151894777Y-69610597D01*
X152017458Y-69635000D01*
X152394250Y-69635000D01*
X152553000Y-69476250D01*
X152553000Y-68127000D01*
X152807000Y-68127000D01*
X152807000Y-69476250D01*
X152965750Y-69635000D01*
X153342542Y-69635000D01*
X153465223Y-69610597D01*
X153580785Y-69562730D01*
X153684789Y-69493237D01*
X153773237Y-69404789D01*
X153842730Y-69300785D01*
X153890597Y-69185223D01*
X153915000Y-69062542D01*
X153915000Y-68285750D01*
X153756250Y-68127000D01*
X152807000Y-68127000D01*
X152553000Y-68127000D01*
X151603750Y-68127000D01*
X151445000Y-68285750D01*
X151378072Y-68285750D01*
X151378072Y-67436730D01*
X151445000Y-67369802D01*
X151445000Y-67714250D01*
X151603750Y-67873000D01*
X152553000Y-67873000D01*
X152553000Y-67853000D01*
X152807000Y-67853000D01*
X152807000Y-67873000D01*
X153756250Y-67873000D01*
X153915000Y-67714250D01*
X153915000Y-67234999D01*
X157525889Y-67234999D01*
X157478724Y-67299119D01*
X157478724Y-67299119D01*
G37*
X157478724Y-67299119D02*
X157663819Y-67484214D01*
X157651271Y-67492426D01*
X157506252Y-67634440D01*
X157485355Y-67664960D01*
X157299119Y-67478724D01*
X156809452Y-67838912D01*
X156449151Y-68502882D01*
X156225306Y-69224385D01*
X156146520Y-69975695D01*
X156215822Y-70727938D01*
X156430548Y-71452208D01*
X156782445Y-72120670D01*
X156809452Y-72161088D01*
X157299119Y-72521276D01*
X157483760Y-72336635D01*
X157487897Y-72343055D01*
X157628894Y-72489062D01*
X157665265Y-72514340D01*
X157478724Y-72700881D01*
X157838912Y-73190548D01*
X158502882Y-73550849D01*
X159224385Y-73774694D01*
X159975695Y-73853480D01*
X160727938Y-73784178D01*
X161452208Y-73569452D01*
X162120670Y-73217555D01*
X162161088Y-73190548D01*
X162521276Y-72700881D01*
X162337128Y-72516733D01*
X162337349Y-72516593D01*
X162484337Y-72376619D01*
X162514072Y-72334467D01*
X162700881Y-72521276D01*
X162765001Y-72474111D01*
X162765001Y-77160197D01*
X161948784Y-77976414D01*
X161905537Y-77895506D01*
X161826185Y-77798815D01*
X161768034Y-77751092D01*
X161779789Y-77743237D01*
X161868237Y-77654789D01*
X161937730Y-77550785D01*
X161985597Y-77435223D01*
X162010000Y-77312542D01*
X162010000Y-76785750D01*
X161851250Y-76627000D01*
X160877000Y-76627000D01*
X160877000Y-76647000D01*
X160623000Y-76647000D01*
X160623000Y-76627000D01*
X158877000Y-76627000D01*
X158877000Y-76647000D01*
X158623000Y-76647000D01*
X158623000Y-76627000D01*
X157648750Y-76627000D01*
X157490000Y-76785750D01*
X157490000Y-77312542D01*
X157514403Y-77435223D01*
X157562270Y-77550785D01*
X157631763Y-77654789D01*
X157720211Y-77743237D01*
X157731966Y-77751092D01*
X157673815Y-77798815D01*
X157594463Y-77895506D01*
X157535498Y-78005820D01*
X157499188Y-78125518D01*
X157486928Y-78250000D01*
X157486928Y-79750000D01*
X157499188Y-79874482D01*
X157535498Y-79994180D01*
X157594463Y-80104494D01*
X157673815Y-80201185D01*
X157770506Y-80280537D01*
X157880820Y-80339502D01*
X158000518Y-80375812D01*
X158125000Y-80388072D01*
X159375000Y-80388072D01*
X159499482Y-80375812D01*
X159619180Y-80339502D01*
X159729494Y-80280537D01*
X159750000Y-80263708D01*
X159770506Y-80280537D01*
X159880820Y-80339502D01*
X160000518Y-80375812D01*
X160125000Y-80388072D01*
X160173537Y-80388072D01*
X157262599Y-83299010D01*
X157218032Y-83353266D01*
X157172914Y-83407036D01*
X157170989Y-83410537D01*
X157168452Y-83413626D01*
X157135287Y-83475478D01*
X157101457Y-83537015D01*
X157100248Y-83540827D01*
X157098361Y-83544346D01*
X157077848Y-83611442D01*
X157056608Y-83678398D01*
X157056162Y-83682370D01*
X157054994Y-83686192D01*
X157047897Y-83756060D01*
X157040074Y-83825800D01*
X157040020Y-83833605D01*
X157040004Y-83833758D01*
X157040018Y-83833901D01*
X157040000Y-83836411D01*
X157040000Y-89905198D01*
X155509998Y-88375196D01*
X155509998Y-80039996D01*
X155503147Y-79970119D01*
X155497029Y-79900193D01*
X155495914Y-79896355D01*
X155495524Y-79892378D01*
X155475234Y-79825175D01*
X155455647Y-79757756D01*
X155453808Y-79754208D01*
X155452653Y-79750383D01*
X155419699Y-79688405D01*
X155387388Y-79626071D01*
X155384895Y-79622948D01*
X155383018Y-79619418D01*
X155338643Y-79565009D01*
X155294850Y-79510150D01*
X155289367Y-79504590D01*
X155289272Y-79504474D01*
X155289164Y-79504385D01*
X155287399Y-79502595D01*
X153422402Y-77637598D01*
X153368146Y-77593031D01*
X153314376Y-77547913D01*
X153310875Y-77545988D01*
X153307786Y-77543451D01*
X153245934Y-77510286D01*
X153184397Y-77476456D01*
X153180585Y-77475247D01*
X153177066Y-77473360D01*
X153109970Y-77452847D01*
X153043014Y-77431607D01*
X153039042Y-77431161D01*
X153035220Y-77429993D01*
X152965352Y-77422896D01*
X152895612Y-77415073D01*
X152887807Y-77415019D01*
X152887654Y-77415003D01*
X152887511Y-77415017D01*
X152885001Y-77414999D01*
X151114999Y-77414999D01*
X151045122Y-77421850D01*
X150975196Y-77427968D01*
X150971358Y-77429083D01*
X150967381Y-77429473D01*
X150900178Y-77449763D01*
X150832759Y-77469350D01*
X150829211Y-77471189D01*
X150825386Y-77472344D01*
X150763393Y-77505306D01*
X150701073Y-77537610D01*
X150697952Y-77540102D01*
X150694421Y-77541979D01*
X150640006Y-77586358D01*
X150585153Y-77630147D01*
X150579593Y-77635630D01*
X150579477Y-77635725D01*
X150579388Y-77635833D01*
X150577598Y-77637598D01*
X150004398Y-78210798D01*
X149984494Y-78194463D01*
X149874180Y-78135498D01*
X149754482Y-78099188D01*
X149630000Y-78086928D01*
X149113549Y-78086928D01*
X149166257Y-78044852D01*
X149171817Y-78039369D01*
X149171933Y-78039274D01*
X149172022Y-78039166D01*
X149173812Y-78037401D01*
X150987412Y-76223801D01*
X151031979Y-76169545D01*
X151077097Y-76115775D01*
X151079022Y-76112274D01*
X151081559Y-76109185D01*
X151114743Y-76047298D01*
X151148554Y-75985796D01*
X151149762Y-75981988D01*
X151151651Y-75978465D01*
X151172178Y-75911323D01*
X151193403Y-75844413D01*
X151193849Y-75840441D01*
X151195017Y-75836619D01*
X151202114Y-75766751D01*
X151209937Y-75697011D01*
X151209991Y-75689206D01*
X151210007Y-75689053D01*
X151209993Y-75688910D01*
X151210003Y-75687458D01*
X157490000Y-75687458D01*
X157490000Y-76214250D01*
X157648750Y-76373000D01*
X158623000Y-76373000D01*
X158623000Y-75273750D01*
X158877000Y-75273750D01*
X158877000Y-76373000D01*
X160623000Y-76373000D01*
X160623000Y-75273750D01*
X160877000Y-75273750D01*
X160877000Y-76373000D01*
X161851250Y-76373000D01*
X162010000Y-76214250D01*
X162010000Y-75687458D01*
X161985597Y-75564777D01*
X161937730Y-75449215D01*
X161868237Y-75345211D01*
X161779789Y-75256763D01*
X161675785Y-75187270D01*
X161560223Y-75139403D01*
X161437542Y-75115000D01*
X161035750Y-75115000D01*
X160877000Y-75273750D01*
X160623000Y-75273750D01*
X160464250Y-75115000D01*
X160062458Y-75115000D01*
X159939777Y-75139403D01*
X159824215Y-75187270D01*
X159750000Y-75236859D01*
X159675785Y-75187270D01*
X159560223Y-75139403D01*
X159437542Y-75115000D01*
X159035750Y-75115000D01*
X158877000Y-75273750D01*
X158623000Y-75273750D01*
X158464250Y-75115000D01*
X158062458Y-75115000D01*
X157939777Y-75139403D01*
X157824215Y-75187270D01*
X157720211Y-75256763D01*
X157631763Y-75345211D01*
X157562270Y-75449215D01*
X157514403Y-75564777D01*
X157490000Y-75687458D01*
X151210003Y-75687458D01*
X151210011Y-75686400D01*
X151210011Y-75549239D01*
X151283000Y-75476250D01*
X151283000Y-74127000D01*
X151537000Y-74127000D01*
X151537000Y-75476250D01*
X151695750Y-75635000D01*
X152072542Y-75635000D01*
X152195223Y-75610597D01*
X152310785Y-75562730D01*
X152414789Y-75493237D01*
X152503237Y-75404789D01*
X152572730Y-75300785D01*
X152620597Y-75185223D01*
X152645000Y-75062542D01*
X152645000Y-74285750D01*
X152486250Y-74127000D01*
X151537000Y-74127000D01*
X151283000Y-74127000D01*
X151263000Y-74127000D01*
X151263000Y-73873000D01*
X151283000Y-73873000D01*
X151283000Y-72523750D01*
X151537000Y-72523750D01*
X151537000Y-73873000D01*
X152486250Y-73873000D01*
X152645000Y-73714250D01*
X152645000Y-73033271D01*
X153012917Y-73033271D01*
X153069028Y-73338999D01*
X153183454Y-73628006D01*
X153351836Y-73889283D01*
X153567760Y-74112878D01*
X153823001Y-74290276D01*
X154107838Y-74414718D01*
X154411422Y-74481465D01*
X154722188Y-74487975D01*
X155028300Y-74433999D01*
X155318099Y-74321594D01*
X155580545Y-74155040D01*
X155805643Y-73940683D01*
X155984818Y-73686686D01*
X156111245Y-73402724D01*
X156180110Y-73099614D01*
X156185068Y-72744583D01*
X156124693Y-72439668D01*
X156006243Y-72152287D01*
X155834230Y-71893387D01*
X155615205Y-71672827D01*
X155357512Y-71499011D01*
X155070965Y-71378558D01*
X154766479Y-71316056D01*
X154455652Y-71313886D01*
X154150324Y-71372130D01*
X153862123Y-71488571D01*
X153602028Y-71658773D01*
X153379945Y-71876252D01*
X153204334Y-72132726D01*
X153081883Y-72418425D01*
X153017257Y-72722467D01*
X153012917Y-73033271D01*
X152645000Y-73033271D01*
X152645000Y-72937458D01*
X152620597Y-72814777D01*
X152572730Y-72699215D01*
X152503237Y-72595211D01*
X152414789Y-72506763D01*
X152310785Y-72437270D01*
X152195223Y-72389403D01*
X152072542Y-72365000D01*
X151695750Y-72365000D01*
X151537000Y-72523750D01*
X151283000Y-72523750D01*
X151210011Y-72450761D01*
X151210011Y-72100011D01*
X151203160Y-72030134D01*
X151197042Y-71960208D01*
X151195927Y-71956370D01*
X151195537Y-71952393D01*
X151175247Y-71885190D01*
X151155660Y-71817771D01*
X151153821Y-71814223D01*
X151152666Y-71810398D01*
X151119702Y-71748401D01*
X151087400Y-71686085D01*
X151084908Y-71682964D01*
X151083031Y-71679433D01*
X151038652Y-71625018D01*
X150994863Y-71570165D01*
X150989380Y-71564605D01*
X150989285Y-71564489D01*
X150989177Y-71564400D01*
X150987412Y-71562610D01*
X148747521Y-69322719D01*
X148789502Y-69244180D01*
X148825812Y-69124482D01*
X148838072Y-69000000D01*
X148838072Y-68760000D01*
X148901928Y-68760000D01*
X148901928Y-69000000D01*
X148914188Y-69124482D01*
X148950498Y-69244180D01*
X149009463Y-69354494D01*
X149088815Y-69451185D01*
X149185506Y-69530537D01*
X149295820Y-69589502D01*
X149415518Y-69625812D01*
X149540000Y-69638072D01*
X150740000Y-69638072D01*
X150864482Y-69625812D01*
X150984180Y-69589502D01*
X151094494Y-69530537D01*
X151191185Y-69451185D01*
X151270537Y-69354494D01*
X151329502Y-69244180D01*
X151365812Y-69124482D01*
X151378072Y-69000000D01*
X151378072Y-68285750D01*
X151445000Y-68285750D01*
X151445000Y-69062542D01*
X151469403Y-69185223D01*
X151517270Y-69300785D01*
X151586763Y-69404789D01*
X151675211Y-69493237D01*
X151779215Y-69562730D01*
X151894777Y-69610597D01*
X152017458Y-69635000D01*
X152394250Y-69635000D01*
X152553000Y-69476250D01*
X152553000Y-68127000D01*
X152807000Y-68127000D01*
X152807000Y-69476250D01*
X152965750Y-69635000D01*
X153342542Y-69635000D01*
X153465223Y-69610597D01*
X153580785Y-69562730D01*
X153684789Y-69493237D01*
X153773237Y-69404789D01*
X153842730Y-69300785D01*
X153890597Y-69185223D01*
X153915000Y-69062542D01*
X153915000Y-68285750D01*
X153756250Y-68127000D01*
X152807000Y-68127000D01*
X152553000Y-68127000D01*
X151603750Y-68127000D01*
X151445000Y-68285750D01*
X151378072Y-68285750D01*
X151378072Y-67436730D01*
X151445000Y-67369802D01*
X151445000Y-67714250D01*
X151603750Y-67873000D01*
X152553000Y-67873000D01*
X152553000Y-67853000D01*
X152807000Y-67853000D01*
X152807000Y-67873000D01*
X153756250Y-67873000D01*
X153915000Y-67714250D01*
X153915000Y-67234999D01*
X157525889Y-67234999D01*
X157478724Y-67299119D01*
G36*
X150898750Y-84123000D02*
X151873000Y-84123000D01*
X151873000Y-84103000D01*
X152127000Y-84103000D01*
X152127000Y-84123000D01*
X152147000Y-84123000D01*
X152147000Y-84377000D01*
X152127000Y-84377000D01*
X152127000Y-84397000D01*
X151873000Y-84397000D01*
X151873000Y-84377000D01*
X150898750Y-84377000D01*
X150740000Y-84535750D01*
X150740000Y-85062542D01*
X150764403Y-85185223D01*
X150812270Y-85300785D01*
X150881763Y-85404789D01*
X150970211Y-85493237D01*
X150981966Y-85501092D01*
X150923815Y-85548815D01*
X150844463Y-85645506D01*
X150785498Y-85755820D01*
X150749188Y-85875518D01*
X150737913Y-85990000D01*
X150268072Y-85990000D01*
X150268072Y-85625000D01*
X150255812Y-85500518D01*
X150247789Y-85474069D01*
X150265000Y-85387542D01*
X150265000Y-85285750D01*
X150106250Y-85127000D01*
X150024141Y-85127000D01*
X149984494Y-85094463D01*
X149874180Y-85035498D01*
X149757159Y-85000000D01*
X149874180Y-84964502D01*
X149984494Y-84905537D01*
X150024141Y-84873000D01*
X150106250Y-84873000D01*
X150265000Y-84714250D01*
X150265000Y-84639151D01*
X150289398Y-84619252D01*
X150342416Y-84576929D01*
X150347794Y-84571625D01*
X150347906Y-84571534D01*
X150347992Y-84571430D01*
X150349723Y-84569723D01*
X150847598Y-84071848D01*
X150898750Y-84123000D01*
X150898750Y-84123000D01*
G37*
X150898750Y-84123000D02*
X151873000Y-84123000D01*
X151873000Y-84103000D01*
X152127000Y-84103000D01*
X152127000Y-84123000D01*
X152147000Y-84123000D01*
X152147000Y-84377000D01*
X152127000Y-84377000D01*
X152127000Y-84397000D01*
X151873000Y-84397000D01*
X151873000Y-84377000D01*
X150898750Y-84377000D01*
X150740000Y-84535750D01*
X150740000Y-85062542D01*
X150764403Y-85185223D01*
X150812270Y-85300785D01*
X150881763Y-85404789D01*
X150970211Y-85493237D01*
X150981966Y-85501092D01*
X150923815Y-85548815D01*
X150844463Y-85645506D01*
X150785498Y-85755820D01*
X150749188Y-85875518D01*
X150737913Y-85990000D01*
X150268072Y-85990000D01*
X150268072Y-85625000D01*
X150255812Y-85500518D01*
X150247789Y-85474069D01*
X150265000Y-85387542D01*
X150265000Y-85285750D01*
X150106250Y-85127000D01*
X150024141Y-85127000D01*
X149984494Y-85094463D01*
X149874180Y-85035498D01*
X149757159Y-85000000D01*
X149874180Y-84964502D01*
X149984494Y-84905537D01*
X150024141Y-84873000D01*
X150106250Y-84873000D01*
X150265000Y-84714250D01*
X150265000Y-84639151D01*
X150289398Y-84619252D01*
X150342416Y-84576929D01*
X150347794Y-84571625D01*
X150347906Y-84571534D01*
X150347992Y-84571430D01*
X150349723Y-84569723D01*
X150847598Y-84071848D01*
X150898750Y-84123000D01*
G36*
X152127000Y-79123000D02*
X152147000Y-79123000D01*
X152147000Y-79377000D01*
X152127000Y-79377000D01*
X152127000Y-79397000D01*
X151873000Y-79397000D01*
X151873000Y-79377000D01*
X151853000Y-79377000D01*
X151853000Y-79123000D01*
X151873000Y-79123000D01*
X151873000Y-79103000D01*
X152127000Y-79103000D01*
X152127000Y-79123000D01*
X152127000Y-79123000D01*
G37*
X152127000Y-79123000D02*
X152147000Y-79123000D01*
X152147000Y-79377000D01*
X152127000Y-79377000D01*
X152127000Y-79397000D01*
X151873000Y-79397000D01*
X151873000Y-79377000D01*
X151853000Y-79377000D01*
X151853000Y-79123000D01*
X151873000Y-79123000D01*
X151873000Y-79103000D01*
X152127000Y-79103000D01*
X152127000Y-79123000D01*
G36*
X130405000Y-69189250D02*
X130563750Y-69348000D01*
X131413000Y-69348000D01*
X131413000Y-69328000D01*
X131667000Y-69328000D01*
X131667000Y-69348000D01*
X132516250Y-69348000D01*
X132675000Y-69189250D01*
X132675000Y-68334999D01*
X140685198Y-68334999D01*
X141462599Y-69112400D01*
X141516833Y-69156948D01*
X141570625Y-69202085D01*
X141574129Y-69204011D01*
X141577216Y-69206547D01*
X141639062Y-69239709D01*
X141700604Y-69273542D01*
X141704414Y-69274751D01*
X141707936Y-69276639D01*
X141775104Y-69297175D01*
X141841987Y-69318391D01*
X141845954Y-69318836D01*
X141849781Y-69320006D01*
X141919699Y-69327108D01*
X141989389Y-69334925D01*
X141997194Y-69334979D01*
X141997347Y-69334995D01*
X141997490Y-69334981D01*
X142000000Y-69334999D01*
X143530197Y-69334999D01*
X146557126Y-72361928D01*
X145892651Y-72361928D01*
X145806243Y-72152287D01*
X145634230Y-71893387D01*
X145415205Y-71672827D01*
X145157512Y-71499011D01*
X144870965Y-71378558D01*
X144566479Y-71316056D01*
X144255652Y-71313886D01*
X143950324Y-71372130D01*
X143662123Y-71488571D01*
X143402028Y-71658773D01*
X143179945Y-71876252D01*
X143004334Y-72132726D01*
X142881883Y-72418425D01*
X142817257Y-72722467D01*
X142814090Y-72949286D01*
X139977403Y-70112599D01*
X139923147Y-70068032D01*
X139869377Y-70022914D01*
X139865876Y-70020989D01*
X139862787Y-70018452D01*
X139800935Y-69985287D01*
X139739398Y-69951457D01*
X139735586Y-69950248D01*
X139732067Y-69948361D01*
X139664971Y-69927848D01*
X139598015Y-69906608D01*
X139594043Y-69906162D01*
X139590221Y-69904994D01*
X139520353Y-69897897D01*
X139450613Y-69890074D01*
X139442808Y-69890020D01*
X139442655Y-69890004D01*
X139442512Y-69890018D01*
X139440002Y-69890000D01*
X138787087Y-69890000D01*
X138775812Y-69775518D01*
X138739502Y-69655820D01*
X138680537Y-69545506D01*
X138601185Y-69448815D01*
X138504494Y-69369463D01*
X138394180Y-69310498D01*
X138274482Y-69274188D01*
X138150000Y-69261928D01*
X136850000Y-69261928D01*
X136725518Y-69274188D01*
X136605820Y-69310498D01*
X136495506Y-69369463D01*
X136398815Y-69448815D01*
X136319463Y-69545506D01*
X136260498Y-69655820D01*
X136224188Y-69775518D01*
X136211928Y-69900000D01*
X136211928Y-69999209D01*
X136186075Y-70012610D01*
X136182952Y-70015103D01*
X136179422Y-70016980D01*
X136125013Y-70061355D01*
X136070154Y-70105148D01*
X136064594Y-70110631D01*
X136064478Y-70110726D01*
X136064389Y-70110834D01*
X136062599Y-70112599D01*
X134685198Y-71490000D01*
X132498026Y-71490000D01*
X132533237Y-71454789D01*
X132602730Y-71350785D01*
X132650597Y-71235223D01*
X132675000Y-71112542D01*
X132675000Y-69760750D01*
X132516250Y-69602000D01*
X131667000Y-69602000D01*
X131667000Y-69622000D01*
X131413000Y-69622000D01*
X131413000Y-69602000D01*
X130563750Y-69602000D01*
X130405000Y-69760750D01*
X130405000Y-71112542D01*
X130429403Y-71235223D01*
X130477270Y-71350785D01*
X130546763Y-71454789D01*
X130581974Y-71490000D01*
X129960364Y-71490000D01*
X130030537Y-71404494D01*
X130089502Y-71294180D01*
X130125812Y-71174482D01*
X130138072Y-71050000D01*
X130138072Y-68334999D01*
X130405000Y-68334999D01*
X130405000Y-69189250D01*
X130405000Y-69189250D01*
G37*
X130405000Y-69189250D02*
X130563750Y-69348000D01*
X131413000Y-69348000D01*
X131413000Y-69328000D01*
X131667000Y-69328000D01*
X131667000Y-69348000D01*
X132516250Y-69348000D01*
X132675000Y-69189250D01*
X132675000Y-68334999D01*
X140685198Y-68334999D01*
X141462599Y-69112400D01*
X141516833Y-69156948D01*
X141570625Y-69202085D01*
X141574129Y-69204011D01*
X141577216Y-69206547D01*
X141639062Y-69239709D01*
X141700604Y-69273542D01*
X141704414Y-69274751D01*
X141707936Y-69276639D01*
X141775104Y-69297175D01*
X141841987Y-69318391D01*
X141845954Y-69318836D01*
X141849781Y-69320006D01*
X141919699Y-69327108D01*
X141989389Y-69334925D01*
X141997194Y-69334979D01*
X141997347Y-69334995D01*
X141997490Y-69334981D01*
X142000000Y-69334999D01*
X143530197Y-69334999D01*
X146557126Y-72361928D01*
X145892651Y-72361928D01*
X145806243Y-72152287D01*
X145634230Y-71893387D01*
X145415205Y-71672827D01*
X145157512Y-71499011D01*
X144870965Y-71378558D01*
X144566479Y-71316056D01*
X144255652Y-71313886D01*
X143950324Y-71372130D01*
X143662123Y-71488571D01*
X143402028Y-71658773D01*
X143179945Y-71876252D01*
X143004334Y-72132726D01*
X142881883Y-72418425D01*
X142817257Y-72722467D01*
X142814090Y-72949286D01*
X139977403Y-70112599D01*
X139923147Y-70068032D01*
X139869377Y-70022914D01*
X139865876Y-70020989D01*
X139862787Y-70018452D01*
X139800935Y-69985287D01*
X139739398Y-69951457D01*
X139735586Y-69950248D01*
X139732067Y-69948361D01*
X139664971Y-69927848D01*
X139598015Y-69906608D01*
X139594043Y-69906162D01*
X139590221Y-69904994D01*
X139520353Y-69897897D01*
X139450613Y-69890074D01*
X139442808Y-69890020D01*
X139442655Y-69890004D01*
X139442512Y-69890018D01*
X139440002Y-69890000D01*
X138787087Y-69890000D01*
X138775812Y-69775518D01*
X138739502Y-69655820D01*
X138680537Y-69545506D01*
X138601185Y-69448815D01*
X138504494Y-69369463D01*
X138394180Y-69310498D01*
X138274482Y-69274188D01*
X138150000Y-69261928D01*
X136850000Y-69261928D01*
X136725518Y-69274188D01*
X136605820Y-69310498D01*
X136495506Y-69369463D01*
X136398815Y-69448815D01*
X136319463Y-69545506D01*
X136260498Y-69655820D01*
X136224188Y-69775518D01*
X136211928Y-69900000D01*
X136211928Y-69999209D01*
X136186075Y-70012610D01*
X136182952Y-70015103D01*
X136179422Y-70016980D01*
X136125013Y-70061355D01*
X136070154Y-70105148D01*
X136064594Y-70110631D01*
X136064478Y-70110726D01*
X136064389Y-70110834D01*
X136062599Y-70112599D01*
X134685198Y-71490000D01*
X132498026Y-71490000D01*
X132533237Y-71454789D01*
X132602730Y-71350785D01*
X132650597Y-71235223D01*
X132675000Y-71112542D01*
X132675000Y-69760750D01*
X132516250Y-69602000D01*
X131667000Y-69602000D01*
X131667000Y-69622000D01*
X131413000Y-69622000D01*
X131413000Y-69602000D01*
X130563750Y-69602000D01*
X130405000Y-69760750D01*
X130405000Y-71112542D01*
X130429403Y-71235223D01*
X130477270Y-71350785D01*
X130546763Y-71454789D01*
X130581974Y-71490000D01*
X129960364Y-71490000D01*
X130030537Y-71404494D01*
X130089502Y-71294180D01*
X130125812Y-71174482D01*
X130138072Y-71050000D01*
X130138072Y-68334999D01*
X130405000Y-68334999D01*
X130405000Y-69189250D01*
G36*
X160000000Y-69820395D02*
X160014143Y-69806253D01*
X160193748Y-69985858D01*
X160179605Y-70000000D01*
X161057931Y-70878326D01*
X161045383Y-70886538D01*
X160900364Y-71028552D01*
X160879467Y-71059072D01*
X160000000Y-70179605D01*
X159121256Y-71058349D01*
X159108892Y-71039740D01*
X158965870Y-70895716D01*
X158941271Y-70879124D01*
X159820395Y-70000000D01*
X158943016Y-69122621D01*
X158943237Y-69122481D01*
X159090225Y-68982507D01*
X159119960Y-68940355D01*
X160000000Y-69820395D01*
X160000000Y-69820395D01*
G37*
X160000000Y-69820395D02*
X160014143Y-69806253D01*
X160193748Y-69985858D01*
X160179605Y-70000000D01*
X161057931Y-70878326D01*
X161045383Y-70886538D01*
X160900364Y-71028552D01*
X160879467Y-71059072D01*
X160000000Y-70179605D01*
X159121256Y-71058349D01*
X159108892Y-71039740D01*
X158965870Y-70895716D01*
X158941271Y-70879124D01*
X159820395Y-70000000D01*
X158943016Y-69122621D01*
X158943237Y-69122481D01*
X159090225Y-68982507D01*
X159119960Y-68940355D01*
X160000000Y-69820395D01*
G36*
X143530197Y-67814999D02*
X142314802Y-67814999D01*
X141537401Y-67037598D01*
X141290839Y-66872851D01*
X141000000Y-66814999D01*
X128239999Y-66814999D01*
X127949160Y-66872851D01*
X127730000Y-67019289D01*
X127510840Y-66872851D01*
X127220001Y-66814999D01*
X123498003Y-66814999D01*
X123207163Y-66872851D01*
X122960602Y-67037598D01*
X122710856Y-67287344D01*
X122175189Y-66750741D01*
X120766175Y-66165667D01*
X119240518Y-66164336D01*
X117830485Y-66746950D01*
X116750741Y-67824811D01*
X116165667Y-69233825D01*
X116164336Y-70759482D01*
X116746950Y-72169515D01*
X117824811Y-73249259D01*
X118514999Y-73535850D01*
X118514999Y-106464114D01*
X117830485Y-106746950D01*
X116750741Y-107824811D01*
X116165667Y-109233825D01*
X116164336Y-110759482D01*
X116746950Y-112169515D01*
X117824811Y-113249259D01*
X119233825Y-113834333D01*
X120759482Y-113835664D01*
X122169515Y-113253050D01*
X123249259Y-112175189D01*
X123535850Y-111485001D01*
X156505434Y-111485001D01*
X156746950Y-112069515D01*
X157824811Y-113149259D01*
X159233825Y-113734333D01*
X160759482Y-113735664D01*
X162169515Y-113153050D01*
X163249259Y-112075189D01*
X163834333Y-110666175D01*
X163835664Y-109140518D01*
X163253050Y-107730485D01*
X162712655Y-107189145D01*
X163812402Y-106089398D01*
X163977149Y-105842836D01*
X164035001Y-105551997D01*
X164035001Y-102479999D01*
X164000669Y-102307401D01*
X163977149Y-102189159D01*
X163929046Y-102117169D01*
X164290000Y-101756215D01*
X164290000Y-109830350D01*
X164279123Y-109856609D01*
X163927043Y-111626634D01*
X163005629Y-113005629D01*
X161626634Y-113927043D01*
X159856609Y-114279123D01*
X159830350Y-114290000D01*
X120169650Y-114290000D01*
X120143391Y-114279123D01*
X118373366Y-113927043D01*
X116994371Y-113005629D01*
X116072957Y-111626634D01*
X115720877Y-109856609D01*
X115710000Y-109830350D01*
X115710000Y-70169650D01*
X115720877Y-70143391D01*
X116072957Y-68373366D01*
X116994371Y-66994371D01*
X118373366Y-66072957D01*
X120143391Y-65720877D01*
X120169650Y-65710000D01*
X145635196Y-65710000D01*
X143530197Y-67814999D01*
X143530197Y-67814999D01*
G37*
X143530197Y-67814999D02*
X142314802Y-67814999D01*
X141537401Y-67037598D01*
X141290839Y-66872851D01*
X141000000Y-66814999D01*
X128239999Y-66814999D01*
X127949160Y-66872851D01*
X127730000Y-67019289D01*
X127510840Y-66872851D01*
X127220001Y-66814999D01*
X123498003Y-66814999D01*
X123207163Y-66872851D01*
X122960602Y-67037598D01*
X122710856Y-67287344D01*
X122175189Y-66750741D01*
X120766175Y-66165667D01*
X119240518Y-66164336D01*
X117830485Y-66746950D01*
X116750741Y-67824811D01*
X116165667Y-69233825D01*
X116164336Y-70759482D01*
X116746950Y-72169515D01*
X117824811Y-73249259D01*
X118514999Y-73535850D01*
X118514999Y-106464114D01*
X117830485Y-106746950D01*
X116750741Y-107824811D01*
X116165667Y-109233825D01*
X116164336Y-110759482D01*
X116746950Y-112169515D01*
X117824811Y-113249259D01*
X119233825Y-113834333D01*
X120759482Y-113835664D01*
X122169515Y-113253050D01*
X123249259Y-112175189D01*
X123535850Y-111485001D01*
X156505434Y-111485001D01*
X156746950Y-112069515D01*
X157824811Y-113149259D01*
X159233825Y-113734333D01*
X160759482Y-113735664D01*
X162169515Y-113153050D01*
X163249259Y-112075189D01*
X163834333Y-110666175D01*
X163835664Y-109140518D01*
X163253050Y-107730485D01*
X162712655Y-107189145D01*
X163812402Y-106089398D01*
X163977149Y-105842836D01*
X164035001Y-105551997D01*
X164035001Y-102479999D01*
X164000669Y-102307401D01*
X163977149Y-102189159D01*
X163929046Y-102117169D01*
X164290000Y-101756215D01*
X164290000Y-109830350D01*
X164279123Y-109856609D01*
X163927043Y-111626634D01*
X163005629Y-113005629D01*
X161626634Y-113927043D01*
X159856609Y-114279123D01*
X159830350Y-114290000D01*
X120169650Y-114290000D01*
X120143391Y-114279123D01*
X118373366Y-113927043D01*
X116994371Y-113005629D01*
X116072957Y-111626634D01*
X115720877Y-109856609D01*
X115710000Y-109830350D01*
X115710000Y-70169650D01*
X115720877Y-70143391D01*
X116072957Y-68373366D01*
X116994371Y-66994371D01*
X118373366Y-66072957D01*
X120143391Y-65720877D01*
X120169650Y-65710000D01*
X145635196Y-65710000D01*
X143530197Y-67814999D01*
G36*
X125312560Y-70622638D02*
X123762588Y-72172610D01*
X123597841Y-72419172D01*
X123539989Y-72710011D01*
X123539989Y-75661402D01*
X123597841Y-75952241D01*
X123762588Y-76198803D01*
X124976198Y-77412413D01*
X125222760Y-77577160D01*
X125240000Y-77580589D01*
X125240000Y-102162824D01*
X125297852Y-102453663D01*
X125462599Y-102700225D01*
X128799773Y-106037399D01*
X129046335Y-106202146D01*
X129337174Y-106259998D01*
X154767374Y-106260000D01*
X154879798Y-106372424D01*
X155126360Y-106537171D01*
X155417199Y-106595023D01*
X157956158Y-106595023D01*
X157830485Y-106646950D01*
X156750741Y-107724811D01*
X156165667Y-109133825D01*
X156164942Y-109965001D01*
X123835032Y-109965001D01*
X123835664Y-109240518D01*
X123253050Y-107830485D01*
X122175189Y-106750741D01*
X120766175Y-106165667D01*
X120034999Y-106165029D01*
X120034999Y-73835032D01*
X120759482Y-73835664D01*
X122169515Y-73253050D01*
X123249259Y-72175189D01*
X123834333Y-70766175D01*
X123835664Y-69240518D01*
X123564223Y-68583581D01*
X123812805Y-68334999D01*
X125312560Y-68334999D01*
X125312560Y-70622638D01*
X125312560Y-70622638D01*
G37*
X125312560Y-70622638D02*
X123762588Y-72172610D01*
X123597841Y-72419172D01*
X123539989Y-72710011D01*
X123539989Y-75661402D01*
X123597841Y-75952241D01*
X123762588Y-76198803D01*
X124976198Y-77412413D01*
X125222760Y-77577160D01*
X125240000Y-77580589D01*
X125240000Y-102162824D01*
X125297852Y-102453663D01*
X125462599Y-102700225D01*
X128799773Y-106037399D01*
X129046335Y-106202146D01*
X129337174Y-106259998D01*
X154767374Y-106260000D01*
X154879798Y-106372424D01*
X155126360Y-106537171D01*
X155417199Y-106595023D01*
X157956158Y-106595023D01*
X157830485Y-106646950D01*
X156750741Y-107724811D01*
X156165667Y-109133825D01*
X156164942Y-109965001D01*
X123835032Y-109965001D01*
X123835664Y-109240518D01*
X123253050Y-107830485D01*
X122175189Y-106750741D01*
X120766175Y-106165667D01*
X120034999Y-106165029D01*
X120034999Y-73835032D01*
X120759482Y-73835664D01*
X122169515Y-73253050D01*
X123249259Y-72175189D01*
X123834333Y-70766175D01*
X123835664Y-69240518D01*
X123564223Y-68583581D01*
X123812805Y-68334999D01*
X125312560Y-68334999D01*
X125312560Y-70622638D01*
G36*
X161202235Y-105208157D02*
X161450000Y-105257440D01*
X162494756Y-105257440D01*
X161416493Y-106335703D01*
X160766175Y-106065667D01*
X159240518Y-106064336D01*
X158878853Y-106213773D01*
X160022626Y-105070000D01*
X160995470Y-105070000D01*
X161202235Y-105208157D01*
X161202235Y-105208157D01*
G37*
X161202235Y-105208157D02*
X161450000Y-105257440D01*
X162494756Y-105257440D01*
X161416493Y-106335703D01*
X160766175Y-106065667D01*
X159240518Y-106064336D01*
X158878853Y-106213773D01*
X160022626Y-105070000D01*
X160995470Y-105070000D01*
X161202235Y-105208157D01*
G36*
X147529160Y-101652148D02*
X147556630Y-101657612D01*
X147562760Y-101658831D01*
X147612191Y-101732809D01*
X147822235Y-101873157D01*
X148070000Y-101922440D01*
X148219080Y-101922440D01*
X148312599Y-102062401D01*
X148537599Y-102287401D01*
X148784161Y-102452148D01*
X149075000Y-102510000D01*
X150729549Y-102510000D01*
X150776843Y-102747765D01*
X150917191Y-102957809D01*
X151127235Y-103098157D01*
X151375000Y-103147440D01*
X152625000Y-103147440D01*
X152872765Y-103098157D01*
X153082809Y-102957809D01*
X153223157Y-102747765D01*
X153272440Y-102500000D01*
X153272440Y-102271886D01*
X154840530Y-103839977D01*
X130024777Y-103839977D01*
X129337240Y-103152440D01*
X129800000Y-103152440D01*
X130047765Y-103103157D01*
X130257809Y-102962809D01*
X130398157Y-102752765D01*
X130401690Y-102735001D01*
X139649999Y-102735001D01*
X139940838Y-102677149D01*
X140187400Y-102512402D01*
X140427362Y-102272440D01*
X141500000Y-102272440D01*
X141747765Y-102223157D01*
X141917115Y-102110000D01*
X142204549Y-102110000D01*
X142251843Y-102347765D01*
X142392191Y-102557809D01*
X142602235Y-102698157D01*
X142850000Y-102747440D01*
X144150000Y-102747440D01*
X144397765Y-102698157D01*
X144607809Y-102557809D01*
X144748157Y-102347765D01*
X144797440Y-102100000D01*
X144797440Y-101710000D01*
X144896950Y-101710000D01*
X144912191Y-101732809D01*
X145122235Y-101873157D01*
X145370000Y-101922440D01*
X146930000Y-101922440D01*
X147177765Y-101873157D01*
X147387809Y-101732809D01*
X147468699Y-101611749D01*
X147529160Y-101652148D01*
X147529160Y-101652148D01*
G37*
X147529160Y-101652148D02*
X147556630Y-101657612D01*
X147562760Y-101658831D01*
X147612191Y-101732809D01*
X147822235Y-101873157D01*
X148070000Y-101922440D01*
X148219080Y-101922440D01*
X148312599Y-102062401D01*
X148537599Y-102287401D01*
X148784161Y-102452148D01*
X149075000Y-102510000D01*
X150729549Y-102510000D01*
X150776843Y-102747765D01*
X150917191Y-102957809D01*
X151127235Y-103098157D01*
X151375000Y-103147440D01*
X152625000Y-103147440D01*
X152872765Y-103098157D01*
X153082809Y-102957809D01*
X153223157Y-102747765D01*
X153272440Y-102500000D01*
X153272440Y-102271886D01*
X154840530Y-103839977D01*
X130024777Y-103839977D01*
X129337240Y-103152440D01*
X129800000Y-103152440D01*
X130047765Y-103103157D01*
X130257809Y-102962809D01*
X130398157Y-102752765D01*
X130401690Y-102735001D01*
X139649999Y-102735001D01*
X139940838Y-102677149D01*
X140187400Y-102512402D01*
X140427362Y-102272440D01*
X141500000Y-102272440D01*
X141747765Y-102223157D01*
X141917115Y-102110000D01*
X142204549Y-102110000D01*
X142251843Y-102347765D01*
X142392191Y-102557809D01*
X142602235Y-102698157D01*
X142850000Y-102747440D01*
X144150000Y-102747440D01*
X144397765Y-102698157D01*
X144607809Y-102557809D01*
X144748157Y-102347765D01*
X144797440Y-102100000D01*
X144797440Y-101710000D01*
X144896950Y-101710000D01*
X144912191Y-101732809D01*
X145122235Y-101873157D01*
X145370000Y-101922440D01*
X146930000Y-101922440D01*
X147177765Y-101873157D01*
X147387809Y-101732809D01*
X147468699Y-101611749D01*
X147529160Y-101652148D01*
G36*
X158265000Y-101304447D02*
X158265000Y-102255553D01*
X158100156Y-102420397D01*
X158089868Y-102405000D01*
X158148157Y-102317765D01*
X158197440Y-102070000D01*
X158197440Y-101470000D01*
X158148157Y-101222235D01*
X158089868Y-101135000D01*
X158092145Y-101131592D01*
X158265000Y-101304447D01*
X158265000Y-101304447D01*
G37*
X158265000Y-101304447D02*
X158265000Y-102255553D01*
X158100156Y-102420397D01*
X158089868Y-102405000D01*
X158148157Y-102317765D01*
X158197440Y-102070000D01*
X158197440Y-101470000D01*
X158148157Y-101222235D01*
X158089868Y-101135000D01*
X158092145Y-101131592D01*
X158265000Y-101304447D01*
G36*
X155330277Y-101019724D02*
X155507869Y-101138387D01*
X155451843Y-101222235D01*
X155402560Y-101470000D01*
X155402560Y-102070000D01*
X155451843Y-102317765D01*
X155510132Y-102405000D01*
X155499844Y-102420397D01*
X153660001Y-100580555D01*
X153660001Y-100300001D01*
X153604052Y-100018729D01*
X153444725Y-99780278D01*
X153272440Y-99607993D01*
X153272440Y-98961886D01*
X155330277Y-101019724D01*
X155330277Y-101019724D01*
G37*
X155330277Y-101019724D02*
X155507869Y-101138387D01*
X155451843Y-101222235D01*
X155402560Y-101470000D01*
X155402560Y-102070000D01*
X155451843Y-102317765D01*
X155510132Y-102405000D01*
X155499844Y-102420397D01*
X153660001Y-100580555D01*
X153660001Y-100300001D01*
X153604052Y-100018729D01*
X153444725Y-99780278D01*
X153272440Y-99607993D01*
X153272440Y-98961886D01*
X155330277Y-101019724D01*
G36*
X159847841Y-100857759D02*
X159789989Y-101148598D01*
X159789989Y-101880211D01*
X159735000Y-101935200D01*
X159735000Y-100839802D01*
X159939803Y-100634999D01*
X159996684Y-100634999D01*
X159847841Y-100857759D01*
X159847841Y-100857759D01*
G37*
X159847841Y-100857759D02*
X159789989Y-101148598D01*
X159789989Y-101880211D01*
X159735000Y-101935200D01*
X159735000Y-100839802D01*
X159939803Y-100634999D01*
X159996684Y-100634999D01*
X159847841Y-100857759D01*
G36*
X131752560Y-101215001D02*
X130439484Y-101215001D01*
X130398157Y-101007235D01*
X130393323Y-101000000D01*
X130398157Y-100992765D01*
X130420587Y-100880000D01*
X131752560Y-100880000D01*
X131752560Y-101215001D01*
X131752560Y-101215001D01*
G37*
X131752560Y-101215001D02*
X130439484Y-101215001D01*
X130398157Y-101007235D01*
X130393323Y-101000000D01*
X130398157Y-100992765D01*
X130420587Y-100880000D01*
X131752560Y-100880000D01*
X131752560Y-101215001D01*
G36*
X150729549Y-100990000D02*
X150277440Y-100990000D01*
X150277440Y-100760000D01*
X150775298Y-100760000D01*
X150729549Y-100990000D01*
X150729549Y-100990000D01*
G37*
X150729549Y-100990000D02*
X150277440Y-100990000D01*
X150277440Y-100760000D01*
X150775298Y-100760000D01*
X150729549Y-100990000D01*
G36*
X142251843Y-99647765D02*
X142392191Y-99857809D01*
X142602235Y-99998157D01*
X142611500Y-100000000D01*
X142602235Y-100001843D01*
X142392191Y-100142191D01*
X142251843Y-100352235D01*
X142204549Y-100590000D01*
X142147440Y-100590000D01*
X142147440Y-100375000D01*
X142098157Y-100127235D01*
X142071493Y-100087330D01*
X142198157Y-99897765D01*
X142247440Y-99650000D01*
X142247440Y-99625629D01*
X142251843Y-99647765D01*
X142251843Y-99647765D01*
G37*
X142251843Y-99647765D02*
X142392191Y-99857809D01*
X142602235Y-99998157D01*
X142611500Y-100000000D01*
X142602235Y-100001843D01*
X142392191Y-100142191D01*
X142251843Y-100352235D01*
X142204549Y-100590000D01*
X142147440Y-100590000D01*
X142147440Y-100375000D01*
X142098157Y-100127235D01*
X142071493Y-100087330D01*
X142198157Y-99897765D01*
X142247440Y-99650000D01*
X142247440Y-99625629D01*
X142251843Y-99647765D01*
G36*
X144912191Y-99832809D02*
X145122235Y-99973157D01*
X145257185Y-100000000D01*
X145122235Y-100026843D01*
X144912191Y-100167191D01*
X144896950Y-100190000D01*
X144639754Y-100190000D01*
X144607809Y-100142191D01*
X144397765Y-100001843D01*
X144388500Y-100000000D01*
X144397765Y-99998157D01*
X144607809Y-99857809D01*
X144639754Y-99810000D01*
X144896950Y-99810000D01*
X144912191Y-99832809D01*
X144912191Y-99832809D01*
G37*
X144912191Y-99832809D02*
X145122235Y-99973157D01*
X145257185Y-100000000D01*
X145122235Y-100026843D01*
X144912191Y-100167191D01*
X144896950Y-100190000D01*
X144639754Y-100190000D01*
X144607809Y-100142191D01*
X144397765Y-100001843D01*
X144388500Y-100000000D01*
X144397765Y-99998157D01*
X144607809Y-99857809D01*
X144639754Y-99810000D01*
X144896950Y-99810000D01*
X144912191Y-99832809D01*
G36*
X134642191Y-99892191D02*
X134501843Y-100102235D01*
X134500000Y-100111500D01*
X134498157Y-100102235D01*
X134387771Y-99937031D01*
X134564802Y-99760000D01*
X134840027Y-99760000D01*
X134642191Y-99892191D01*
X134642191Y-99892191D01*
G37*
X134642191Y-99892191D02*
X134501843Y-100102235D01*
X134500000Y-100111500D01*
X134498157Y-100102235D01*
X134387771Y-99937031D01*
X134564802Y-99760000D01*
X134840027Y-99760000D01*
X134642191Y-99892191D01*
G36*
X139501843Y-99897765D02*
X139528507Y-99937670D01*
X139500000Y-99980334D01*
X139471493Y-99937670D01*
X139498157Y-99897765D01*
X139500000Y-99888500D01*
X139501843Y-99897765D01*
X139501843Y-99897765D01*
G37*
X139501843Y-99897765D02*
X139528507Y-99937670D01*
X139500000Y-99980334D01*
X139471493Y-99937670D01*
X139498157Y-99897765D01*
X139500000Y-99888500D01*
X139501843Y-99897765D01*
G36*
X128462599Y-97487401D02*
X128487600Y-97512402D01*
X128734162Y-97677149D01*
X129025001Y-97735001D01*
X137236906Y-97735001D01*
X137152235Y-97751843D01*
X136942191Y-97892191D01*
X136801843Y-98102235D01*
X136774440Y-98240000D01*
X134250000Y-98240000D01*
X133959161Y-98297852D01*
X133712599Y-98462599D01*
X132815198Y-99360000D01*
X130420587Y-99360000D01*
X130398157Y-99247235D01*
X130257809Y-99037191D01*
X130047765Y-98896843D01*
X129800000Y-98847560D01*
X128200000Y-98847560D01*
X127952235Y-98896843D01*
X127784999Y-99008587D01*
X127784999Y-97347440D01*
X128369080Y-97347440D01*
X128462599Y-97487401D01*
X128462599Y-97487401D01*
G37*
X128462599Y-97487401D02*
X128487600Y-97512402D01*
X128734162Y-97677149D01*
X129025001Y-97735001D01*
X137236906Y-97735001D01*
X137152235Y-97751843D01*
X136942191Y-97892191D01*
X136801843Y-98102235D01*
X136774440Y-98240000D01*
X134250000Y-98240000D01*
X133959161Y-98297852D01*
X133712599Y-98462599D01*
X132815198Y-99360000D01*
X130420587Y-99360000D01*
X130398157Y-99247235D01*
X130257809Y-99037191D01*
X130047765Y-98896843D01*
X129800000Y-98847560D01*
X128200000Y-98847560D01*
X127952235Y-98896843D01*
X127784999Y-99008587D01*
X127784999Y-97347440D01*
X128369080Y-97347440D01*
X128462599Y-97487401D01*
G36*
X164090020Y-99289234D02*
X163915841Y-99172851D01*
X163625001Y-99114999D01*
X163597440Y-99114999D01*
X163597440Y-98930000D01*
X163548157Y-98682235D01*
X163521186Y-98641871D01*
X163737401Y-98497401D01*
X164037401Y-98197401D01*
X164090020Y-98118651D01*
X164090020Y-99289234D01*
X164090020Y-99289234D01*
G37*
X164090020Y-99289234D02*
X163915841Y-99172851D01*
X163625001Y-99114999D01*
X163597440Y-99114999D01*
X163597440Y-98930000D01*
X163548157Y-98682235D01*
X163521186Y-98641871D01*
X163737401Y-98497401D01*
X164037401Y-98197401D01*
X164090020Y-98118651D01*
X164090020Y-99289234D01*
G36*
X150727560Y-99240000D02*
X150277440Y-99240000D01*
X150277440Y-99117007D01*
X150459448Y-98934999D01*
X150727560Y-98934999D01*
X150727560Y-99240000D01*
X150727560Y-99240000D01*
G37*
X150727560Y-99240000D02*
X150277440Y-99240000D01*
X150277440Y-99117007D01*
X150459448Y-98934999D01*
X150727560Y-98934999D01*
X150727560Y-99240000D01*
G36*
X160802560Y-98260000D02*
X160851843Y-98507765D01*
X160910132Y-98595000D01*
X160851843Y-98682235D01*
X160802560Y-98930000D01*
X160802560Y-99114999D01*
X159735000Y-99114999D01*
X159735000Y-98874444D01*
X160684444Y-97925001D01*
X160802560Y-97925001D01*
X160802560Y-98260000D01*
X160802560Y-98260000D01*
G37*
X160802560Y-98260000D02*
X160851843Y-98507765D01*
X160910132Y-98595000D01*
X160851843Y-98682235D01*
X160802560Y-98930000D01*
X160802560Y-99114999D01*
X159735000Y-99114999D01*
X159735000Y-98874444D01*
X160684444Y-97925001D01*
X160802560Y-97925001D01*
X160802560Y-98260000D01*
G36*
X147529160Y-96652148D02*
X147562760Y-96658831D01*
X147594246Y-96705952D01*
X147207598Y-97092600D01*
X147042851Y-97339162D01*
X146984999Y-97630001D01*
X146984999Y-98088500D01*
X146930000Y-98077560D01*
X145370000Y-98077560D01*
X145122235Y-98126843D01*
X144912191Y-98267191D01*
X144896950Y-98290000D01*
X144797440Y-98290000D01*
X144797440Y-97900000D01*
X144748157Y-97652235D01*
X144646436Y-97500000D01*
X144748157Y-97347765D01*
X144797440Y-97100000D01*
X144797440Y-96710000D01*
X144896950Y-96710000D01*
X144912191Y-96732809D01*
X145122235Y-96873157D01*
X145370000Y-96922440D01*
X146930000Y-96922440D01*
X147177765Y-96873157D01*
X147387809Y-96732809D01*
X147468699Y-96611749D01*
X147529160Y-96652148D01*
X147529160Y-96652148D01*
G37*
X147529160Y-96652148D02*
X147562760Y-96658831D01*
X147594246Y-96705952D01*
X147207598Y-97092600D01*
X147042851Y-97339162D01*
X146984999Y-97630001D01*
X146984999Y-98088500D01*
X146930000Y-98077560D01*
X145370000Y-98077560D01*
X145122235Y-98126843D01*
X144912191Y-98267191D01*
X144896950Y-98290000D01*
X144797440Y-98290000D01*
X144797440Y-97900000D01*
X144748157Y-97652235D01*
X144646436Y-97500000D01*
X144748157Y-97347765D01*
X144797440Y-97100000D01*
X144797440Y-96710000D01*
X144896950Y-96710000D01*
X144912191Y-96732809D01*
X145122235Y-96873157D01*
X145370000Y-96922440D01*
X146930000Y-96922440D01*
X147177765Y-96873157D01*
X147387809Y-96732809D01*
X147468699Y-96611749D01*
X147529160Y-96652148D01*
G36*
X142251843Y-97347765D02*
X142353564Y-97500000D01*
X142251843Y-97652235D01*
X142204549Y-97890000D01*
X142054530Y-97890000D01*
X141847765Y-97751843D01*
X141600000Y-97702560D01*
X140100000Y-97702560D01*
X139852235Y-97751843D01*
X139642191Y-97892191D01*
X139501843Y-98102235D01*
X139500000Y-98111500D01*
X139498157Y-98102235D01*
X139357809Y-97892191D01*
X139147765Y-97751843D01*
X139063094Y-97735001D01*
X139649999Y-97735001D01*
X139940838Y-97677149D01*
X140187400Y-97512402D01*
X140427362Y-97272440D01*
X141500000Y-97272440D01*
X141747765Y-97223157D01*
X141917115Y-97110000D01*
X142204549Y-97110000D01*
X142251843Y-97347765D01*
X142251843Y-97347765D01*
G37*
X142251843Y-97347765D02*
X142353564Y-97500000D01*
X142251843Y-97652235D01*
X142204549Y-97890000D01*
X142054530Y-97890000D01*
X141847765Y-97751843D01*
X141600000Y-97702560D01*
X140100000Y-97702560D01*
X139852235Y-97751843D01*
X139642191Y-97892191D01*
X139501843Y-98102235D01*
X139500000Y-98111500D01*
X139498157Y-98102235D01*
X139357809Y-97892191D01*
X139147765Y-97751843D01*
X139063094Y-97735001D01*
X139649999Y-97735001D01*
X139940838Y-97677149D01*
X140187400Y-97512402D01*
X140427362Y-97272440D01*
X141500000Y-97272440D01*
X141747765Y-97223157D01*
X141917115Y-97110000D01*
X142204549Y-97110000D01*
X142251843Y-97347765D01*
G36*
X149075000Y-97510000D02*
X149928768Y-97510000D01*
X149873729Y-97520948D01*
X149635278Y-97680275D01*
X149237993Y-98077560D01*
X148504999Y-98077560D01*
X148504999Y-97944803D01*
X148962233Y-97487569D01*
X149075000Y-97510000D01*
X149075000Y-97510000D01*
G37*
X149075000Y-97510000D02*
X149928768Y-97510000D01*
X149873729Y-97520948D01*
X149635278Y-97680275D01*
X149237993Y-98077560D01*
X148504999Y-98077560D01*
X148504999Y-97944803D01*
X148962233Y-97487569D01*
X149075000Y-97510000D01*
G36*
X153414956Y-96829403D02*
X153414956Y-97464999D01*
X153272440Y-97464999D01*
X153272440Y-96686887D01*
X153414956Y-96829403D01*
X153414956Y-96829403D01*
G37*
X153414956Y-96829403D02*
X153414956Y-97464999D01*
X153272440Y-97464999D01*
X153272440Y-96686887D01*
X153414956Y-96829403D01*
G36*
X158265000Y-93845503D02*
X158265000Y-96810392D01*
X158197440Y-96765250D01*
X158197440Y-96390000D01*
X158148157Y-96142235D01*
X158007809Y-95932191D01*
X157797765Y-95791843D01*
X157550000Y-95742560D01*
X157535000Y-95742560D01*
X157535000Y-93115503D01*
X158265000Y-93845503D01*
X158265000Y-93845503D01*
G37*
X158265000Y-93845503D02*
X158265000Y-96810392D01*
X158197440Y-96765250D01*
X158197440Y-96390000D01*
X158148157Y-96142235D01*
X158007809Y-95932191D01*
X157797765Y-95791843D01*
X157550000Y-95742560D01*
X157535000Y-95742560D01*
X157535000Y-93115503D01*
X158265000Y-93845503D01*
G36*
X160962229Y-95977031D02*
X160851843Y-96142235D01*
X160802560Y-96390000D01*
X160802560Y-96455001D01*
X160379997Y-96455001D01*
X160145391Y-96501668D01*
X160098724Y-96510950D01*
X159860273Y-96670278D01*
X159735000Y-96795551D01*
X159735000Y-94749802D01*
X160962229Y-95977031D01*
X160962229Y-95977031D01*
G37*
X160962229Y-95977031D02*
X160851843Y-96142235D01*
X160802560Y-96390000D01*
X160802560Y-96455001D01*
X160379997Y-96455001D01*
X160145391Y-96501668D01*
X160098724Y-96510950D01*
X159860273Y-96670278D01*
X159735000Y-96795551D01*
X159735000Y-94749802D01*
X160962229Y-95977031D01*
G36*
X131350000Y-94760000D02*
X132140027Y-94760000D01*
X131942191Y-94892191D01*
X131801843Y-95102235D01*
X131752560Y-95350000D01*
X131752560Y-96215001D01*
X131297440Y-96215001D01*
X131297440Y-96200000D01*
X131248157Y-95952235D01*
X131229959Y-95925000D01*
X131248157Y-95897765D01*
X131297440Y-95650000D01*
X131297440Y-94749545D01*
X131350000Y-94760000D01*
X131350000Y-94760000D01*
G37*
X131350000Y-94760000D02*
X132140027Y-94760000D01*
X131942191Y-94892191D01*
X131801843Y-95102235D01*
X131752560Y-95350000D01*
X131752560Y-96215001D01*
X131297440Y-96215001D01*
X131297440Y-96200000D01*
X131248157Y-95952235D01*
X131229959Y-95925000D01*
X131248157Y-95897765D01*
X131297440Y-95650000D01*
X131297440Y-94749545D01*
X131350000Y-94760000D01*
G36*
X150729549Y-95990000D02*
X150277440Y-95990000D01*
X150277440Y-95760000D01*
X150775298Y-95760000D01*
X150729549Y-95990000D01*
X150729549Y-95990000D01*
G37*
X150729549Y-95990000D02*
X150277440Y-95990000D01*
X150277440Y-95760000D01*
X150775298Y-95760000D01*
X150729549Y-95990000D01*
G36*
X142251843Y-94647765D02*
X142392191Y-94857809D01*
X142602235Y-94998157D01*
X142611500Y-95000000D01*
X142602235Y-95001843D01*
X142392191Y-95142191D01*
X142251843Y-95352235D01*
X142204549Y-95590000D01*
X142147440Y-95590000D01*
X142147440Y-95375000D01*
X142098157Y-95127235D01*
X142071493Y-95087330D01*
X142198157Y-94897765D01*
X142247440Y-94650000D01*
X142247440Y-94625629D01*
X142251843Y-94647765D01*
X142251843Y-94647765D01*
G37*
X142251843Y-94647765D02*
X142392191Y-94857809D01*
X142602235Y-94998157D01*
X142611500Y-95000000D01*
X142602235Y-95001843D01*
X142392191Y-95142191D01*
X142251843Y-95352235D01*
X142204549Y-95590000D01*
X142147440Y-95590000D01*
X142147440Y-95375000D01*
X142098157Y-95127235D01*
X142071493Y-95087330D01*
X142198157Y-94897765D01*
X142247440Y-94650000D01*
X142247440Y-94625629D01*
X142251843Y-94647765D01*
G36*
X163240000Y-93898944D02*
X163297852Y-94189783D01*
X163462599Y-94436345D01*
X164090020Y-95063766D01*
X164090020Y-95494160D01*
X158560000Y-89964140D01*
X158560000Y-84151213D01*
X163240000Y-79471213D01*
X163240000Y-93898944D01*
X163240000Y-93898944D01*
G37*
X163240000Y-93898944D02*
X163297852Y-94189783D01*
X163462599Y-94436345D01*
X164090020Y-95063766D01*
X164090020Y-95494160D01*
X158560000Y-89964140D01*
X158560000Y-84151213D01*
X163240000Y-79471213D01*
X163240000Y-93898944D01*
G36*
X144912191Y-94832809D02*
X145122235Y-94973157D01*
X145257185Y-95000000D01*
X145122235Y-95026843D01*
X144912191Y-95167191D01*
X144896950Y-95190000D01*
X144639754Y-95190000D01*
X144607809Y-95142191D01*
X144397765Y-95001843D01*
X144388500Y-95000000D01*
X144397765Y-94998157D01*
X144607809Y-94857809D01*
X144639754Y-94810000D01*
X144896950Y-94810000D01*
X144912191Y-94832809D01*
X144912191Y-94832809D01*
G37*
X144912191Y-94832809D02*
X145122235Y-94973157D01*
X145257185Y-95000000D01*
X145122235Y-95026843D01*
X144912191Y-95167191D01*
X144896950Y-95190000D01*
X144639754Y-95190000D01*
X144607809Y-95142191D01*
X144397765Y-95001843D01*
X144388500Y-95000000D01*
X144397765Y-94998157D01*
X144607809Y-94857809D01*
X144639754Y-94810000D01*
X144896950Y-94810000D01*
X144912191Y-94832809D01*
G36*
X134642191Y-94892191D02*
X134501843Y-95102235D01*
X134500000Y-95111500D01*
X134498157Y-95102235D01*
X134387771Y-94937031D01*
X134564802Y-94760000D01*
X134840027Y-94760000D01*
X134642191Y-94892191D01*
X134642191Y-94892191D01*
G37*
X134642191Y-94892191D02*
X134501843Y-95102235D01*
X134500000Y-95111500D01*
X134498157Y-95102235D01*
X134387771Y-94937031D01*
X134564802Y-94760000D01*
X134840027Y-94760000D01*
X134642191Y-94892191D01*
G36*
X139501843Y-94897765D02*
X139528507Y-94937670D01*
X139500000Y-94980334D01*
X139471493Y-94937670D01*
X139498157Y-94897765D01*
X139500000Y-94888500D01*
X139501843Y-94897765D01*
X139501843Y-94897765D01*
G37*
X139501843Y-94897765D02*
X139528507Y-94937670D01*
X139500000Y-94980334D01*
X139471493Y-94937670D01*
X139498157Y-94897765D01*
X139500000Y-94888500D01*
X139501843Y-94897765D01*
G36*
X150727560Y-94240000D02*
X150277440Y-94240000D01*
X150277440Y-94117007D01*
X150459448Y-93934999D01*
X150727560Y-93934999D01*
X150727560Y-94240000D01*
X150727560Y-94240000D01*
G37*
X150727560Y-94240000D02*
X150277440Y-94240000D01*
X150277440Y-94117007D01*
X150459448Y-93934999D01*
X150727560Y-93934999D01*
X150727560Y-94240000D01*
G36*
X154214978Y-92629425D02*
X154214978Y-93510530D01*
X153384724Y-92680276D01*
X153253961Y-92592903D01*
X153272440Y-92500000D01*
X153272440Y-91686887D01*
X154214978Y-92629425D01*
X154214978Y-92629425D01*
G37*
X154214978Y-92629425D02*
X154214978Y-93510530D01*
X153384724Y-92680276D01*
X153253961Y-92592903D01*
X153272440Y-92500000D01*
X153272440Y-91686887D01*
X154214978Y-92629425D01*
G36*
X147529160Y-91652148D02*
X147562760Y-91658831D01*
X147594246Y-91705952D01*
X147207598Y-92092600D01*
X147042851Y-92339162D01*
X146984999Y-92630001D01*
X146984999Y-93088500D01*
X146930000Y-93077560D01*
X145370000Y-93077560D01*
X145122235Y-93126843D01*
X144912191Y-93267191D01*
X144896950Y-93290000D01*
X144797440Y-93290000D01*
X144797440Y-92900000D01*
X144748157Y-92652235D01*
X144646436Y-92500000D01*
X144748157Y-92347765D01*
X144797440Y-92100000D01*
X144797440Y-91710000D01*
X144896950Y-91710000D01*
X144912191Y-91732809D01*
X145122235Y-91873157D01*
X145370000Y-91922440D01*
X146930000Y-91922440D01*
X147177765Y-91873157D01*
X147387809Y-91732809D01*
X147468699Y-91611749D01*
X147529160Y-91652148D01*
X147529160Y-91652148D01*
G37*
X147529160Y-91652148D02*
X147562760Y-91658831D01*
X147594246Y-91705952D01*
X147207598Y-92092600D01*
X147042851Y-92339162D01*
X146984999Y-92630001D01*
X146984999Y-93088500D01*
X146930000Y-93077560D01*
X145370000Y-93077560D01*
X145122235Y-93126843D01*
X144912191Y-93267191D01*
X144896950Y-93290000D01*
X144797440Y-93290000D01*
X144797440Y-92900000D01*
X144748157Y-92652235D01*
X144646436Y-92500000D01*
X144748157Y-92347765D01*
X144797440Y-92100000D01*
X144797440Y-91710000D01*
X144896950Y-91710000D01*
X144912191Y-91732809D01*
X145122235Y-91873157D01*
X145370000Y-91922440D01*
X146930000Y-91922440D01*
X147177765Y-91873157D01*
X147387809Y-91732809D01*
X147468699Y-91611749D01*
X147529160Y-91652148D01*
G36*
X130975001Y-92735001D02*
X137236906Y-92735001D01*
X137152235Y-92751843D01*
X136942191Y-92892191D01*
X136801843Y-93102235D01*
X136774440Y-93240000D01*
X131664802Y-93240000D01*
X131437401Y-93012599D01*
X131190839Y-92847852D01*
X131084678Y-92826735D01*
X130935685Y-92727180D01*
X130975001Y-92735001D01*
X130975001Y-92735001D01*
G37*
X130975001Y-92735001D02*
X137236906Y-92735001D01*
X137152235Y-92751843D01*
X136942191Y-92892191D01*
X136801843Y-93102235D01*
X136774440Y-93240000D01*
X131664802Y-93240000D01*
X131437401Y-93012599D01*
X131190839Y-92847852D01*
X131084678Y-92826735D01*
X130935685Y-92727180D01*
X130975001Y-92735001D01*
G36*
X142251843Y-92347765D02*
X142353564Y-92500000D01*
X142251843Y-92652235D01*
X142204549Y-92890000D01*
X142054530Y-92890000D01*
X141847765Y-92751843D01*
X141600000Y-92702560D01*
X140100000Y-92702560D01*
X139852235Y-92751843D01*
X139642191Y-92892191D01*
X139501843Y-93102235D01*
X139500000Y-93111500D01*
X139498157Y-93102235D01*
X139357809Y-92892191D01*
X139147765Y-92751843D01*
X139063094Y-92735001D01*
X139649999Y-92735001D01*
X139940838Y-92677149D01*
X140187400Y-92512402D01*
X140427362Y-92272440D01*
X141500000Y-92272440D01*
X141747765Y-92223157D01*
X141917115Y-92110000D01*
X142204549Y-92110000D01*
X142251843Y-92347765D01*
X142251843Y-92347765D01*
G37*
X142251843Y-92347765D02*
X142353564Y-92500000D01*
X142251843Y-92652235D01*
X142204549Y-92890000D01*
X142054530Y-92890000D01*
X141847765Y-92751843D01*
X141600000Y-92702560D01*
X140100000Y-92702560D01*
X139852235Y-92751843D01*
X139642191Y-92892191D01*
X139501843Y-93102235D01*
X139500000Y-93111500D01*
X139498157Y-93102235D01*
X139357809Y-92892191D01*
X139147765Y-92751843D01*
X139063094Y-92735001D01*
X139649999Y-92735001D01*
X139940838Y-92677149D01*
X140187400Y-92512402D01*
X140427362Y-92272440D01*
X141500000Y-92272440D01*
X141747765Y-92223157D01*
X141917115Y-92110000D01*
X142204549Y-92110000D01*
X142251843Y-92347765D01*
G36*
X149075000Y-92510000D02*
X149928768Y-92510000D01*
X149873729Y-92520948D01*
X149635278Y-92680275D01*
X149237993Y-93077560D01*
X148504999Y-93077560D01*
X148504999Y-92944803D01*
X148962233Y-92487569D01*
X149075000Y-92510000D01*
X149075000Y-92510000D01*
G37*
X149075000Y-92510000D02*
X149928768Y-92510000D01*
X149873729Y-92520948D01*
X149635278Y-92680275D01*
X149237993Y-93077560D01*
X148504999Y-93077560D01*
X148504999Y-92944803D01*
X148962233Y-92487569D01*
X149075000Y-92510000D01*
G36*
X131262599Y-90637401D02*
X131509160Y-90802148D01*
X131752560Y-90850564D01*
X131752560Y-91215001D01*
X131289803Y-91215001D01*
X131137401Y-91062599D01*
X130997440Y-90969080D01*
X130997440Y-90900000D01*
X130948157Y-90652235D01*
X130863141Y-90525000D01*
X130948157Y-90397765D01*
X130960568Y-90335370D01*
X131262599Y-90637401D01*
X131262599Y-90637401D01*
G37*
X131262599Y-90637401D02*
X131509160Y-90802148D01*
X131752560Y-90850564D01*
X131752560Y-91215001D01*
X131289803Y-91215001D01*
X131137401Y-91062599D01*
X130997440Y-90969080D01*
X130997440Y-90900000D01*
X130948157Y-90652235D01*
X130863141Y-90525000D01*
X130948157Y-90397765D01*
X130960568Y-90335370D01*
X131262599Y-90637401D01*
G36*
X150729549Y-90990000D02*
X150277440Y-90990000D01*
X150277440Y-90760000D01*
X150775298Y-90760000D01*
X150729549Y-90990000D01*
X150729549Y-90990000D01*
G37*
X150729549Y-90990000D02*
X150277440Y-90990000D01*
X150277440Y-90760000D01*
X150775298Y-90760000D01*
X150729549Y-90990000D01*
G36*
X142251843Y-89647765D02*
X142392191Y-89857809D01*
X142602235Y-89998157D01*
X142611500Y-90000000D01*
X142602235Y-90001843D01*
X142392191Y-90142191D01*
X142251843Y-90352235D01*
X142204549Y-90590000D01*
X142147440Y-90590000D01*
X142147440Y-90375000D01*
X142098157Y-90127235D01*
X142071493Y-90087330D01*
X142198157Y-89897765D01*
X142247440Y-89650000D01*
X142247440Y-89625629D01*
X142251843Y-89647765D01*
X142251843Y-89647765D01*
G37*
X142251843Y-89647765D02*
X142392191Y-89857809D01*
X142602235Y-89998157D01*
X142611500Y-90000000D01*
X142602235Y-90001843D01*
X142392191Y-90142191D01*
X142251843Y-90352235D01*
X142204549Y-90590000D01*
X142147440Y-90590000D01*
X142147440Y-90375000D01*
X142098157Y-90127235D01*
X142071493Y-90087330D01*
X142198157Y-89897765D01*
X142247440Y-89650000D01*
X142247440Y-89625629D01*
X142251843Y-89647765D01*
G36*
X144912191Y-89832809D02*
X145122235Y-89973157D01*
X145257185Y-90000000D01*
X145122235Y-90026843D01*
X144912191Y-90167191D01*
X144896950Y-90190000D01*
X144639754Y-90190000D01*
X144607809Y-90142191D01*
X144397765Y-90001843D01*
X144388500Y-90000000D01*
X144397765Y-89998157D01*
X144607809Y-89857809D01*
X144639754Y-89810000D01*
X144896950Y-89810000D01*
X144912191Y-89832809D01*
X144912191Y-89832809D01*
G37*
X144912191Y-89832809D02*
X145122235Y-89973157D01*
X145257185Y-90000000D01*
X145122235Y-90026843D01*
X144912191Y-90167191D01*
X144896950Y-90190000D01*
X144639754Y-90190000D01*
X144607809Y-90142191D01*
X144397765Y-90001843D01*
X144388500Y-90000000D01*
X144397765Y-89998157D01*
X144607809Y-89857809D01*
X144639754Y-89810000D01*
X144896950Y-89810000D01*
X144912191Y-89832809D01*
G36*
X134642191Y-89892191D02*
X134501843Y-90102235D01*
X134500000Y-90111500D01*
X134498157Y-90102235D01*
X134387771Y-89937031D01*
X134564802Y-89760000D01*
X134840027Y-89760000D01*
X134642191Y-89892191D01*
X134642191Y-89892191D01*
G37*
X134642191Y-89892191D02*
X134501843Y-90102235D01*
X134500000Y-90111500D01*
X134498157Y-90102235D01*
X134387771Y-89937031D01*
X134564802Y-89760000D01*
X134840027Y-89760000D01*
X134642191Y-89892191D01*
G36*
X139501843Y-89897765D02*
X139528507Y-89937670D01*
X139500000Y-89980334D01*
X139471493Y-89937670D01*
X139498157Y-89897765D01*
X139500000Y-89888500D01*
X139501843Y-89897765D01*
X139501843Y-89897765D01*
G37*
X139501843Y-89897765D02*
X139528507Y-89937670D01*
X139500000Y-89980334D01*
X139471493Y-89937670D01*
X139498157Y-89897765D01*
X139500000Y-89888500D01*
X139501843Y-89897765D01*
G36*
X156163546Y-69565346D02*
X156165377Y-69566569D01*
X156164336Y-70759482D01*
X156746950Y-72169515D01*
X157824811Y-73249259D01*
X159233825Y-73834333D01*
X159990000Y-73834993D01*
X159990000Y-75129413D01*
X159877235Y-75151843D01*
X159750000Y-75236859D01*
X159622765Y-75151843D01*
X159375000Y-75102560D01*
X158125000Y-75102560D01*
X157877235Y-75151843D01*
X157667191Y-75292191D01*
X157526843Y-75502235D01*
X157477560Y-75750000D01*
X157477560Y-75765000D01*
X157398944Y-75765000D01*
X157164338Y-75811667D01*
X157117671Y-75820949D01*
X156879220Y-75980277D01*
X156855266Y-76004232D01*
X156695938Y-76242683D01*
X156639989Y-76523955D01*
X156639989Y-89505187D01*
X155509998Y-88375196D01*
X155509998Y-80039996D01*
X155452146Y-79749157D01*
X155287399Y-79502595D01*
X153422402Y-77637598D01*
X153175840Y-77472851D01*
X152885001Y-77414999D01*
X151114999Y-77414999D01*
X150824159Y-77472851D01*
X150577598Y-77637598D01*
X150004003Y-78211193D01*
X149877765Y-78126843D01*
X149746826Y-78100798D01*
X151947401Y-75900223D01*
X152112148Y-75653661D01*
X152117645Y-75626028D01*
X152257765Y-75598157D01*
X152467809Y-75457809D01*
X152608157Y-75247765D01*
X152657440Y-75000000D01*
X152657440Y-73000000D01*
X152608157Y-72752235D01*
X152538107Y-72647398D01*
X153003812Y-72647398D01*
X153014973Y-72930531D01*
X153014725Y-73213893D01*
X153027346Y-73244439D01*
X153028648Y-73277461D01*
X153221981Y-73744208D01*
X153235878Y-73749123D01*
X153255519Y-73796657D01*
X153700997Y-74242914D01*
X153750672Y-74263541D01*
X153755792Y-74278019D01*
X154021650Y-74376061D01*
X154283341Y-74484724D01*
X154316390Y-74484753D01*
X154347398Y-74496188D01*
X154630531Y-74485027D01*
X154913893Y-74485275D01*
X154944439Y-74472654D01*
X154977461Y-74471352D01*
X155444208Y-74278019D01*
X155449123Y-74264122D01*
X155496657Y-74244481D01*
X155942914Y-73799003D01*
X155963541Y-73749328D01*
X155978019Y-73744208D01*
X156076061Y-73478350D01*
X156184724Y-73216659D01*
X156184753Y-73183610D01*
X156196188Y-73152602D01*
X156185027Y-72869469D01*
X156185275Y-72586107D01*
X156172654Y-72555561D01*
X156171352Y-72522539D01*
X155978019Y-72055792D01*
X155964122Y-72050877D01*
X155944481Y-72003343D01*
X155499003Y-71557086D01*
X155449328Y-71536459D01*
X155444208Y-71521981D01*
X155178350Y-71423939D01*
X154916659Y-71315276D01*
X154883610Y-71315247D01*
X154852602Y-71303812D01*
X154569469Y-71314973D01*
X154286107Y-71314725D01*
X154255561Y-71327346D01*
X154222539Y-71328648D01*
X153755792Y-71521981D01*
X153750877Y-71535878D01*
X153703343Y-71555519D01*
X153257086Y-72000997D01*
X153236459Y-72050672D01*
X153221981Y-72055792D01*
X153123939Y-72321650D01*
X153015276Y-72583341D01*
X153015247Y-72616390D01*
X153003812Y-72647398D01*
X152538107Y-72647398D01*
X152467809Y-72542191D01*
X152257765Y-72401843D01*
X152170000Y-72384386D01*
X152170000Y-69647440D01*
X153280000Y-69647440D01*
X153527765Y-69598157D01*
X153737809Y-69457809D01*
X153878157Y-69247765D01*
X153927440Y-69000000D01*
X153927440Y-68760000D01*
X155358200Y-68760000D01*
X156163546Y-69565346D01*
X156163546Y-69565346D01*
G37*
X156163546Y-69565346D02*
X156165377Y-69566569D01*
X156164336Y-70759482D01*
X156746950Y-72169515D01*
X157824811Y-73249259D01*
X159233825Y-73834333D01*
X159990000Y-73834993D01*
X159990000Y-75129413D01*
X159877235Y-75151843D01*
X159750000Y-75236859D01*
X159622765Y-75151843D01*
X159375000Y-75102560D01*
X158125000Y-75102560D01*
X157877235Y-75151843D01*
X157667191Y-75292191D01*
X157526843Y-75502235D01*
X157477560Y-75750000D01*
X157477560Y-75765000D01*
X157398944Y-75765000D01*
X157164338Y-75811667D01*
X157117671Y-75820949D01*
X156879220Y-75980277D01*
X156855266Y-76004232D01*
X156695938Y-76242683D01*
X156639989Y-76523955D01*
X156639989Y-89505187D01*
X155509998Y-88375196D01*
X155509998Y-80039996D01*
X155452146Y-79749157D01*
X155287399Y-79502595D01*
X153422402Y-77637598D01*
X153175840Y-77472851D01*
X152885001Y-77414999D01*
X151114999Y-77414999D01*
X150824159Y-77472851D01*
X150577598Y-77637598D01*
X150004003Y-78211193D01*
X149877765Y-78126843D01*
X149746826Y-78100798D01*
X151947401Y-75900223D01*
X152112148Y-75653661D01*
X152117645Y-75626028D01*
X152257765Y-75598157D01*
X152467809Y-75457809D01*
X152608157Y-75247765D01*
X152657440Y-75000000D01*
X152657440Y-73000000D01*
X152608157Y-72752235D01*
X152538107Y-72647398D01*
X153003812Y-72647398D01*
X153014973Y-72930531D01*
X153014725Y-73213893D01*
X153027346Y-73244439D01*
X153028648Y-73277461D01*
X153221981Y-73744208D01*
X153235878Y-73749123D01*
X153255519Y-73796657D01*
X153700997Y-74242914D01*
X153750672Y-74263541D01*
X153755792Y-74278019D01*
X154021650Y-74376061D01*
X154283341Y-74484724D01*
X154316390Y-74484753D01*
X154347398Y-74496188D01*
X154630531Y-74485027D01*
X154913893Y-74485275D01*
X154944439Y-74472654D01*
X154977461Y-74471352D01*
X155444208Y-74278019D01*
X155449123Y-74264122D01*
X155496657Y-74244481D01*
X155942914Y-73799003D01*
X155963541Y-73749328D01*
X155978019Y-73744208D01*
X156076061Y-73478350D01*
X156184724Y-73216659D01*
X156184753Y-73183610D01*
X156196188Y-73152602D01*
X156185027Y-72869469D01*
X156185275Y-72586107D01*
X156172654Y-72555561D01*
X156171352Y-72522539D01*
X155978019Y-72055792D01*
X155964122Y-72050877D01*
X155944481Y-72003343D01*
X155499003Y-71557086D01*
X155449328Y-71536459D01*
X155444208Y-71521981D01*
X155178350Y-71423939D01*
X154916659Y-71315276D01*
X154883610Y-71315247D01*
X154852602Y-71303812D01*
X154569469Y-71314973D01*
X154286107Y-71314725D01*
X154255561Y-71327346D01*
X154222539Y-71328648D01*
X153755792Y-71521981D01*
X153750877Y-71535878D01*
X153703343Y-71555519D01*
X153257086Y-72000997D01*
X153236459Y-72050672D01*
X153221981Y-72055792D01*
X153123939Y-72321650D01*
X153015276Y-72583341D01*
X153015247Y-72616390D01*
X153003812Y-72647398D01*
X152538107Y-72647398D01*
X152467809Y-72542191D01*
X152257765Y-72401843D01*
X152170000Y-72384386D01*
X152170000Y-69647440D01*
X153280000Y-69647440D01*
X153527765Y-69598157D01*
X153737809Y-69457809D01*
X153878157Y-69247765D01*
X153927440Y-69000000D01*
X153927440Y-68760000D01*
X155358200Y-68760000D01*
X156163546Y-69565346D01*
G36*
X137152235Y-87751843D02*
X136942191Y-87892191D01*
X136801843Y-88102235D01*
X136774440Y-88240000D01*
X134250000Y-88240000D01*
X133959161Y-88297852D01*
X133712599Y-88462599D01*
X132835198Y-89340000D01*
X132114802Y-89340000D01*
X131137401Y-88362599D01*
X130997440Y-88269080D01*
X130997440Y-87735001D01*
X137236906Y-87735001D01*
X137152235Y-87751843D01*
X137152235Y-87751843D01*
G37*
X137152235Y-87751843D02*
X136942191Y-87892191D01*
X136801843Y-88102235D01*
X136774440Y-88240000D01*
X134250000Y-88240000D01*
X133959161Y-88297852D01*
X133712599Y-88462599D01*
X132835198Y-89340000D01*
X132114802Y-89340000D01*
X131137401Y-88362599D01*
X130997440Y-88269080D01*
X130997440Y-87735001D01*
X137236906Y-87735001D01*
X137152235Y-87751843D01*
G36*
X150727560Y-89240000D02*
X150679446Y-89240000D01*
X150727560Y-89191886D01*
X150727560Y-89240000D01*
X150727560Y-89240000D01*
G37*
X150727560Y-89240000D02*
X150679446Y-89240000D01*
X150727560Y-89191886D01*
X150727560Y-89240000D01*
G36*
X147529160Y-86652148D02*
X147562760Y-86658831D01*
X147594246Y-86705952D01*
X147207598Y-87092600D01*
X147042851Y-87339162D01*
X146984999Y-87630001D01*
X146984999Y-88088500D01*
X146930000Y-88077560D01*
X145370000Y-88077560D01*
X145122235Y-88126843D01*
X144912191Y-88267191D01*
X144896950Y-88290000D01*
X144797440Y-88290000D01*
X144797440Y-87900000D01*
X144748157Y-87652235D01*
X144646436Y-87500000D01*
X144748157Y-87347765D01*
X144797440Y-87100000D01*
X144797440Y-86710000D01*
X144896950Y-86710000D01*
X144912191Y-86732809D01*
X145122235Y-86873157D01*
X145370000Y-86922440D01*
X146930000Y-86922440D01*
X147177765Y-86873157D01*
X147387809Y-86732809D01*
X147468699Y-86611749D01*
X147529160Y-86652148D01*
X147529160Y-86652148D01*
G37*
X147529160Y-86652148D02*
X147562760Y-86658831D01*
X147594246Y-86705952D01*
X147207598Y-87092600D01*
X147042851Y-87339162D01*
X146984999Y-87630001D01*
X146984999Y-88088500D01*
X146930000Y-88077560D01*
X145370000Y-88077560D01*
X145122235Y-88126843D01*
X144912191Y-88267191D01*
X144896950Y-88290000D01*
X144797440Y-88290000D01*
X144797440Y-87900000D01*
X144748157Y-87652235D01*
X144646436Y-87500000D01*
X144748157Y-87347765D01*
X144797440Y-87100000D01*
X144797440Y-86710000D01*
X144896950Y-86710000D01*
X144912191Y-86732809D01*
X145122235Y-86873157D01*
X145370000Y-86922440D01*
X146930000Y-86922440D01*
X147177765Y-86873157D01*
X147387809Y-86732809D01*
X147468699Y-86611749D01*
X147529160Y-86652148D01*
G36*
X142251843Y-87347765D02*
X142353564Y-87500000D01*
X142251843Y-87652235D01*
X142204549Y-87890000D01*
X142054530Y-87890000D01*
X141847765Y-87751843D01*
X141600000Y-87702560D01*
X140100000Y-87702560D01*
X139852235Y-87751843D01*
X139642191Y-87892191D01*
X139501843Y-88102235D01*
X139500000Y-88111500D01*
X139498157Y-88102235D01*
X139357809Y-87892191D01*
X139147765Y-87751843D01*
X139063094Y-87735001D01*
X139649999Y-87735001D01*
X139940838Y-87677149D01*
X140187400Y-87512402D01*
X140427362Y-87272440D01*
X141500000Y-87272440D01*
X141747765Y-87223157D01*
X141917115Y-87110000D01*
X142204549Y-87110000D01*
X142251843Y-87347765D01*
X142251843Y-87347765D01*
G37*
X142251843Y-87347765D02*
X142353564Y-87500000D01*
X142251843Y-87652235D01*
X142204549Y-87890000D01*
X142054530Y-87890000D01*
X141847765Y-87751843D01*
X141600000Y-87702560D01*
X140100000Y-87702560D01*
X139852235Y-87751843D01*
X139642191Y-87892191D01*
X139501843Y-88102235D01*
X139500000Y-88111500D01*
X139498157Y-88102235D01*
X139357809Y-87892191D01*
X139147765Y-87751843D01*
X139063094Y-87735001D01*
X139649999Y-87735001D01*
X139940838Y-87677149D01*
X140187400Y-87512402D01*
X140427362Y-87272440D01*
X141500000Y-87272440D01*
X141747765Y-87223157D01*
X141917115Y-87110000D01*
X142204549Y-87110000D01*
X142251843Y-87347765D01*
G36*
X149075000Y-87510000D02*
X150453768Y-87510000D01*
X150398729Y-87520948D01*
X150160278Y-87680275D01*
X149740929Y-88099625D01*
X149630000Y-88077560D01*
X148504999Y-88077560D01*
X148504999Y-87944803D01*
X148962233Y-87487569D01*
X149075000Y-87510000D01*
X149075000Y-87510000D01*
G37*
X149075000Y-87510000D02*
X150453768Y-87510000D01*
X150398729Y-87520948D01*
X150160278Y-87680275D01*
X149740929Y-88099625D01*
X149630000Y-88077560D01*
X148504999Y-88077560D01*
X148504999Y-87944803D01*
X148962233Y-87487569D01*
X149075000Y-87510000D01*
G36*
X127952235Y-86863157D02*
X128200000Y-86912440D01*
X129372638Y-86912440D01*
X129462758Y-87002560D01*
X127784999Y-87002560D01*
X127784999Y-86751413D01*
X127952235Y-86863157D01*
X127952235Y-86863157D01*
G37*
X127952235Y-86863157D02*
X128200000Y-86912440D01*
X129372638Y-86912440D01*
X129462758Y-87002560D01*
X127784999Y-87002560D01*
X127784999Y-86751413D01*
X127952235Y-86863157D01*
G36*
X131752560Y-86215001D02*
X130824803Y-86215001D01*
X130447440Y-85837638D01*
X130447440Y-85760000D01*
X131752560Y-85760000D01*
X131752560Y-86215001D01*
X131752560Y-86215001D01*
G37*
X131752560Y-86215001D02*
X130824803Y-86215001D01*
X130447440Y-85837638D01*
X130447440Y-85760000D01*
X131752560Y-85760000D01*
X131752560Y-86215001D01*
G36*
X150729549Y-85990000D02*
X150277440Y-85990000D01*
X150277440Y-85760000D01*
X150775298Y-85760000D01*
X150729549Y-85990000D01*
X150729549Y-85990000D01*
G37*
X150729549Y-85990000D02*
X150277440Y-85990000D01*
X150277440Y-85760000D01*
X150775298Y-85760000D01*
X150729549Y-85990000D01*
G36*
X142251843Y-84647765D02*
X142392191Y-84857809D01*
X142602235Y-84998157D01*
X142611500Y-85000000D01*
X142602235Y-85001843D01*
X142392191Y-85142191D01*
X142251843Y-85352235D01*
X142204549Y-85590000D01*
X142147440Y-85590000D01*
X142147440Y-85375000D01*
X142098157Y-85127235D01*
X142071493Y-85087330D01*
X142198157Y-84897765D01*
X142247440Y-84650000D01*
X142247440Y-84625629D01*
X142251843Y-84647765D01*
X142251843Y-84647765D01*
G37*
X142251843Y-84647765D02*
X142392191Y-84857809D01*
X142602235Y-84998157D01*
X142611500Y-85000000D01*
X142602235Y-85001843D01*
X142392191Y-85142191D01*
X142251843Y-85352235D01*
X142204549Y-85590000D01*
X142147440Y-85590000D01*
X142147440Y-85375000D01*
X142098157Y-85127235D01*
X142071493Y-85087330D01*
X142198157Y-84897765D01*
X142247440Y-84650000D01*
X142247440Y-84625629D01*
X142251843Y-84647765D01*
G36*
X144912191Y-84832809D02*
X145122235Y-84973157D01*
X145257185Y-85000000D01*
X145122235Y-85026843D01*
X144912191Y-85167191D01*
X144896950Y-85190000D01*
X144639754Y-85190000D01*
X144607809Y-85142191D01*
X144397765Y-85001843D01*
X144388500Y-85000000D01*
X144397765Y-84998157D01*
X144607809Y-84857809D01*
X144639754Y-84810000D01*
X144896950Y-84810000D01*
X144912191Y-84832809D01*
X144912191Y-84832809D01*
G37*
X144912191Y-84832809D02*
X145122235Y-84973157D01*
X145257185Y-85000000D01*
X145122235Y-85026843D01*
X144912191Y-85167191D01*
X144896950Y-85190000D01*
X144639754Y-85190000D01*
X144607809Y-85142191D01*
X144397765Y-85001843D01*
X144388500Y-85000000D01*
X144397765Y-84998157D01*
X144607809Y-84857809D01*
X144639754Y-84810000D01*
X144896950Y-84810000D01*
X144912191Y-84832809D01*
G36*
X134642191Y-84892191D02*
X134501843Y-85102235D01*
X134500000Y-85111500D01*
X134498157Y-85102235D01*
X134387771Y-84937031D01*
X134564802Y-84760000D01*
X134840027Y-84760000D01*
X134642191Y-84892191D01*
X134642191Y-84892191D01*
G37*
X134642191Y-84892191D02*
X134501843Y-85102235D01*
X134500000Y-85111500D01*
X134498157Y-85102235D01*
X134387771Y-84937031D01*
X134564802Y-84760000D01*
X134840027Y-84760000D01*
X134642191Y-84892191D01*
G36*
X139501843Y-84897765D02*
X139528507Y-84937670D01*
X139500000Y-84980334D01*
X139471493Y-84937670D01*
X139498157Y-84897765D01*
X139500000Y-84888500D01*
X139501843Y-84897765D01*
X139501843Y-84897765D01*
G37*
X139501843Y-84897765D02*
X139528507Y-84937670D01*
X139500000Y-84980334D01*
X139471493Y-84937670D01*
X139498157Y-84897765D01*
X139500000Y-84888500D01*
X139501843Y-84897765D01*
G36*
X150727560Y-84240000D02*
X150679446Y-84240000D01*
X150727560Y-84191886D01*
X150727560Y-84240000D01*
X150727560Y-84240000D01*
G37*
X150727560Y-84240000D02*
X150679446Y-84240000D01*
X150727560Y-84191886D01*
X150727560Y-84240000D01*
G36*
X127952235Y-81923157D02*
X128200000Y-81972440D01*
X129372638Y-81972440D01*
X129912600Y-82512402D01*
X130159162Y-82677149D01*
X130450001Y-82735001D01*
X137236906Y-82735001D01*
X137152235Y-82751843D01*
X136942191Y-82892191D01*
X136801843Y-83102235D01*
X136774440Y-83240000D01*
X134250000Y-83240000D01*
X133959161Y-83297852D01*
X133712599Y-83462599D01*
X132935198Y-84240000D01*
X130273050Y-84240000D01*
X130257809Y-84217191D01*
X130047765Y-84076843D01*
X129800000Y-84027560D01*
X128200000Y-84027560D01*
X127952235Y-84076843D01*
X127784999Y-84188587D01*
X127784999Y-81811413D01*
X127952235Y-81923157D01*
X127952235Y-81923157D01*
G37*
X127952235Y-81923157D02*
X128200000Y-81972440D01*
X129372638Y-81972440D01*
X129912600Y-82512402D01*
X130159162Y-82677149D01*
X130450001Y-82735001D01*
X137236906Y-82735001D01*
X137152235Y-82751843D01*
X136942191Y-82892191D01*
X136801843Y-83102235D01*
X136774440Y-83240000D01*
X134250000Y-83240000D01*
X133959161Y-83297852D01*
X133712599Y-83462599D01*
X132935198Y-84240000D01*
X130273050Y-84240000D01*
X130257809Y-84217191D01*
X130047765Y-84076843D01*
X129800000Y-84027560D01*
X128200000Y-84027560D01*
X127952235Y-84076843D01*
X127784999Y-84188587D01*
X127784999Y-81811413D01*
X127952235Y-81923157D01*
G36*
X147529160Y-81652148D02*
X147562760Y-81658832D01*
X147594246Y-81705952D01*
X147207598Y-82092600D01*
X147042851Y-82339162D01*
X146984999Y-82630001D01*
X146984999Y-83088500D01*
X146930000Y-83077560D01*
X145370000Y-83077560D01*
X145122235Y-83126843D01*
X144912191Y-83267191D01*
X144896950Y-83290000D01*
X144797440Y-83290000D01*
X144797440Y-82900000D01*
X144748157Y-82652235D01*
X144646436Y-82500000D01*
X144748157Y-82347765D01*
X144797440Y-82100000D01*
X144797440Y-81710000D01*
X144896950Y-81710000D01*
X144912191Y-81732809D01*
X145122235Y-81873157D01*
X145370000Y-81922440D01*
X146930000Y-81922440D01*
X147177765Y-81873157D01*
X147387809Y-81732809D01*
X147468699Y-81611749D01*
X147529160Y-81652148D01*
X147529160Y-81652148D01*
G37*
X147529160Y-81652148D02*
X147562760Y-81658832D01*
X147594246Y-81705952D01*
X147207598Y-82092600D01*
X147042851Y-82339162D01*
X146984999Y-82630001D01*
X146984999Y-83088500D01*
X146930000Y-83077560D01*
X145370000Y-83077560D01*
X145122235Y-83126843D01*
X144912191Y-83267191D01*
X144896950Y-83290000D01*
X144797440Y-83290000D01*
X144797440Y-82900000D01*
X144748157Y-82652235D01*
X144646436Y-82500000D01*
X144748157Y-82347765D01*
X144797440Y-82100000D01*
X144797440Y-81710000D01*
X144896950Y-81710000D01*
X144912191Y-81732809D01*
X145122235Y-81873157D01*
X145370000Y-81922440D01*
X146930000Y-81922440D01*
X147177765Y-81873157D01*
X147387809Y-81732809D01*
X147468699Y-81611749D01*
X147529160Y-81652148D01*
G36*
X142251843Y-82347765D02*
X142353564Y-82500000D01*
X142251843Y-82652235D01*
X142204549Y-82890000D01*
X142054530Y-82890000D01*
X141847765Y-82751843D01*
X141600000Y-82702560D01*
X140100000Y-82702560D01*
X139852235Y-82751843D01*
X139642191Y-82892191D01*
X139501843Y-83102235D01*
X139500000Y-83111500D01*
X139498157Y-83102235D01*
X139357809Y-82892191D01*
X139147765Y-82751843D01*
X139063094Y-82735001D01*
X139649999Y-82735001D01*
X139940838Y-82677149D01*
X140187400Y-82512402D01*
X140427362Y-82272440D01*
X141500000Y-82272440D01*
X141747765Y-82223157D01*
X141917115Y-82110000D01*
X142204549Y-82110000D01*
X142251843Y-82347765D01*
X142251843Y-82347765D01*
G37*
X142251843Y-82347765D02*
X142353564Y-82500000D01*
X142251843Y-82652235D01*
X142204549Y-82890000D01*
X142054530Y-82890000D01*
X141847765Y-82751843D01*
X141600000Y-82702560D01*
X140100000Y-82702560D01*
X139852235Y-82751843D01*
X139642191Y-82892191D01*
X139501843Y-83102235D01*
X139500000Y-83111500D01*
X139498157Y-83102235D01*
X139357809Y-82892191D01*
X139147765Y-82751843D01*
X139063094Y-82735001D01*
X139649999Y-82735001D01*
X139940838Y-82677149D01*
X140187400Y-82512402D01*
X140427362Y-82272440D01*
X141500000Y-82272440D01*
X141747765Y-82223157D01*
X141917115Y-82110000D01*
X142204549Y-82110000D01*
X142251843Y-82347765D01*
G36*
X149075000Y-82510000D02*
X150453768Y-82510000D01*
X150398729Y-82520948D01*
X150160278Y-82680275D01*
X149740929Y-83099625D01*
X149630000Y-83077560D01*
X148504999Y-83077560D01*
X148504999Y-82944803D01*
X148962233Y-82487569D01*
X149075000Y-82510000D01*
X149075000Y-82510000D01*
G37*
X149075000Y-82510000D02*
X150453768Y-82510000D01*
X150398729Y-82520948D01*
X150160278Y-82680275D01*
X149740929Y-83099625D01*
X149630000Y-83077560D01*
X148504999Y-83077560D01*
X148504999Y-82944803D01*
X148962233Y-82487569D01*
X149075000Y-82510000D01*
G36*
X153989998Y-80354798D02*
X153989998Y-82719852D01*
X153660001Y-82389855D01*
X153660001Y-80759999D01*
X153604052Y-80478727D01*
X153569646Y-80427235D01*
X153444725Y-80240276D01*
X153384724Y-80180276D01*
X153253961Y-80092903D01*
X153272440Y-80000000D01*
X153272440Y-79637240D01*
X153989998Y-80354798D01*
X153989998Y-80354798D01*
G37*
X153989998Y-80354798D02*
X153989998Y-82719852D01*
X153660001Y-82389855D01*
X153660001Y-80759999D01*
X153604052Y-80478727D01*
X153569646Y-80427235D01*
X153444725Y-80240276D01*
X153384724Y-80180276D01*
X153253961Y-80092903D01*
X153272440Y-80000000D01*
X153272440Y-79637240D01*
X153989998Y-80354798D01*
G36*
X159877235Y-80348157D02*
X160125000Y-80397440D01*
X160164169Y-80397440D01*
X158109989Y-82451620D01*
X158109989Y-80394454D01*
X158125000Y-80397440D01*
X159375000Y-80397440D01*
X159622765Y-80348157D01*
X159750000Y-80263141D01*
X159877235Y-80348157D01*
X159877235Y-80348157D01*
G37*
X159877235Y-80348157D02*
X160125000Y-80397440D01*
X160164169Y-80397440D01*
X158109989Y-82451620D01*
X158109989Y-80394454D01*
X158125000Y-80397440D01*
X159375000Y-80397440D01*
X159622765Y-80348157D01*
X159750000Y-80263141D01*
X159877235Y-80348157D01*
G36*
X131752560Y-81215001D02*
X130764803Y-81215001D01*
X130447440Y-80897638D01*
X130447440Y-80820000D01*
X131752560Y-80820000D01*
X131752560Y-81215001D01*
X131752560Y-81215001D01*
G37*
X131752560Y-81215001D02*
X130764803Y-81215001D01*
X130447440Y-80897638D01*
X130447440Y-80820000D01*
X131752560Y-80820000D01*
X131752560Y-81215001D01*
G36*
X150729549Y-80990000D02*
X150277440Y-80990000D01*
X150277440Y-80760000D01*
X150775298Y-80760000D01*
X150729549Y-80990000D01*
X150729549Y-80990000D01*
G37*
X150729549Y-80990000D02*
X150277440Y-80990000D01*
X150277440Y-80760000D01*
X150775298Y-80760000D01*
X150729549Y-80990000D01*
G36*
X142251843Y-79647765D02*
X142392191Y-79857809D01*
X142602235Y-79998157D01*
X142611500Y-80000000D01*
X142602235Y-80001843D01*
X142392191Y-80142191D01*
X142251843Y-80352235D01*
X142204549Y-80590000D01*
X142147440Y-80590000D01*
X142147440Y-80375000D01*
X142098157Y-80127235D01*
X142071493Y-80087330D01*
X142198157Y-79897765D01*
X142247440Y-79650000D01*
X142247440Y-79625629D01*
X142251843Y-79647765D01*
X142251843Y-79647765D01*
G37*
X142251843Y-79647765D02*
X142392191Y-79857809D01*
X142602235Y-79998157D01*
X142611500Y-80000000D01*
X142602235Y-80001843D01*
X142392191Y-80142191D01*
X142251843Y-80352235D01*
X142204549Y-80590000D01*
X142147440Y-80590000D01*
X142147440Y-80375000D01*
X142098157Y-80127235D01*
X142071493Y-80087330D01*
X142198157Y-79897765D01*
X142247440Y-79650000D01*
X142247440Y-79625629D01*
X142251843Y-79647765D01*
G36*
X144912191Y-79832809D02*
X145122235Y-79973157D01*
X145257185Y-80000000D01*
X145122235Y-80026843D01*
X144912191Y-80167191D01*
X144896950Y-80190000D01*
X144639754Y-80190000D01*
X144607809Y-80142191D01*
X144397765Y-80001843D01*
X144388500Y-80000000D01*
X144397765Y-79998157D01*
X144607809Y-79857809D01*
X144639754Y-79810000D01*
X144896950Y-79810000D01*
X144912191Y-79832809D01*
X144912191Y-79832809D01*
G37*
X144912191Y-79832809D02*
X145122235Y-79973157D01*
X145257185Y-80000000D01*
X145122235Y-80026843D01*
X144912191Y-80167191D01*
X144896950Y-80190000D01*
X144639754Y-80190000D01*
X144607809Y-80142191D01*
X144397765Y-80001843D01*
X144388500Y-80000000D01*
X144397765Y-79998157D01*
X144607809Y-79857809D01*
X144639754Y-79810000D01*
X144896950Y-79810000D01*
X144912191Y-79832809D01*
G36*
X134642191Y-79892191D02*
X134501843Y-80102235D01*
X134500000Y-80111500D01*
X134498157Y-80102235D01*
X134387771Y-79937031D01*
X134564802Y-79760000D01*
X134840027Y-79760000D01*
X134642191Y-79892191D01*
X134642191Y-79892191D01*
G37*
X134642191Y-79892191D02*
X134501843Y-80102235D01*
X134500000Y-80111500D01*
X134498157Y-80102235D01*
X134387771Y-79937031D01*
X134564802Y-79760000D01*
X134840027Y-79760000D01*
X134642191Y-79892191D01*
G36*
X139501843Y-79897765D02*
X139528507Y-79937670D01*
X139500000Y-79980334D01*
X139471493Y-79937670D01*
X139498157Y-79897765D01*
X139500000Y-79888500D01*
X139501843Y-79897765D01*
X139501843Y-79897765D01*
G37*
X139501843Y-79897765D02*
X139528507Y-79937670D01*
X139500000Y-79980334D01*
X139471493Y-79937670D01*
X139498157Y-79897765D01*
X139500000Y-79888500D01*
X139501843Y-79897765D01*
G36*
X145792760Y-78077560D02*
X145370000Y-78077560D01*
X145122235Y-78126843D01*
X144912191Y-78267191D01*
X144896950Y-78290000D01*
X144797440Y-78290000D01*
X144797440Y-77900000D01*
X144748157Y-77652235D01*
X144607809Y-77442191D01*
X144397765Y-77301843D01*
X144150000Y-77252560D01*
X142850000Y-77252560D01*
X142602235Y-77301843D01*
X142392191Y-77442191D01*
X142251843Y-77652235D01*
X142204549Y-77890000D01*
X142054530Y-77890000D01*
X141847765Y-77751843D01*
X141600000Y-77702560D01*
X140100000Y-77702560D01*
X139852235Y-77751843D01*
X139642191Y-77892191D01*
X139501843Y-78102235D01*
X139500000Y-78111500D01*
X139498157Y-78102235D01*
X139357809Y-77892191D01*
X139147765Y-77751843D01*
X138900000Y-77702560D01*
X137400000Y-77702560D01*
X137152235Y-77751843D01*
X136942191Y-77892191D01*
X136801843Y-78102235D01*
X136774440Y-78240000D01*
X134250000Y-78240000D01*
X133959161Y-78297852D01*
X133712599Y-78462599D01*
X132875198Y-79300000D01*
X130273050Y-79300000D01*
X130257809Y-79277191D01*
X130047765Y-79136843D01*
X129800000Y-79087560D01*
X129337240Y-79087560D01*
X131677360Y-76747440D01*
X132040000Y-76747440D01*
X132287765Y-76698157D01*
X132497809Y-76557809D01*
X132638157Y-76347765D01*
X132687440Y-76100000D01*
X132687440Y-75737360D01*
X134314800Y-74110000D01*
X136204549Y-74110000D01*
X136251843Y-74347765D01*
X136392191Y-74557809D01*
X136602235Y-74698157D01*
X136850000Y-74747440D01*
X138150000Y-74747440D01*
X138397765Y-74698157D01*
X138607809Y-74557809D01*
X138748157Y-74347765D01*
X138797440Y-74100000D01*
X138797440Y-72600000D01*
X138748157Y-72352235D01*
X138607809Y-72142191D01*
X138397765Y-72001843D01*
X138388500Y-72000000D01*
X138397765Y-71998157D01*
X138607809Y-71857809D01*
X138748157Y-71647765D01*
X138795451Y-71410000D01*
X139125200Y-71410000D01*
X145792760Y-78077560D01*
X145792760Y-78077560D01*
G37*
X145792760Y-78077560D02*
X145370000Y-78077560D01*
X145122235Y-78126843D01*
X144912191Y-78267191D01*
X144896950Y-78290000D01*
X144797440Y-78290000D01*
X144797440Y-77900000D01*
X144748157Y-77652235D01*
X144607809Y-77442191D01*
X144397765Y-77301843D01*
X144150000Y-77252560D01*
X142850000Y-77252560D01*
X142602235Y-77301843D01*
X142392191Y-77442191D01*
X142251843Y-77652235D01*
X142204549Y-77890000D01*
X142054530Y-77890000D01*
X141847765Y-77751843D01*
X141600000Y-77702560D01*
X140100000Y-77702560D01*
X139852235Y-77751843D01*
X139642191Y-77892191D01*
X139501843Y-78102235D01*
X139500000Y-78111500D01*
X139498157Y-78102235D01*
X139357809Y-77892191D01*
X139147765Y-77751843D01*
X138900000Y-77702560D01*
X137400000Y-77702560D01*
X137152235Y-77751843D01*
X136942191Y-77892191D01*
X136801843Y-78102235D01*
X136774440Y-78240000D01*
X134250000Y-78240000D01*
X133959161Y-78297852D01*
X133712599Y-78462599D01*
X132875198Y-79300000D01*
X130273050Y-79300000D01*
X130257809Y-79277191D01*
X130047765Y-79136843D01*
X129800000Y-79087560D01*
X129337240Y-79087560D01*
X131677360Y-76747440D01*
X132040000Y-76747440D01*
X132287765Y-76698157D01*
X132497809Y-76557809D01*
X132638157Y-76347765D01*
X132687440Y-76100000D01*
X132687440Y-75737360D01*
X134314800Y-74110000D01*
X136204549Y-74110000D01*
X136251843Y-74347765D01*
X136392191Y-74557809D01*
X136602235Y-74698157D01*
X136850000Y-74747440D01*
X138150000Y-74747440D01*
X138397765Y-74698157D01*
X138607809Y-74557809D01*
X138748157Y-74347765D01*
X138797440Y-74100000D01*
X138797440Y-72600000D01*
X138748157Y-72352235D01*
X138607809Y-72142191D01*
X138397765Y-72001843D01*
X138388500Y-72000000D01*
X138397765Y-71998157D01*
X138607809Y-71857809D01*
X138748157Y-71647765D01*
X138795451Y-71410000D01*
X139125200Y-71410000D01*
X145792760Y-78077560D01*
G36*
X127260000Y-79015196D02*
X127260000Y-78732625D01*
X129162410Y-76830214D01*
X129217717Y-76747440D01*
X129500000Y-76747440D01*
X129534648Y-76740548D01*
X127260000Y-79015196D01*
X127260000Y-79015196D01*
G37*
X127260000Y-79015196D02*
X127260000Y-78732625D01*
X129162410Y-76830214D01*
X129217717Y-76747440D01*
X129500000Y-76747440D01*
X129534648Y-76740548D01*
X127260000Y-79015196D01*
G36*
X162765001Y-77160197D02*
X161953052Y-77972146D01*
X161832809Y-77792191D01*
X161769666Y-77750000D01*
X161832809Y-77707809D01*
X161973157Y-77497765D01*
X162022440Y-77250000D01*
X162022440Y-75750000D01*
X161973157Y-75502235D01*
X161832809Y-75292191D01*
X161622765Y-75151843D01*
X161510000Y-75129413D01*
X161510000Y-73525556D01*
X162169515Y-73253050D01*
X162765001Y-72658602D01*
X162765001Y-77160197D01*
X162765001Y-77160197D01*
G37*
X162765001Y-77160197D02*
X161953052Y-77972146D01*
X161832809Y-77792191D01*
X161769666Y-77750000D01*
X161832809Y-77707809D01*
X161973157Y-77497765D01*
X162022440Y-77250000D01*
X162022440Y-75750000D01*
X161973157Y-75502235D01*
X161832809Y-75292191D01*
X161622765Y-75151843D01*
X161510000Y-75129413D01*
X161510000Y-73525556D01*
X162169515Y-73253050D01*
X162765001Y-72658602D01*
X162765001Y-77160197D01*
G36*
X145482235Y-75598157D02*
X145730000Y-75647440D01*
X146502638Y-75647440D01*
X146717600Y-75862402D01*
X146964162Y-76027149D01*
X147255001Y-76085001D01*
X148976608Y-76085001D01*
X148321609Y-76740000D01*
X146604804Y-76740000D01*
X145424149Y-75559345D01*
X145482235Y-75598157D01*
X145482235Y-75598157D01*
G37*
X145482235Y-75598157D02*
X145730000Y-75647440D01*
X146502638Y-75647440D01*
X146717600Y-75862402D01*
X146964162Y-76027149D01*
X147255001Y-76085001D01*
X148976608Y-76085001D01*
X148321609Y-76740000D01*
X146604804Y-76740000D01*
X145424149Y-75559345D01*
X145482235Y-75598157D01*
G36*
X130392560Y-75882636D02*
X130140548Y-76134648D01*
X130147440Y-76100000D01*
X130147440Y-73010000D01*
X130392560Y-73010000D01*
X130392560Y-75882636D01*
X130392560Y-75882636D01*
G37*
X130392560Y-75882636D02*
X130140548Y-76134648D01*
X130147440Y-76100000D01*
X130147440Y-73010000D01*
X130392560Y-73010000D01*
X130392560Y-75882636D01*
G36*
X145082560Y-75000000D02*
X145131843Y-75247765D01*
X145170655Y-75305851D01*
X144352892Y-74488088D01*
X144430531Y-74485027D01*
X144713893Y-74485275D01*
X144744439Y-74472654D01*
X144777461Y-74471352D01*
X145082560Y-74344976D01*
X145082560Y-75000000D01*
X145082560Y-75000000D01*
G37*
X145082560Y-75000000D02*
X145131843Y-75247765D01*
X145170655Y-75305851D01*
X144352892Y-74488088D01*
X144430531Y-74485027D01*
X144713893Y-74485275D01*
X144744439Y-74472654D01*
X144777461Y-74471352D01*
X145082560Y-74344976D01*
X145082560Y-75000000D01*
G36*
X147622560Y-73427362D02*
X147622560Y-74565001D01*
X147577440Y-74565001D01*
X147577440Y-73382242D01*
X147622560Y-73427362D01*
X147622560Y-73427362D01*
G37*
X147622560Y-73427362D02*
X147622560Y-74565001D01*
X147577440Y-74565001D01*
X147577440Y-73382242D01*
X147622560Y-73427362D01*
G36*
X141462599Y-69112400D02*
X141709161Y-69277147D01*
X142000000Y-69334999D01*
X143530197Y-69334999D01*
X146547758Y-72352560D01*
X145900944Y-72352560D01*
X145778019Y-72055792D01*
X145764122Y-72050877D01*
X145744481Y-72003343D01*
X145299003Y-71557086D01*
X145249328Y-71536459D01*
X145244208Y-71521981D01*
X144978350Y-71423939D01*
X144716659Y-71315276D01*
X144683610Y-71315247D01*
X144652602Y-71303812D01*
X144369469Y-71314973D01*
X144086107Y-71314725D01*
X144055561Y-71327346D01*
X144022539Y-71328648D01*
X143555792Y-71521981D01*
X143550877Y-71535878D01*
X143503343Y-71555519D01*
X143057086Y-72000997D01*
X143036459Y-72050672D01*
X143021981Y-72055792D01*
X142923939Y-72321650D01*
X142815276Y-72583341D01*
X142815247Y-72616390D01*
X142803812Y-72647398D01*
X142814973Y-72930531D01*
X142814955Y-72950151D01*
X139977403Y-70112599D01*
X139730841Y-69947852D01*
X139440002Y-69890000D01*
X138795451Y-69890000D01*
X138748157Y-69652235D01*
X138607809Y-69442191D01*
X138397765Y-69301843D01*
X138150000Y-69252560D01*
X136850000Y-69252560D01*
X136602235Y-69301843D01*
X136392191Y-69442191D01*
X136251843Y-69652235D01*
X136202560Y-69900000D01*
X136202560Y-70019080D01*
X136062599Y-70112599D01*
X134685198Y-71490000D01*
X132509709Y-71490000D01*
X132638157Y-71297765D01*
X132687440Y-71050000D01*
X132687440Y-68334999D01*
X140685198Y-68334999D01*
X141462599Y-69112400D01*
X141462599Y-69112400D01*
G37*
X141462599Y-69112400D02*
X141709161Y-69277147D01*
X142000000Y-69334999D01*
X143530197Y-69334999D01*
X146547758Y-72352560D01*
X145900944Y-72352560D01*
X145778019Y-72055792D01*
X145764122Y-72050877D01*
X145744481Y-72003343D01*
X145299003Y-71557086D01*
X145249328Y-71536459D01*
X145244208Y-71521981D01*
X144978350Y-71423939D01*
X144716659Y-71315276D01*
X144683610Y-71315247D01*
X144652602Y-71303812D01*
X144369469Y-71314973D01*
X144086107Y-71314725D01*
X144055561Y-71327346D01*
X144022539Y-71328648D01*
X143555792Y-71521981D01*
X143550877Y-71535878D01*
X143503343Y-71555519D01*
X143057086Y-72000997D01*
X143036459Y-72050672D01*
X143021981Y-72055792D01*
X142923939Y-72321650D01*
X142815276Y-72583341D01*
X142815247Y-72616390D01*
X142803812Y-72647398D01*
X142814973Y-72930531D01*
X142814955Y-72950151D01*
X139977403Y-70112599D01*
X139730841Y-69947852D01*
X139440002Y-69890000D01*
X138795451Y-69890000D01*
X138748157Y-69652235D01*
X138607809Y-69442191D01*
X138397765Y-69301843D01*
X138150000Y-69252560D01*
X136850000Y-69252560D01*
X136602235Y-69301843D01*
X136392191Y-69442191D01*
X136251843Y-69652235D01*
X136202560Y-69900000D01*
X136202560Y-70019080D01*
X136062599Y-70112599D01*
X134685198Y-71490000D01*
X132509709Y-71490000D01*
X132638157Y-71297765D01*
X132687440Y-71050000D01*
X132687440Y-68334999D01*
X140685198Y-68334999D01*
X141462599Y-69112400D01*
G36*
X136602235Y-71998157D02*
X136611500Y-72000000D01*
X136602235Y-72001843D01*
X136392191Y-72142191D01*
X136251843Y-72352235D01*
X136204549Y-72590000D01*
X135734802Y-72590000D01*
X136437031Y-71887771D01*
X136602235Y-71998157D01*
X136602235Y-71998157D01*
G37*
X136602235Y-71998157D02*
X136611500Y-72000000D01*
X136602235Y-72001843D01*
X136392191Y-72142191D01*
X136251843Y-72352235D01*
X136204549Y-72590000D01*
X135734802Y-72590000D01*
X136437031Y-71887771D01*
X136602235Y-71998157D01*
G36*
X148892560Y-69000000D02*
X148941843Y-69247765D01*
X149082191Y-69457809D01*
X149292235Y-69598157D01*
X149540000Y-69647440D01*
X150650000Y-69647440D01*
X150650000Y-71225198D01*
X148747852Y-69323050D01*
X148798157Y-69247765D01*
X148847440Y-69000000D01*
X148847440Y-68760000D01*
X148892560Y-68760000D01*
X148892560Y-69000000D01*
X148892560Y-69000000D01*
G37*
X148892560Y-69000000D02*
X148941843Y-69247765D01*
X149082191Y-69457809D01*
X149292235Y-69598157D01*
X149540000Y-69647440D01*
X150650000Y-69647440D01*
X150650000Y-71225198D01*
X148747852Y-69323050D01*
X148798157Y-69247765D01*
X148847440Y-69000000D01*
X148847440Y-68760000D01*
X148892560Y-68760000D01*
X148892560Y-69000000D01*
G36*
X130392560Y-70622638D02*
X130147440Y-70867758D01*
X130147440Y-68334999D01*
X130392560Y-68334999D01*
X130392560Y-70622638D01*
X130392560Y-70622638D01*
G37*
X130392560Y-70622638D02*
X130147440Y-70867758D01*
X130147440Y-68334999D01*
X130392560Y-68334999D01*
X130392560Y-70622638D01*
G36*
X145914999Y-69260001D02*
X145972851Y-69550840D01*
X146128323Y-69783521D01*
X144919801Y-68574999D01*
X145914999Y-67579801D01*
X145914999Y-69260001D01*
X145914999Y-69260001D01*
G37*
X145914999Y-69260001D02*
X145972851Y-69550840D01*
X146128323Y-69783521D01*
X144919801Y-68574999D01*
X145914999Y-67579801D01*
X145914999Y-69260001D01*
G36*
X156750741Y-67824811D02*
X156698478Y-67950674D01*
X156210403Y-67462599D01*
X155963841Y-67297852D01*
X155673002Y-67240000D01*
X153927440Y-67240000D01*
X153927440Y-67234999D01*
X157341583Y-67234999D01*
X156750741Y-67824811D01*
X156750741Y-67824811D01*
G37*
X156750741Y-67824811D02*
X156698478Y-67950674D01*
X156210403Y-67462599D01*
X155963841Y-67297852D01*
X155673002Y-67240000D01*
X153927440Y-67240000D01*
X153927440Y-67234999D01*
X157341583Y-67234999D01*
X156750741Y-67824811D01*
G36*
X148892560Y-67000000D02*
X148892560Y-67240000D01*
X148847440Y-67240000D01*
X148847440Y-67000000D01*
X148804672Y-66784988D01*
X148935328Y-66784988D01*
X148892560Y-67000000D01*
X148892560Y-67000000D01*
G37*
X148892560Y-67000000D02*
X148892560Y-67240000D01*
X148847440Y-67240000D01*
X148847440Y-67000000D01*
X148804672Y-66784988D01*
X148935328Y-66784988D01*
X148892560Y-67000000D01*
M02*
